<?xml version="1.0" encoding="UTF-8" standalone="no"?>
<!DOCTYPE svg PUBLIC "-//W3C//DTD SVG 1.1//EN"
 "http://www.w3.org/Graphics/SVG/1.1/DTD/svg11.dtd">
<!-- Generated by graphviz version 2.43.0 (0)
 -->
<!-- Title: P4::ICompileContext Pages: 1 -->
<!--zoomable 710 -->

<svg id="main" version="1.1" xmlns="http://www.w3.org/2000/svg" xmlns:xlink="http://www.w3.org/1999/xlink" xml:space="preserve" onload="init(evt)">

<style type="text/css"><![CDATA[
.node, .edge {opacity: 0.7;}
.node.selected, .edge.selected {opacity: 1;}
.edge:hover path { stroke: red; }
.edge:hover polygon { stroke: red; fill: red; }
]]></style>

<defs>
  <circle id="rim" cx="0" cy="0" r="7"/>
  <circle id="rim2" cx="0" cy="0" r="3.5"/>
  <g id="zoomPlus">
    <use xlink:href="#rim" fill="#404040"><set attributeName="fill" to="#808080" begin="zoomplus.mouseover" end="zoomplus.mouseout"/></use>
    <path d="M-4,0h8M0,-4v8" fill="none" stroke="white" stroke-width="1.5" pointer-events="none"/>
  </g>
  <g id="zoomMin">
    <use xlink:href="#rim" fill="#404040"><set attributeName="fill" to="#808080" begin="zoomminus.mouseover" end="zoomminus.mouseout"/></use>
    <path d="M-4,0h8" fill="none" stroke="white" stroke-width="1.5" pointer-events="none"/>
  </g>
  <g id="arrowUp" transform="translate(30 24)">
    <use xlink:href="#rim"/>
    <path pointer-events="none" fill="none" stroke="white" stroke-width="1.5" d="M0,-3.0v7 M-2.5,-0.5L0,-3.0L2.5,-0.5"/>
  </g>
  <g id="arrowRight" transform="rotate(90) translate(36 -43)">
    <use xlink:href="#rim"/>
    <path pointer-events="none" fill="none" stroke="white" stroke-width="1.5" d="M0,-3.0v7 M-2.5,-0.5L0,-3.0L2.5,-0.5"/>
  </g>
  <g id="arrowDown" transform="rotate(180) translate(-30 -48)">
    <use xlink:href="#rim"/>
    <path pointer-events="none" fill="none" stroke="white" stroke-width="1.5" d="M0,-3.0v7 M-2.5,-0.5L0,-3.0L2.5,-0.5"/>
  </g>
  <g id="arrowLeft" transform="rotate(270) translate(-36 17)">
    <use xlink:href="#rim"/>
    <path pointer-events="none" fill="none" stroke="white" stroke-width="1.5" d="M0,-3.0v7 M-2.5,-0.5L0,-3.0L2.5,-0.5"/>
  </g>
  <g id="resetDef">
    <use xlink:href="#rim2" fill="#404040"><set attributeName="fill" to="#808080" begin="reset.mouseover" end="reset.mouseout"/></use>
  </g>
</defs>
<script type="application/ecmascript">
var viewWidth = 707;
var viewHeight = 710;
var sectionId = 'dynsection-0';
</script>
<script type="application/ecmascript" xlink:href="svg.min.js"/>
<svg id="graph" class="graph">
<g id="viewport">
<title>P4::ICompileContext</title>
<!-- Node1 -->
<g id="Node000001" class="node">
<title>Node1</title>
<g id="a_Node000001"><a xlink:title=" ">
<polygon fill="#999999" stroke="#666666" points="116,-378.5 0,-378.5 0,-359.5 116,-359.5 116,-378.5"/>
<text text-anchor="middle" x="58" y="-366.5" font-family="Helvetica,sans-Serif" font-size="10.00">P4::ICompileContext</text>
</a>
</g>
</g>
<!-- Node2 -->
<g id="Node000002" class="node">
<title>Node2</title>
<g id="a_Node000002"><a xlink:href="class_p4_1_1_base_compile_context.html" target="_top" xlink:title=" ">
<polygon fill="white" stroke="#666666" points="289,-378.5 152,-378.5 152,-359.5 289,-359.5 289,-378.5"/>
<text text-anchor="middle" x="220.5" y="-366.5" font-family="Helvetica,sans-Serif" font-size="10.00">P4::BaseCompileContext</text>
</a>
</g>
</g>
<!-- Node1&#45;&gt;Node2 -->
<g id="edge1_Node000001_Node000002" class="edge">
<title>Node1&#45;&gt;Node2</title>
<g id="a_edge1_Node000001_Node000002"><a xlink:title=" ">
<path fill="none" stroke="#63b8ff" d="M126.27,-369C134.76,-369 143.45,-369 151.94,-369"/>
<polygon fill="#63b8ff" stroke="#63b8ff" points="126.04,-365.5 116.04,-369 126.04,-372.5 126.04,-365.5"/>
</a>
</g>
</g>
<!-- Node3 -->
<g id="Node000003" class="node">
<title>Node3</title>
<g id="a_Node000003"><a xlink:href="class_compile_context.html" target="_top" xlink:title=" ">
<polygon fill="white" stroke="#bfbfbf" points="507,-434.5 325,-434.5 325,-415.5 507,-415.5 507,-434.5"/>
<text text-anchor="middle" x="416" y="-422.5" font-family="Helvetica,sans-Serif" font-size="10.00">CompileContext&lt; GTestOptions &gt;</text>
</a>
</g>
</g>
<!-- Node2&#45;&gt;Node3 -->
<g id="edge2_Node000002_Node000003" class="edge">
<title>Node2&#45;&gt;Node3</title>
<g id="a_edge2_Node000002_Node000003"><a xlink:title=" ">
<path fill="none" stroke="#63b8ff" d="M253.94,-382.38C274.13,-390.34 300.78,-400.17 325,-407 336.35,-410.2 348.66,-413.05 360.42,-415.49"/>
<polygon fill="#63b8ff" stroke="#63b8ff" points="255.18,-379.1 244.59,-378.65 252.58,-385.6 255.18,-379.1"/>
</a>
</g>
</g>
<!-- Node4 -->
<g id="Node000004" class="node">
<title>Node4</title>
<g id="a_Node000004"><a xlink:href="class_compile_context.html" target="_top" xlink:title=" ">
<polygon fill="white" stroke="#bfbfbf" points="505,-397.5 327,-397.5 327,-378.5 505,-378.5 505,-397.5"/>
<text text-anchor="middle" x="416" y="-385.5" font-family="Helvetica,sans-Serif" font-size="10.00">CompileContext&lt; OptionsType &gt;</text>
</a>
</g>
</g>
<!-- Node2&#45;&gt;Node4 -->
<g id="edge3_Node000002_Node000004" class="edge">
<title>Node2&#45;&gt;Node4</title>
<g id="a_edge3_Node000002_Node000004"><a xlink:title=" ">
<path fill="none" stroke="#63b8ff" d="M299.32,-376.64C308.42,-377.53 317.74,-378.45 326.96,-379.35"/>
<polygon fill="#63b8ff" stroke="#63b8ff" points="299.47,-373.14 289.18,-375.65 298.79,-380.11 299.47,-373.14"/>
</a>
</g>
</g>
<!-- Node5 -->
<g id="Node000005" class="node">
<title>Node5</title>
<g id="a_Node000005"><a xlink:href="class_p4_1_1_p4_c_context.html" target="_top" xlink:title=" ">
<polygon fill="white" stroke="#666666" points="462,-360.5 370,-360.5 370,-341.5 462,-341.5 462,-360.5"/>
<text text-anchor="middle" x="416" y="-348.5" font-family="Helvetica,sans-Serif" font-size="10.00">P4::P4CContext</text>
</a>
</g>
</g>
<!-- Node2&#45;&gt;Node5 -->
<g id="edge4_Node000002_Node000005" class="edge">
<title>Node2&#45;&gt;Node5</title>
<g id="a_edge4_Node000002_Node000005"><a xlink:title=" ">
<path fill="none" stroke="#63b8ff" d="M299.32,-361.76C323.27,-359.53 348.83,-357.15 369.82,-355.2"/>
<polygon fill="#63b8ff" stroke="#63b8ff" points="298.81,-358.29 289.18,-362.7 299.46,-365.26 298.81,-358.29"/>
</a>
</g>
</g>
<!-- Node21 -->
<g id="Node000021" class="node">
<title>Node21</title>
<g id="a_Node000021"><a xlink:href="class_ref_check_context.html" target="_top" xlink:title=" ">
<polygon fill="white" stroke="#bfbfbf" points="466.5,-323.5 365.5,-323.5 365.5,-304.5 466.5,-304.5 466.5,-323.5"/>
<text text-anchor="middle" x="416" y="-311.5" font-family="Helvetica,sans-Serif" font-size="10.00">RefCheckContext</text>
</a>
</g>
</g>
<!-- Node2&#45;&gt;Node21 -->
<g id="edge20_Node000002_Node000021" class="edge">
<title>Node2&#45;&gt;Node21</title>
<g id="a_edge20_Node000002_Node000021"><a xlink:title=" ">
<path fill="none" stroke="#63b8ff" d="M255.91,-355.8C275.88,-348.45 301.64,-339.5 325,-333 337.92,-329.4 352.06,-326.12 365.21,-323.34"/>
<polygon fill="#63b8ff" stroke="#63b8ff" points="254.47,-352.6 246.32,-359.37 256.91,-359.16 254.47,-352.6"/>
</a>
</g>
</g>
<!-- Node6 -->
<g id="Node000006" class="node">
<title>Node6</title>
<g id="a_Node000006"><a xlink:href="class_p4_1_1_p4_c_context_with_options.html" target="_top" xlink:title=" ">
<polygon fill="white" stroke="#666666" points="697,-702 545,-702 545,-672 697,-672 697,-702"/>
<text text-anchor="start" x="553" y="-690" font-family="Helvetica,sans-Serif" font-size="10.00">P4::P4CContextWithOptions</text>
<text text-anchor="middle" x="621" y="-679" font-family="Helvetica,sans-Serif" font-size="10.00">&lt; ApolloOptions &gt;</text>
</a>
</g>
</g>
<!-- Node5&#45;&gt;Node6 -->
<g id="edge5_Node000005_Node000006" class="edge">
<title>Node5&#45;&gt;Node6</title>
<g id="a_edge5_Node000005_Node000006"><a xlink:title=" ">
<path fill="none" stroke="#63b8ff" d="M472.16,-351.85C485.22,-354.72 497.97,-360.16 507,-370 595.71,-466.67 458.93,-562.27 543,-663 545.87,-666.44 549.23,-669.4 552.9,-671.93"/>
<polygon fill="#63b8ff" stroke="#63b8ff" points="472.61,-348.38 462.17,-350.14 471.43,-355.28 472.61,-348.38"/>
</a>
</g>
</g>
<!-- Node7 -->
<g id="Node000007" class="node">
<title>Node7</title>
<g id="a_Node000007"><a xlink:href="class_p4_1_1_p4_c_context_with_options.html" target="_top" xlink:title=" ">
<polygon fill="white" stroke="#666666" points="697,-654 545,-654 545,-624 697,-624 697,-654"/>
<text text-anchor="start" x="553" y="-642" font-family="Helvetica,sans-Serif" font-size="10.00">P4::P4CContextWithOptions</text>
<text text-anchor="middle" x="621" y="-631" font-family="Helvetica,sans-Serif" font-size="10.00">&lt; TunaNicOptions &gt;</text>
</a>
</g>
</g>
<!-- Node5&#45;&gt;Node7 -->
<g id="edge6_Node000005_Node000007" class="edge">
<title>Node5&#45;&gt;Node7</title>
<g id="a_edge6_Node000005_Node000007"><a xlink:title=" ">
<path fill="none" stroke="#63b8ff" d="M472,-352C485.07,-354.86 497.85,-360.26 507,-370 582.37,-450.2 471.49,-531.34 543,-615 545.91,-618.41 549.3,-621.34 553,-623.85"/>
<polygon fill="#63b8ff" stroke="#63b8ff" points="472.46,-348.53 462.01,-350.28 471.27,-355.43 472.46,-348.53"/>
</a>
</g>
</g>
<!-- Node8 -->
<g id="Node000008" class="node">
<title>Node8</title>
<g id="a_Node000008"><a xlink:href="class_p4_1_1_p4_c_context_with_options.html" target="_top" xlink:title=" ">
<polygon fill="white" stroke="#666666" points="697,-606 545,-606 545,-576 697,-576 697,-606"/>
<text text-anchor="start" x="553" y="-594" font-family="Helvetica,sans-Serif" font-size="10.00">P4::P4CContextWithOptions</text>
<text text-anchor="middle" x="621" y="-583" font-family="Helvetica,sans-Serif" font-size="10.00">&lt; BMV2Options &gt;</text>
</a>
</g>
</g>
<!-- Node5&#45;&gt;Node8 -->
<g id="edge7_Node000005_Node000008" class="edge">
<title>Node5&#45;&gt;Node8</title>
<g id="a_edge7_Node000005_Node000008"><a xlink:title=" ">
<path fill="none" stroke="#63b8ff" d="M472.15,-352.3C485.08,-355.18 497.77,-360.51 507,-370 569.07,-433.79 484,-500.36 543,-567 546.06,-570.46 549.62,-573.43 553.48,-575.97"/>
<polygon fill="#63b8ff" stroke="#63b8ff" points="472.72,-348.85 462.26,-350.55 471.5,-355.74 472.72,-348.85"/>
</a>
</g>
</g>
<!-- Node9 -->
<g id="Node000009" class="node">
<title>Node9</title>
<g id="a_Node000009"><a xlink:href="class_p4_1_1_p4_c_context_with_options.html" target="_top" xlink:title=" ">
<polygon fill="white" stroke="#666666" points="697,-558 545,-558 545,-528 697,-528 697,-558"/>
<text text-anchor="start" x="553" y="-546" font-family="Helvetica,sans-Serif" font-size="10.00">P4::P4CContextWithOptions</text>
<text text-anchor="middle" x="621" y="-535" font-family="Helvetica,sans-Serif" font-size="10.00">&lt; PnaNicOptions &gt;</text>
</a>
</g>
</g>
<!-- Node5&#45;&gt;Node9 -->
<g id="edge8_Node000005_Node000009" class="edge">
<title>Node5&#45;&gt;Node9</title>
<g id="a_edge8_Node000005_Node000009"><a xlink:title=" ">
<path fill="none" stroke="#63b8ff" d="M472.54,-352.83C485.22,-355.74 497.69,-360.96 507,-370 555.87,-417.47 496.42,-469.28 543,-519 546.26,-522.47 550,-525.45 554.06,-528"/>
<polygon fill="#63b8ff" stroke="#63b8ff" points="472.84,-349.33 462.37,-350.97 471.58,-356.22 472.84,-349.33"/>
</a>
</g>
</g>
<!-- Node10 -->
<g id="Node000010" class="node">
<title>Node10</title>
<g id="a_Node000010"><a xlink:href="class_p4_1_1_p4_c_context_with_options.html" target="_top" xlink:title=" ">
<polygon fill="white" stroke="#666666" points="697,-510 545,-510 545,-480 697,-480 697,-510"/>
<text text-anchor="start" x="553" y="-498" font-family="Helvetica,sans-Serif" font-size="10.00">P4::P4CContextWithOptions</text>
<text text-anchor="middle" x="621" y="-487" font-family="Helvetica,sans-Serif" font-size="10.00">&lt; PsaSwitchOptions &gt;</text>
</a>
</g>
</g>
<!-- Node5&#45;&gt;Node10 -->
<g id="edge9_Node000005_Node000010" class="edge">
<title>Node5&#45;&gt;Node10</title>
<g id="a_edge9_Node000005_Node000010"><a xlink:title=" ">
<path fill="none" stroke="#63b8ff" d="M472.26,-353.62C484.83,-356.52 497.32,-361.54 507,-370 542.88,-401.36 508.63,-437.99 543,-471 546.53,-474.39 550.54,-477.31 554.83,-479.81"/>
<polygon fill="#63b8ff" stroke="#63b8ff" points="472.68,-350.14 462.21,-351.72 471.38,-357.02 472.68,-350.14"/>
</a>
</g>
</g>
<!-- Node11 -->
<g id="Node000011" class="node">
<title>Node11</title>
<g id="a_Node000011"><a xlink:href="class_p4_1_1_p4_c_context_with_options.html" target="_top" xlink:title=" ">
<polygon fill="white" stroke="#666666" points="697,-462 545,-462 545,-432 697,-432 697,-462"/>
<text text-anchor="start" x="553" y="-450" font-family="Helvetica,sans-Serif" font-size="10.00">P4::P4CContextWithOptions</text>
<text text-anchor="middle" x="621" y="-439" font-family="Helvetica,sans-Serif" font-size="10.00">&lt; SimpleSwitchOptions &gt;</text>
</a>
</g>
</g>
<!-- Node5&#45;&gt;Node11 -->
<g id="edge10_Node000005_Node000011" class="edge">
<title>Node5&#45;&gt;Node11</title>
<g id="a_edge10_Node000005_Node000011"><a xlink:title=" ">
<path fill="none" stroke="#63b8ff" d="M472.33,-355.79C484.47,-358.66 496.74,-363.12 507,-370 530.64,-385.87 520.13,-406.04 543,-423 547.61,-426.42 552.72,-429.36 558.05,-431.89"/>
<polygon fill="#63b8ff" stroke="#63b8ff" points="472.72,-352.29 462.22,-353.73 471.32,-359.15 472.72,-352.29"/>
</a>
</g>
</g>
<!-- Node12 -->
<g id="Node000012" class="node">
<title>Node12</title>
<g id="a_Node000012"><a xlink:href="class_p4_1_1_p4_c_context_with_options.html" target="_top" xlink:title=" ">
<polygon fill="white" stroke="#666666" points="697,-414 545,-414 545,-384 697,-384 697,-414"/>
<text text-anchor="start" x="553" y="-402" font-family="Helvetica,sans-Serif" font-size="10.00">P4::P4CContextWithOptions</text>
<text text-anchor="middle" x="621" y="-391" font-family="Helvetica,sans-Serif" font-size="10.00">&lt; DpdkOptions &gt;</text>
</a>
</g>
</g>
<!-- Node5&#45;&gt;Node12 -->
<g id="edge11_Node000005_Node000012" class="edge">
<title>Node5&#45;&gt;Node12</title>
<g id="a_edge11_Node000005_Node000012"><a xlink:title=" ">
<path fill="none" stroke="#63b8ff" d="M472.33,-362.29C483.81,-364.74 495.81,-367.39 507,-370 525.44,-374.31 545.48,-379.34 563.5,-383.99"/>
<polygon fill="#63b8ff" stroke="#63b8ff" points="472.92,-358.83 462.41,-360.19 471.47,-365.68 472.92,-358.83"/>
</a>
</g>
</g>
<!-- Node13 -->
<g id="Node000013" class="node">
<title>Node13</title>
<g id="a_Node000013"><a xlink:href="class_p4_1_1_p4_c_context_with_options.html" target="_top" xlink:title=" ">
<polygon fill="white" stroke="#666666" points="697,-366 545,-366 545,-336 697,-336 697,-366"/>
<text text-anchor="start" x="553" y="-354" font-family="Helvetica,sans-Serif" font-size="10.00">P4::P4CContextWithOptions</text>
<text text-anchor="middle" x="621" y="-343" font-family="Helvetica,sans-Serif" font-size="10.00">&lt; EbpfOptions &gt;</text>
</a>
</g>
</g>
<!-- Node5&#45;&gt;Node13 -->
<g id="edge12_Node000005_Node000013" class="edge">
<title>Node5&#45;&gt;Node13</title>
<g id="a_edge12_Node000005_Node000013"><a xlink:title=" ">
<path fill="none" stroke="#63b8ff" d="M472.35,-351C494.67,-351 520.77,-351 544.77,-351"/>
<polygon fill="#63b8ff" stroke="#63b8ff" points="472.05,-347.5 462.05,-351 472.05,-354.5 472.05,-347.5"/>
</a>
</g>
</g>
<!-- Node14 -->
<g id="Node000014" class="node">
<title>Node14</title>
<g id="a_Node000014"><a xlink:href="class_p4_1_1_p4_c_context_with_options.html" target="_top" xlink:title=" ">
<polygon fill="white" stroke="#666666" points="697,-318 545,-318 545,-288 697,-288 697,-318"/>
<text text-anchor="start" x="553" y="-306" font-family="Helvetica,sans-Serif" font-size="10.00">P4::P4CContextWithOptions</text>
<text text-anchor="middle" x="621" y="-295" font-family="Helvetica,sans-Serif" font-size="10.00">&lt; Options &gt;</text>
</a>
</g>
</g>
<!-- Node5&#45;&gt;Node14 -->
<g id="edge13_Node000005_Node000014" class="edge">
<title>Node5&#45;&gt;Node14</title>
<g id="a_edge13_Node000005_Node000014"><a xlink:title=" ">
<path fill="none" stroke="#63b8ff" d="M472.36,-340.49C483.84,-338.15 495.84,-335.6 507,-333 526.37,-328.5 547.48,-323.04 566.14,-318.03"/>
<polygon fill="#63b8ff" stroke="#63b8ff" points="471.56,-337.08 462.44,-342.48 472.94,-343.95 471.56,-337.08"/>
</a>
</g>
</g>
<!-- Node15 -->
<g id="Node000015" class="node">
<title>Node15</title>
<g id="a_Node000015"><a xlink:href="class_p4_1_1_p4_c_context_with_options.html" target="_top" xlink:title=" ">
<polygon fill="white" stroke="#666666" points="697,-270 545,-270 545,-240 697,-240 697,-270"/>
<text text-anchor="start" x="553" y="-258" font-family="Helvetica,sans-Serif" font-size="10.00">P4::P4CContextWithOptions</text>
<text text-anchor="middle" x="621" y="-247" font-family="Helvetica,sans-Serif" font-size="10.00">&lt; P4fmtOptions &gt;</text>
</a>
</g>
</g>
<!-- Node5&#45;&gt;Node15 -->
<g id="edge14_Node000005_Node000015" class="edge">
<title>Node5&#45;&gt;Node15</title>
<g id="a_edge14_Node000005_Node000015"><a xlink:title=" ">
<path fill="none" stroke="#63b8ff" d="M472.36,-346.96C484.49,-344.21 496.76,-339.86 507,-333 530.97,-316.95 519.91,-296.28 543,-279 547.6,-275.56 552.7,-272.61 558.02,-270.07"/>
<polygon fill="#63b8ff" stroke="#63b8ff" points="471.4,-343.58 462.24,-348.9 472.72,-350.45 471.4,-343.58"/>
</a>
</g>
</g>
<!-- Node16 -->
<g id="Node000016" class="node">
<title>Node16</title>
<g id="a_Node000016"><a xlink:href="class_p4_1_1_p4_c_context_with_options.html" target="_top" xlink:title=" ">
<polygon fill="white" stroke="#666666" points="697,-222 545,-222 545,-192 697,-192 697,-222"/>
<text text-anchor="start" x="553" y="-210" font-family="Helvetica,sans-Serif" font-size="10.00">P4::P4CContextWithOptions</text>
<text text-anchor="middle" x="621" y="-199" font-family="Helvetica,sans-Serif" font-size="10.00">&lt; TCOptions &gt;</text>
</a>
</g>
</g>
<!-- Node5&#45;&gt;Node16 -->
<g id="edge15_Node000005_Node000016" class="edge">
<title>Node5&#45;&gt;Node16</title>
<g id="a_edge15_Node000005_Node000016"><a xlink:title=" ">
<path fill="none" stroke="#63b8ff" d="M472.24,-349.07C484.82,-346.3 497.31,-341.4 507,-333 543.32,-301.5 508.38,-264.36 543,-231 546.53,-227.6 550.53,-224.68 554.81,-222.17"/>
<polygon fill="#63b8ff" stroke="#63b8ff" points="471.42,-345.66 462.19,-350.86 472.65,-352.55 471.42,-345.66"/>
</a>
</g>
</g>
<!-- Node17 -->
<g id="Node000017" class="node">
<title>Node17</title>
<g id="a_Node000017"><a xlink:href="class_p4_1_1_p4_tools_1_1_compile_context.html" target="_top" xlink:title=" ">
<polygon fill="white" stroke="#666666" points="699,-174 543,-174 543,-144 699,-144 699,-174"/>
<text text-anchor="start" x="551" y="-162" font-family="Helvetica,sans-Serif" font-size="10.00">P4::P4Tools::CompileContext</text>
<text text-anchor="middle" x="621" y="-151" font-family="Helvetica,sans-Serif" font-size="10.00">&lt; P4TestOptions &gt;</text>
</a>
</g>
</g>
<!-- Node5&#45;&gt;Node17 -->
<g id="edge16_Node000005_Node000017" class="edge">
<title>Node5&#45;&gt;Node17</title>
<g id="a_edge16_Node000005_Node000017"><a xlink:title=" ">
<path fill="none" stroke="#63b8ff" d="M472.51,-349.84C485.19,-347.07 497.67,-341.98 507,-333 556.39,-285.45 496.16,-233.07 543,-183 546.16,-179.63 549.78,-176.72 553.69,-174.22"/>
<polygon fill="#63b8ff" stroke="#63b8ff" points="471.61,-346.45 462.34,-351.59 472.79,-353.34 471.61,-346.45"/>
</a>
</g>
</g>
<!-- Node18 -->
<g id="Node000018" class="node">
<title>Node18</title>
<g id="a_Node000018"><a xlink:href="class_p4_1_1_p4_tools_1_1_compile_context.html" target="_top" xlink:title=" ">
<polygon fill="white" stroke="#666666" points="699,-126 543,-126 543,-96 699,-96 699,-126"/>
<text text-anchor="start" x="551" y="-114" font-family="Helvetica,sans-Serif" font-size="10.00">P4::P4Tools::CompileContext</text>
<text text-anchor="middle" x="621" y="-103" font-family="Helvetica,sans-Serif" font-size="10.00">&lt; P4ReachabilityOptions &gt;</text>
</a>
</g>
</g>
<!-- Node5&#45;&gt;Node18 -->
<g id="edge17_Node000005_Node000018" class="edge">
<title>Node5&#45;&gt;Node18</title>
<g id="a_edge17_Node000005_Node000018"><a xlink:title=" ">
<path fill="none" stroke="#63b8ff" d="M472.11,-350.36C485.05,-347.63 497.74,-342.42 507,-333 569.69,-269.2 483.74,-201.99 543,-135 546.06,-131.54 549.61,-128.57 553.48,-126.03"/>
<polygon fill="#63b8ff" stroke="#63b8ff" points="471.52,-346.91 462.22,-352 472.66,-353.82 471.52,-346.91"/>
</a>
</g>
</g>
<!-- Node19 -->
<g id="Node000019" class="node">
<title>Node19</title>
<g id="a_Node000019"><a xlink:href="class_p4_1_1_p4_c_context_with_options.html" target="_top" xlink:title=" ">
<polygon fill="white" stroke="#666666" points="697,-78 545,-78 545,-48 697,-48 697,-78"/>
<text text-anchor="start" x="553" y="-66" font-family="Helvetica,sans-Serif" font-size="10.00">P4::P4CContextWithOptions</text>
<text text-anchor="middle" x="621" y="-55" font-family="Helvetica,sans-Serif" font-size="10.00">&lt; OptionsType &gt;</text>
</a>
</g>
</g>
<!-- Node5&#45;&gt;Node19 -->
<g id="edge18_Node000005_Node000019" class="edge">
<title>Node5&#45;&gt;Node19</title>
<g id="a_edge18_Node000005_Node000019"><a xlink:title=" ">
<path fill="none" stroke="#63b8ff" d="M472.34,-350.58C485.27,-347.84 497.91,-342.58 507,-333 583.07,-252.86 471.23,-171.01 543,-87 545.91,-83.59 549.3,-80.66 552.99,-78.14"/>
<polygon fill="#63b8ff" stroke="#63b8ff" points="471.74,-347.13 462.44,-352.21 472.88,-354.04 471.74,-347.13"/>
</a>
</g>
</g>
<!-- Node20 -->
<g id="Node000020" class="node">
<title>Node20</title>
<g id="a_Node000020"><a xlink:href="class_p4_1_1_p4_tools_1_1_compile_context.html" target="_top" xlink:title="A compilation context for P4Tools that provides a custom compiler configuration.">
<polygon fill="white" stroke="#666666" points="699,-30 543,-30 543,0 699,0 699,-30"/>
<text text-anchor="start" x="551" y="-18" font-family="Helvetica,sans-Serif" font-size="10.00">P4::P4Tools::CompileContext</text>
<text text-anchor="middle" x="621" y="-7" font-family="Helvetica,sans-Serif" font-size="10.00">&lt; OptionsType &gt;</text>
</a>
</g>
</g>
<!-- Node5&#45;&gt;Node20 -->
<g id="edge19_Node000005_Node000020" class="edge">
<title>Node5&#45;&gt;Node20</title>
<g id="a_edge19_Node000005_Node000020"><a xlink:title=" ">
<path fill="none" stroke="#63b8ff" d="M472.12,-350.8C485.18,-348.09 497.94,-342.78 507,-333 596.5,-236.47 458.67,-140.09 543,-39 545.87,-35.56 549.23,-32.6 552.9,-30.07"/>
<polygon fill="#63b8ff" stroke="#63b8ff" points="471.44,-347.37 462.13,-352.41 472.55,-354.28 471.44,-347.37"/>
</a>
</g>
</g>
</g>
</svg>

<g id="navigator" transform="translate(0 0)" fill="#404254">
  <rect fill="#f2f5e9" fill-opacity="0.5" stroke="#606060" stroke-width=".5" x="0" y="0" width="60" height="60"/>
  <use id="zoomplus" xlink:href="#zoomPlus" x="17" y="9" onmousedown="handleZoom(evt,'in')"/>
  <use id="zoomminus" xlink:href="#zoomMin" x="42" y="9" onmousedown="handleZoom(evt,'out')"/>
  <use id="reset" xlink:href="#resetDef" x="30" y="36" onmousedown="handleReset()"/>
   <use id="arrowup" xlink:href="#arrowUp" x="0" y="0" onmousedown="handlePan(0,-1)"/>
  <use id="arrowright" xlink:href="#arrowRight" x="0" y="0" onmousedown="handlePan(1,0)"/>
  <use id="arrowdown" xlink:href="#arrowDown" x="0" y="0" onmousedown="handlePan(0,1)"/>
  <use id="arrowleft" xlink:href="#arrowLeft" x="0" y="0" onmousedown="handlePan(-1,0)"/>
</g>
<svg viewBox="0 0 15 15" width="100%" height="30px" preserveAspectRatio="xMaxYMin meet">
 <g id="arrow_out" transform="scale(0.3 0.3)">
  <a xlink:href="class_p4_1_1_i_compile_context__inherit__graph_org.svg" target="_base">
   <rect id="button" ry="5" rx="5" y="6" x="6" height="38" width="38"
        fill="#f2f5e9" fill-opacity="0.5" stroke="#606060" stroke-width="1.0"/>
   <path id="arrow"
     d="M 11.500037,31.436501 C 11.940474,20.09759 22.043105,11.32322 32.158766,21.979434 L 37.068811,17.246167 C 37.068811,17.246167 37.088388,32 37.088388,32 L 22.160133,31.978069 C 22.160133,31.978069 26.997745,27.140456 26.997745,27.140456 C 18.528582,18.264221 13.291696,25.230495 11.500037,31.436501 z"
     style="fill:#404040;"/>
  </a>
 </g>
</svg>

<style type='text/css'>
<![CDATA[
[data-mouse-over-selected='false'] { opacity: 0.7; }
[data-mouse-over-selected='true']  { opacity: 1.0; }
]]>
</style>
<script type="application/ecmascript"><![CDATA[
document.addEventListener('DOMContentLoaded', (event) => {
  highlightEdges();
  highlightAdjacentNodes();
});
]]></script>
</svg>
