<?xml version="1.0" encoding="UTF-8" standalone="no"?>
<!DOCTYPE svg PUBLIC "-//W3C//DTD SVG 1.1//EN"
 "http://www.w3.org/Graphics/SVG/1.1/DTD/svg11.dtd">
<!-- Generated by graphviz version 2.43.0 (0)
 -->
<!-- Title: P4::ICastable Pages: 1 -->
<!--zoomable 1263 -->

<svg id="main" version="1.1" xmlns="http://www.w3.org/2000/svg" xmlns:xlink="http://www.w3.org/1999/xlink" xml:space="preserve" onload="init(evt)">

<style type="text/css"><![CDATA[
.node, .edge {opacity: 0.7;}
.node.selected, .edge.selected {opacity: 1;}
.edge:hover path { stroke: red; }
.edge:hover polygon { stroke: red; fill: red; }
]]></style>

<defs>
  <circle id="rim" cx="0" cy="0" r="7"/>
  <circle id="rim2" cx="0" cy="0" r="3.5"/>
  <g id="zoomPlus">
    <use xlink:href="#rim" fill="#404040"><set attributeName="fill" to="#808080" begin="zoomplus.mouseover" end="zoomplus.mouseout"/></use>
    <path d="M-4,0h8M0,-4v8" fill="none" stroke="white" stroke-width="1.5" pointer-events="none"/>
  </g>
  <g id="zoomMin">
    <use xlink:href="#rim" fill="#404040"><set attributeName="fill" to="#808080" begin="zoomminus.mouseover" end="zoomminus.mouseout"/></use>
    <path d="M-4,0h8" fill="none" stroke="white" stroke-width="1.5" pointer-events="none"/>
  </g>
  <g id="arrowUp" transform="translate(30 24)">
    <use xlink:href="#rim"/>
    <path pointer-events="none" fill="none" stroke="white" stroke-width="1.5" d="M0,-3.0v7 M-2.5,-0.5L0,-3.0L2.5,-0.5"/>
  </g>
  <g id="arrowRight" transform="rotate(90) translate(36 -43)">
    <use xlink:href="#rim"/>
    <path pointer-events="none" fill="none" stroke="white" stroke-width="1.5" d="M0,-3.0v7 M-2.5,-0.5L0,-3.0L2.5,-0.5"/>
  </g>
  <g id="arrowDown" transform="rotate(180) translate(-30 -48)">
    <use xlink:href="#rim"/>
    <path pointer-events="none" fill="none" stroke="white" stroke-width="1.5" d="M0,-3.0v7 M-2.5,-0.5L0,-3.0L2.5,-0.5"/>
  </g>
  <g id="arrowLeft" transform="rotate(270) translate(-36 17)">
    <use xlink:href="#rim"/>
    <path pointer-events="none" fill="none" stroke="white" stroke-width="1.5" d="M0,-3.0v7 M-2.5,-0.5L0,-3.0L2.5,-0.5"/>
  </g>
  <g id="resetDef">
    <use xlink:href="#rim2" fill="#404040"><set attributeName="fill" to="#808080" begin="reset.mouseover" end="reset.mouseout"/></use>
  </g>
</defs>
<script type="application/ecmascript">
var viewWidth = 796;
var viewHeight = 1263;
var sectionId = 'dynsection-0';
</script>
<script type="application/ecmascript" xlink:href="svg.min.js"/>
<svg id="graph" class="graph">
<g id="viewport">
<title>P4::ICastable</title>
<!-- Node1 -->
<g id="Node000001" class="node">
<title>Node1</title>
<g id="a_Node000001"><a xlink:title=" ">
<polygon fill="#999999" stroke="#666666" points="202,-407 122,-407 122,-388 202,-388 202,-407"/>
<text text-anchor="middle" x="162" y="-395" font-family="Helvetica,sans-Serif" font-size="10.00">P4::ICastable</text>
</a>
</g>
</g>
<!-- Node3 -->
<g id="Node000003" class="node">
<title>Node3</title>
<g id="a_Node000003"><a xlink:href="class_p4_1_1_abstract_solver.html" target="_top" xlink:title="Provides a higher&#45;level interface for an SMT solver.">
<polygon fill="white" stroke="#666666" points="369,-1236 263,-1236 263,-1217 369,-1217 369,-1236"/>
<text text-anchor="middle" x="316" y="-1224" font-family="Helvetica,sans-Serif" font-size="10.00">P4::AbstractSolver</text>
</a>
</g>
</g>
<!-- Node1&#45;&gt;Node3 -->
<g id="edge2_Node000001_Node000003" class="edge">
<title>Node1&#45;&gt;Node3</title>
<g id="a_edge2_Node000001_Node000003"><a xlink:title=" ">
<path fill="none" stroke="#63b8ff" d="M162.75,-417.17C161.68,-524.32 160.74,-1037.68 238,-1171.5 250.32,-1192.84 274.64,-1208.06 292.66,-1217"/>
<polygon fill="#63b8ff" stroke="#63b8ff" points="166.25,-417.15 162.86,-407.12 159.25,-417.08 166.25,-417.15"/>
</a>
</g>
</g>
<!-- Node5 -->
<g id="Node000005" class="node">
<title>Node5</title>
<g id="a_Node000005"><a xlink:href="class_p4_1_1_apollo_1_1_c_f_g_1_1_node.html" target="_top" xlink:title=" ">
<polygon fill="white" stroke="#bfbfbf" points="377.5,-1162 254.5,-1162 254.5,-1143 377.5,-1143 377.5,-1162"/>
<text text-anchor="middle" x="316" y="-1150" font-family="Helvetica,sans-Serif" font-size="10.00">P4::Apollo::CFG::Node</text>
</a>
</g>
</g>
<!-- Node1&#45;&gt;Node5 -->
<g id="edge4_Node000001_Node000005" class="edge">
<title>Node1&#45;&gt;Node5</title>
<g id="a_edge4_Node000001_Node000005"><a xlink:title=" ">
<path fill="none" stroke="#63b8ff" d="M163.71,-417.33C167.42,-514.45 186.38,-940.02 238,-1060.5 253.01,-1095.54 285.91,-1127.49 303.45,-1142.87"/>
<polygon fill="#63b8ff" stroke="#63b8ff" points="167.2,-417.02 163.33,-407.16 160.21,-417.28 167.2,-417.02"/>
</a>
</g>
</g>
<!-- Node9 -->
<g id="Node000009" class="node">
<title>Node9</title>
<g id="a_Node000009"><a xlink:href="class_p4_1_1_b_m_v2_1_1_c_f_g_1_1_node.html" target="_top" xlink:title=" ">
<polygon fill="white" stroke="#bfbfbf" points="376.5,-1051 255.5,-1051 255.5,-1032 376.5,-1032 376.5,-1051"/>
<text text-anchor="middle" x="316" y="-1039" font-family="Helvetica,sans-Serif" font-size="10.00">P4::BMV2::CFG::Node</text>
</a>
</g>
</g>
<!-- Node1&#45;&gt;Node9 -->
<g id="edge8_Node000001_Node000009" class="edge">
<title>Node1&#45;&gt;Node9</title>
<g id="a_edge8_Node000001_Node000009"><a xlink:title=" ">
<path fill="none" stroke="#63b8ff" d="M163.67,-417.39C166.46,-485.49 179.86,-715.02 238,-893.5 256.12,-949.13 293.59,-1009.12 308.59,-1031.95"/>
<polygon fill="#63b8ff" stroke="#63b8ff" points="167.16,-417.09 163.29,-407.23 160.17,-417.35 167.16,-417.09"/>
</a>
</g>
</g>
<!-- Node13 -->
<g id="Node000013" class="node">
<title>Node13</title>
<g id="a_Node000013"><a xlink:href="struct_p4_1_1_backtrack_1_1trigger.html" target="_top" xlink:title=" ">
<polygon fill="white" stroke="#bfbfbf" points="377,-884 255,-884 255,-865 377,-865 377,-884"/>
<text text-anchor="middle" x="316" y="-872" font-family="Helvetica,sans-Serif" font-size="10.00">P4::Backtrack::trigger</text>
</a>
</g>
</g>
<!-- Node1&#45;&gt;Node13 -->
<g id="edge12_Node000001_Node000013" class="edge">
<title>Node1&#45;&gt;Node13</title>
<g id="a_edge12_Node000001_Node000013"><a xlink:title=" ">
<path fill="none" stroke="#63b8ff" d="M169.17,-416.87C194.93,-497.7 293.35,-806.57 311.96,-864.95"/>
<polygon fill="#63b8ff" stroke="#63b8ff" points="172.41,-415.49 166.04,-407.03 165.74,-417.62 172.41,-415.49"/>
</a>
</g>
</g>
<!-- Node19 -->
<g id="Node000019" class="node">
<title>Node19</title>
<g id="a_Node000019"><a xlink:href="class_p4_1_1_e_b_p_f_1_1_e_b_p_f_object.html" target="_top" xlink:title="Base class for EBPF objects.">
<polygon fill="white" stroke="#666666" points="376.5,-622 255.5,-622 255.5,-603 376.5,-603 376.5,-622"/>
<text text-anchor="middle" x="316" y="-610" font-family="Helvetica,sans-Serif" font-size="10.00">P4::EBPF::EBPFObject</text>
</a>
</g>
</g>
<!-- Node1&#45;&gt;Node19 -->
<g id="edge18_Node000001_Node000019" class="edge">
<title>Node1&#45;&gt;Node19</title>
<g id="a_edge18_Node000001_Node000019"><a xlink:title=" ">
<path fill="none" stroke="#63b8ff" d="M165.17,-417.44C170.43,-456.06 187.42,-541.44 238,-588.5 244.77,-594.8 253.16,-599.44 261.9,-602.87"/>
<polygon fill="#63b8ff" stroke="#63b8ff" points="168.58,-416.54 163.89,-407.04 161.64,-417.4 168.58,-416.54"/>
</a>
</g>
</g>
<!-- Node104 -->
<g id="Node000104" class="node">
<title>Node104</title>
<g id="a_Node000104"><a xlink:href="class_p4_1_1_e_b_p_f_1_1_i_has_width.html" target="_top" xlink:title=" ">
<polygon fill="white" stroke="orangered" points="578.5,-307 463.5,-307 463.5,-288 578.5,-288 578.5,-307"/>
<text text-anchor="middle" x="521" y="-295" font-family="Helvetica,sans-Serif" font-size="10.00">P4::EBPF::IHasWidth</text>
</a>
</g>
</g>
<!-- Node1&#45;&gt;Node104 -->
<g id="edge34_Node000001_Node000104" class="edge">
<title>Node1&#45;&gt;Node104</title>
<g id="a_edge34_Node000001_Node000104"><a xlink:title=" ">
<path fill="none" stroke="#63b8ff" d="M165.62,-417.22C171.47,-452.27 189.14,-524.61 238,-555.5 296.6,-592.55 341.46,-600.74 394,-555.5 475.73,-485.12 355.6,-393.6 430,-315.5 438.79,-306.27 450.88,-301.05 463.34,-298.24"/>
<polygon fill="#63b8ff" stroke="#63b8ff" points="169.07,-416.62 164.12,-407.26 162.15,-417.67 169.07,-416.62"/>
</a>
</g>
</g>
<!-- Node105 -->
<g id="Node000105" class="node">
<title>Node105</title>
<g id="a_Node000105"><a xlink:href="class_p4_1_1_i_r_1_1_i_node.html" target="_top" xlink:title=" ">
<polygon fill="white" stroke="orangered" points="355.5,-546 276.5,-546 276.5,-527 355.5,-527 355.5,-546"/>
<text text-anchor="middle" x="316" y="-534" font-family="Helvetica,sans-Serif" font-size="10.00">P4::IR::INode</text>
</a>
</g>
</g>
<!-- Node1&#45;&gt;Node105 -->
<g id="edge37_Node000001_Node000105" class="edge">
<title>Node1&#45;&gt;Node105</title>
<g id="a_edge37_Node000001_Node000105"><a xlink:title=" ">
<path fill="none" stroke="#63b8ff" d="M169.49,-416.66C179.66,-443.7 202.02,-492.66 238,-518.5 249.15,-526.51 263.34,-531.01 276.49,-533.51"/>
<polygon fill="#63b8ff" stroke="#63b8ff" points="172.75,-415.38 166.07,-407.15 166.16,-417.74 172.75,-415.38"/>
</a>
</g>
</g>
<!-- Node147 -->
<g id="Node000147" class="node">
<title>Node147</title>
<g id="a_Node000147"><a xlink:href="class_p4_1_1_instance_base.html" target="_top" xlink:title=" ">
<polygon fill="white" stroke="orangered" points="366,-509 266,-509 266,-490 366,-490 366,-509"/>
<text text-anchor="middle" x="316" y="-497" font-family="Helvetica,sans-Serif" font-size="10.00">P4::InstanceBase</text>
</a>
</g>
</g>
<!-- Node1&#45;&gt;Node147 -->
<g id="edge38_Node000001_Node000147" class="edge">
<title>Node1&#45;&gt;Node147</title>
<g id="a_edge38_Node000001_Node000147"><a xlink:title=" ">
<path fill="none" stroke="#63b8ff" d="M174.18,-415.55C187.12,-434.9 210.26,-465.03 238,-481.5 246.38,-486.48 256.04,-490.08 265.61,-492.68"/>
<polygon fill="#63b8ff" stroke="#63b8ff" points="177.04,-413.53 168.67,-407.03 171.16,-417.33 177.04,-413.53"/>
</a>
</g>
</g>
<!-- Node167 -->
<g id="Node000167" class="node">
<title>Node167</title>
<g id="a_Node000167"><a xlink:href="class_p4_1_1_json_data.html" target="_top" xlink:title=" ">
<polygon fill="white" stroke="orangered" points="355,-472 277,-472 277,-453 355,-453 355,-472"/>
<text text-anchor="middle" x="316" y="-460" font-family="Helvetica,sans-Serif" font-size="10.00">P4::JsonData</text>
</a>
</g>
</g>
<!-- Node1&#45;&gt;Node167 -->
<g id="edge39_Node000001_Node000167" class="edge">
<title>Node1&#45;&gt;Node167</title>
<g id="a_edge39_Node000001_Node000167"><a xlink:title=" ">
<path fill="none" stroke="#63b8ff" d="M184.15,-412.92C198.68,-422.89 218.74,-435.45 238,-443.5 250.2,-448.6 264.07,-452.55 276.65,-455.49"/>
<polygon fill="#63b8ff" stroke="#63b8ff" points="186.07,-410 175.88,-407.12 182.05,-415.73 186.07,-410"/>
</a>
</g>
</g>
<!-- Node174 -->
<g id="Node000174" class="node">
<title>Node174</title>
<g id="a_Node000174"><a xlink:href="class_p4_1_1_p4_tools_1_1_abstract_rep_checked_node.html" target="_top" xlink:title=" ">
<polygon fill="white" stroke="#666666" points="394,-434.5 238,-434.5 238,-404.5 394,-404.5 394,-434.5"/>
<text text-anchor="start" x="246" y="-422.5" font-family="Helvetica,sans-Serif" font-size="10.00">P4::P4Tools::AbstractRep</text>
<text text-anchor="middle" x="316" y="-411.5" font-family="Helvetica,sans-Serif" font-size="10.00">CheckedNode&lt; Self, Node &gt;</text>
</a>
</g>
</g>
<!-- Node1&#45;&gt;Node174 -->
<g id="edge40_Node000001_Node000174" class="edge">
<title>Node1&#45;&gt;Node174</title>
<g id="a_edge40_Node000001_Node000174"><a xlink:title=" ">
<path fill="none" stroke="#63b8ff" d="M212.26,-404.63C220.48,-405.82 229.17,-407.08 237.89,-408.34"/>
<polygon fill="#63b8ff" stroke="#63b8ff" points="212.54,-401.13 202.14,-403.17 211.54,-408.06 212.54,-401.13"/>
</a>
</g>
</g>
<!-- Node175 -->
<g id="Node000175" class="node">
<title>Node175</title>
<g id="a_Node000175"><a xlink:href="class_p4_1_1_p4_tools_1_1_compiler_result.html" target="_top" xlink:title=" ">
<polygon fill="#fff0f0" stroke="red" points="392,-386 240,-386 240,-367 392,-367 392,-386"/>
<text text-anchor="middle" x="316" y="-374" font-family="Helvetica,sans-Serif" font-size="10.00">P4::P4Tools::CompilerResult</text>
</a>
</g>
</g>
<!-- Node1&#45;&gt;Node175 -->
<g id="edge41_Node000001_Node000175" class="edge">
<title>Node1&#45;&gt;Node175</title>
<g id="a_edge41_Node000001_Node000175"><a xlink:title=" ">
<path fill="none" stroke="#63b8ff" d="M212.25,-390.7C223.08,-389.2 234.75,-387.59 246.2,-386"/>
<polygon fill="#63b8ff" stroke="#63b8ff" points="211.57,-387.26 202.14,-392.09 212.53,-394.19 211.57,-387.26"/>
</a>
</g>
</g>
<!-- Node179 -->
<g id="Node000179" class="node">
<title>Node179</title>
<g id="a_Node000179"><a xlink:href="struct_p4_1_1_p4_tools_1_1_p4_testgen_1_1_abstract_test.html" target="_top" xlink:title="Type definitions for abstract tests.">
<polygon fill="#fff0f0" stroke="red" points="379.5,-348.5 252.5,-348.5 252.5,-318.5 379.5,-318.5 379.5,-348.5"/>
<text text-anchor="start" x="260.5" y="-336.5" font-family="Helvetica,sans-Serif" font-size="10.00">P4::P4Tools::P4Testgen</text>
<text text-anchor="middle" x="316" y="-325.5" font-family="Helvetica,sans-Serif" font-size="10.00">::AbstractTest</text>
</a>
</g>
</g>
<!-- Node1&#45;&gt;Node179 -->
<g id="edge42_Node000001_Node000179" class="edge">
<title>Node1&#45;&gt;Node179</title>
<g id="a_edge42_Node000001_Node000179"><a xlink:title=" ">
<path fill="none" stroke="#63b8ff" d="M187.72,-382.8C202.07,-374.65 220.69,-364.74 238,-357.5 245.62,-354.31 253.82,-351.32 261.93,-348.6"/>
<polygon fill="#63b8ff" stroke="#63b8ff" points="185.87,-379.83 178.96,-387.85 189.37,-385.89 185.87,-379.83"/>
</a>
</g>
</g>
<!-- Node182 -->
<g id="Node000182" class="node">
<title>Node182</title>
<g id="a_Node000182"><a xlink:href="class_p4_1_1_p4_tools_1_1_p4_testgen_1_1_program_info.html" target="_top" xlink:title="Stores target&#45;specific information about a P4 program.">
<polygon fill="#fff0f0" stroke="red" points="379.5,-300.5 252.5,-300.5 252.5,-270.5 379.5,-270.5 379.5,-300.5"/>
<text text-anchor="start" x="260.5" y="-288.5" font-family="Helvetica,sans-Serif" font-size="10.00">P4::P4Tools::P4Testgen</text>
<text text-anchor="middle" x="316" y="-277.5" font-family="Helvetica,sans-Serif" font-size="10.00">::ProgramInfo</text>
</a>
</g>
</g>
<!-- Node1&#45;&gt;Node182 -->
<g id="edge43_Node000001_Node000182" class="edge">
<title>Node1&#45;&gt;Node182</title>
<g id="a_edge43_Node000001_Node000182"><a xlink:title=" ">
<path fill="none" stroke="#63b8ff" d="M174.04,-379.24C186.98,-359.32 210.23,-327.83 238,-309.5 243.14,-306.11 248.79,-303.17 254.62,-300.63"/>
<polygon fill="#63b8ff" stroke="#63b8ff" points="171.06,-377.4 168.69,-387.73 176.98,-381.14 171.06,-377.4"/>
</a>
</g>
</g>
<!-- Node191 -->
<g id="Node000191" class="node">
<title>Node191</title>
<g id="a_Node000191"><a xlink:href="class_p4_1_1_p4_tools_1_1_p4_testgen_1_1_test_object.html" target="_top" xlink:title=" ">
<polygon fill="white" stroke="orangered" points="379.5,-252.5 252.5,-252.5 252.5,-222.5 379.5,-222.5 379.5,-252.5"/>
<text text-anchor="start" x="260.5" y="-240.5" font-family="Helvetica,sans-Serif" font-size="10.00">P4::P4Tools::P4Testgen</text>
<text text-anchor="middle" x="316" y="-229.5" font-family="Helvetica,sans-Serif" font-size="10.00">::TestObject</text>
</a>
</g>
</g>
<!-- Node1&#45;&gt;Node191 -->
<g id="edge44_Node000001_Node000191" class="edge">
<title>Node1&#45;&gt;Node191</title>
<g id="a_edge44_Node000001_Node000191"><a xlink:title=" ">
<path fill="none" stroke="#63b8ff" d="M168.54,-378.08C177.95,-348.58 199.84,-292.64 238,-261.5 242.34,-257.96 247.2,-254.94 252.32,-252.36"/>
<polygon fill="#63b8ff" stroke="#63b8ff" points="165.09,-377.4 165.54,-387.98 171.79,-379.43 165.09,-377.4"/>
</a>
</g>
</g>
<!-- Node227 -->
<g id="Node000227" class="node">
<title>Node227</title>
<g id="a_Node000227"><a xlink:href="class_p4_1_1_p4_tools_1_1_trace_event.html" target="_top" xlink:title="An event in a trace of the execution of a P4 program.">
<polygon fill="#fff0f0" stroke="red" points="381.5,-204 250.5,-204 250.5,-185 381.5,-185 381.5,-204"/>
<text text-anchor="middle" x="316" y="-192" font-family="Helvetica,sans-Serif" font-size="10.00">P4::P4Tools::TraceEvent</text>
</a>
</g>
</g>
<!-- Node1&#45;&gt;Node227 -->
<g id="edge45_Node000001_Node000227" class="edge">
<title>Node1&#45;&gt;Node227</title>
<g id="a_edge45_Node000001_Node000227"><a xlink:title=" ">
<path fill="none" stroke="#63b8ff" d="M165.24,-377.48C170.58,-339.54 187.63,-257.05 238,-213.5 242.48,-209.63 247.63,-206.52 253.09,-204.03"/>
<polygon fill="#63b8ff" stroke="#63b8ff" points="161.72,-377.38 163.93,-387.74 168.67,-378.26 161.72,-377.38"/>
</a>
</g>
</g>
<!-- Node240 -->
<g id="Node000240" class="node">
<title>Node240</title>
<g id="a_Node000240"><a xlink:href="class_p4_1_1_storage_location.html" target="_top" xlink:title="Abstraction for something that is has a left value (variable, parameter)">
<polygon fill="#fff0f0" stroke="red" points="372.5,-167 259.5,-167 259.5,-148 372.5,-148 372.5,-167"/>
<text text-anchor="middle" x="316" y="-155" font-family="Helvetica,sans-Serif" font-size="10.00">P4::StorageLocation</text>
</a>
</g>
</g>
<!-- Node1&#45;&gt;Node240 -->
<g id="edge46_Node000001_Node000240" class="edge">
<title>Node1&#45;&gt;Node240</title>
<g id="a_edge46_Node000001_Node000240"><a xlink:title=" ">
<path fill="none" stroke="#63b8ff" d="M163.58,-377.61C165.97,-334.09 178.01,-229.98 238,-175.5 244.1,-169.96 251.57,-166.03 259.43,-163.26"/>
<polygon fill="#63b8ff" stroke="#63b8ff" points="160.08,-377.6 163.14,-387.75 167.07,-377.91 160.08,-377.6"/>
</a>
</g>
</g>
<!-- Node247 -->
<g id="Node000247" class="node">
<title>Node247</title>
<g id="a_Node000247"><a xlink:href="class_p4_1_1_symbolic_value.html" target="_top" xlink:title=" ">
<polygon fill="white" stroke="orangered" points="369.5,-130 262.5,-130 262.5,-111 369.5,-111 369.5,-130"/>
<text text-anchor="middle" x="316" y="-118" font-family="Helvetica,sans-Serif" font-size="10.00">P4::SymbolicValue</text>
</a>
</g>
</g>
<!-- Node1&#45;&gt;Node247 -->
<g id="edge47_Node000001_Node000247" class="edge">
<title>Node1&#45;&gt;Node247</title>
<g id="a_edge47_Node000001_Node000247"><a xlink:title=" ">
<path fill="none" stroke="#63b8ff" d="M162.45,-377.69C162.26,-329.27 168.84,-204.14 238,-138.5 244.77,-132.07 253.38,-127.79 262.37,-124.97"/>
<polygon fill="#63b8ff" stroke="#63b8ff" points="158.95,-377.83 162.6,-387.78 165.95,-377.73 158.95,-377.83"/>
</a>
</g>
</g>
<!-- Node266 -->
<g id="Node000266" class="node">
<title>Node266</title>
<g id="a_Node000266"><a xlink:href="class_p4_1_1_type_constraint.html" target="_top" xlink:title=" ">
<polygon fill="white" stroke="orangered" points="369.5,-93 262.5,-93 262.5,-74 369.5,-74 369.5,-93"/>
<text text-anchor="middle" x="316" y="-81" font-family="Helvetica,sans-Serif" font-size="10.00">P4::TypeConstraint</text>
</a>
</g>
</g>
<!-- Node1&#45;&gt;Node266 -->
<g id="edge48_Node000001_Node000266" class="edge">
<title>Node1&#45;&gt;Node266</title>
<g id="a_edge48_Node000001_Node000266"><a xlink:title=" ">
<path fill="none" stroke="#63b8ff" d="M165.3,-378.03C172.71,-318.56 197.84,-140.92 238,-101.5 244.66,-94.96 253.22,-90.62 262.19,-87.78"/>
<polygon fill="#63b8ff" stroke="#63b8ff" points="161.82,-377.64 164.09,-387.99 168.77,-378.48 161.82,-377.64"/>
</a>
</g>
</g>
<!-- Node270 -->
<g id="Node000270" class="node">
<title>Node270</title>
<g id="a_Node000270"><a xlink:href="class_p4_1_1_util_1_1_i_json.html" target="_top" xlink:title=" ">
<polygon fill="white" stroke="orangered" points="356.5,-56 275.5,-56 275.5,-37 356.5,-37 356.5,-56"/>
<text text-anchor="middle" x="316" y="-44" font-family="Helvetica,sans-Serif" font-size="10.00">P4::Util::IJson</text>
</a>
</g>
</g>
<!-- Node1&#45;&gt;Node270 -->
<g id="edge49_Node000001_Node000270" class="edge">
<title>Node1&#45;&gt;Node270</title>
<g id="a_edge49_Node000001_Node000270"><a xlink:title=" ">
<path fill="none" stroke="#63b8ff" d="M164.74,-377.74C170.81,-313.13 193.22,-109.65 238,-64.5 247.76,-54.66 261.81,-49.78 275.24,-47.48"/>
<polygon fill="#63b8ff" stroke="#63b8ff" points="161.24,-377.54 163.82,-387.82 168.21,-378.18 161.24,-377.54"/>
</a>
</g>
</g>
<!-- Node274 -->
<g id="Node000274" class="node">
<title>Node274</title>
<g id="a_Node000274"><a xlink:href="class_p4_1_1_util_1_1_named_symbol.html" target="_top" xlink:title=" ">
<polygon fill="white" stroke="orangered" points="381,-19 251,-19 251,0 381,0 381,-19"/>
<text text-anchor="middle" x="316" y="-7" font-family="Helvetica,sans-Serif" font-size="10.00">P4::Util::NamedSymbol</text>
</a>
</g>
</g>
<!-- Node1&#45;&gt;Node274 -->
<g id="edge50_Node000001_Node000274" class="edge">
<title>Node1&#45;&gt;Node274</title>
<g id="a_edge50_Node000001_Node000274"><a xlink:title=" ">
<path fill="none" stroke="#63b8ff" d="M164.25,-377.83C169.03,-308.74 188.48,-78.51 238,-27.5 241.73,-23.66 246.11,-20.57 250.86,-18.09"/>
<polygon fill="#63b8ff" stroke="#63b8ff" points="160.76,-377.61 163.58,-387.82 167.74,-378.07 160.76,-377.61"/>
</a>
</g>
</g>
<!-- Node2 -->
<g id="Node000002" class="node">
<title>Node2</title>
<g id="a_Node000002"><a xlink:href="struct_p4_1_1_r_t_t_i_1_1_base.html" target="_top" xlink:title=" ">
<polygon fill="white" stroke="#bfbfbf" points="86,-407 0,-407 0,-388 86,-388 86,-407"/>
<text text-anchor="middle" x="43" y="-395" font-family="Helvetica,sans-Serif" font-size="10.00">P4::RTTI::Base</text>
</a>
</g>
</g>
<!-- Node2&#45;&gt;Node1 -->
<g id="edge1_Node000001_Node000002" class="edge">
<title>Node2&#45;&gt;Node1</title>
<g id="a_edge1_Node000001_Node000002"><a xlink:title=" ">
<path fill="none" stroke="#63b8ff" d="M96.25,-397.5C104.88,-397.5 113.7,-397.5 121.94,-397.5"/>
<polygon fill="#63b8ff" stroke="#63b8ff" points="96.24,-394 86.24,-397.5 96.24,-401 96.24,-394"/>
</a>
</g>
</g>
<!-- Node4 -->
<g id="Node000004" class="node">
<title>Node4</title>
<g id="a_Node000004"><a xlink:href="class_p4_1_1_p4_tools_1_1_z3_solver.html" target="_top" xlink:title="A Z3&#45;based implementation of AbstractSolver. Encapsulates a z3::solver and a z3::context.">
<polygon fill="white" stroke="#666666" points="581.5,-1255 460.5,-1255 460.5,-1236 581.5,-1236 581.5,-1255"/>
<text text-anchor="middle" x="521" y="-1243" font-family="Helvetica,sans-Serif" font-size="10.00">P4::P4Tools::Z3Solver</text>
</a>
</g>
</g>
<!-- Node3&#45;&gt;Node4 -->
<g id="edge3_Node000003_Node000004" class="edge">
<title>Node3&#45;&gt;Node4</title>
<g id="a_edge3_Node000003_Node000004"><a xlink:title=" ">
<path fill="none" stroke="#63b8ff" d="M379.05,-1232.31C404.85,-1234.72 434.66,-1237.51 460.21,-1239.9"/>
<polygon fill="#63b8ff" stroke="#63b8ff" points="379.3,-1228.82 369.01,-1231.37 378.64,-1235.79 379.3,-1228.82"/>
</a>
</g>
</g>
<!-- Node6 -->
<g id="Node000006" class="node">
<title>Node6</title>
<g id="a_Node000006"><a xlink:href="class_p4_1_1_apollo_1_1_c_f_g_1_1_dummy_node.html" target="_top" xlink:title=" ">
<polygon fill="white" stroke="#bfbfbf" points="602,-1218 440,-1218 440,-1199 602,-1199 602,-1218"/>
<text text-anchor="middle" x="521" y="-1206" font-family="Helvetica,sans-Serif" font-size="10.00">P4::Apollo::CFG::DummyNode</text>
</a>
</g>
</g>
<!-- Node5&#45;&gt;Node6 -->
<g id="edge5_Node000005_Node000006" class="edge">
<title>Node5&#45;&gt;Node6</title>
<g id="a_edge5_Node000005_Node000006"><a xlink:title=" ">
<path fill="none" stroke="#63b8ff" d="M351.93,-1165.53C374.08,-1173.47 403.47,-1183.42 430,-1190.5 441.7,-1193.62 454.39,-1196.48 466.44,-1198.95"/>
<polygon fill="#63b8ff" stroke="#63b8ff" points="352.89,-1162.15 342.3,-1162.04 350.51,-1168.73 352.89,-1162.15"/>
</a>
</g>
</g>
<!-- Node7 -->
<g id="Node000007" class="node">
<title>Node7</title>
<g id="a_Node000007"><a xlink:href="class_p4_1_1_apollo_1_1_c_f_g_1_1_if_node.html" target="_top" xlink:title=" ">
<polygon fill="white" stroke="#bfbfbf" points="586,-1181 456,-1181 456,-1162 586,-1162 586,-1181"/>
<text text-anchor="middle" x="521" y="-1169" font-family="Helvetica,sans-Serif" font-size="10.00">P4::Apollo::CFG::IfNode</text>
</a>
</g>
</g>
<!-- Node5&#45;&gt;Node7 -->
<g id="edge6_Node000005_Node000007" class="edge">
<title>Node5&#45;&gt;Node7</title>
<g id="a_edge6_Node000005_Node000007"><a xlink:title=" ">
<path fill="none" stroke="#63b8ff" d="M387.64,-1159.11C409.79,-1161.19 434.12,-1163.46 455.8,-1165.49"/>
<polygon fill="#63b8ff" stroke="#63b8ff" points="387.91,-1155.62 377.63,-1158.17 387.26,-1162.59 387.91,-1155.62"/>
</a>
</g>
</g>
<!-- Node8 -->
<g id="Node000008" class="node">
<title>Node8</title>
<g id="a_Node000008"><a xlink:href="class_p4_1_1_apollo_1_1_c_f_g_1_1_table_node.html" target="_top" xlink:title=" ">
<polygon fill="white" stroke="#bfbfbf" points="595.5,-1144 446.5,-1144 446.5,-1125 595.5,-1125 595.5,-1144"/>
<text text-anchor="middle" x="521" y="-1132" font-family="Helvetica,sans-Serif" font-size="10.00">P4::Apollo::CFG::TableNode</text>
</a>
</g>
</g>
<!-- Node5&#45;&gt;Node8 -->
<g id="edge7_Node000005_Node000008" class="edge">
<title>Node5&#45;&gt;Node8</title>
<g id="a_edge7_Node000005_Node000008"><a xlink:title=" ">
<path fill="none" stroke="#63b8ff" d="M387.7,-1146.23C406.69,-1144.55 427.27,-1142.72 446.41,-1141.03"/>
<polygon fill="#63b8ff" stroke="#63b8ff" points="387.28,-1142.75 377.63,-1147.12 387.9,-1149.73 387.28,-1142.75"/>
</a>
</g>
</g>
<!-- Node10 -->
<g id="Node000010" class="node">
<title>Node10</title>
<g id="a_Node000010"><a xlink:href="class_p4_1_1_b_m_v2_1_1_c_f_g_1_1_dummy_node.html" target="_top" xlink:title=" ">
<polygon fill="white" stroke="#bfbfbf" points="601,-1107 441,-1107 441,-1088 601,-1088 601,-1107"/>
<text text-anchor="middle" x="521" y="-1095" font-family="Helvetica,sans-Serif" font-size="10.00">P4::BMV2::CFG::DummyNode</text>
</a>
</g>
</g>
<!-- Node9&#45;&gt;Node10 -->
<g id="edge9_Node000009_Node000010" class="edge">
<title>Node9&#45;&gt;Node10</title>
<g id="a_edge9_Node000009_Node000010"><a xlink:title=" ">
<path fill="none" stroke="#63b8ff" d="M351.93,-1054.53C374.08,-1062.47 403.47,-1072.42 430,-1079.5 441.7,-1082.62 454.39,-1085.48 466.44,-1087.95"/>
<polygon fill="#63b8ff" stroke="#63b8ff" points="352.89,-1051.15 342.3,-1051.04 350.51,-1057.73 352.89,-1051.15"/>
</a>
</g>
</g>
<!-- Node11 -->
<g id="Node000011" class="node">
<title>Node11</title>
<g id="a_Node000011"><a xlink:href="class_p4_1_1_b_m_v2_1_1_c_f_g_1_1_if_node.html" target="_top" xlink:title=" ">
<polygon fill="white" stroke="#bfbfbf" points="585,-1070 457,-1070 457,-1051 585,-1051 585,-1070"/>
<text text-anchor="middle" x="521" y="-1058" font-family="Helvetica,sans-Serif" font-size="10.00">P4::BMV2::CFG::IfNode</text>
</a>
</g>
</g>
<!-- Node9&#45;&gt;Node11 -->
<g id="edge10_Node000009_Node000011" class="edge">
<title>Node9&#45;&gt;Node11</title>
<g id="a_edge10_Node000009_Node000011"><a xlink:title=" ">
<path fill="none" stroke="#63b8ff" d="M386.5,-1048C409.34,-1050.14 434.59,-1052.51 456.93,-1054.6"/>
<polygon fill="#63b8ff" stroke="#63b8ff" points="386.82,-1044.52 376.54,-1047.07 386.17,-1051.49 386.82,-1044.52"/>
</a>
</g>
</g>
<!-- Node12 -->
<g id="Node000012" class="node">
<title>Node12</title>
<g id="a_Node000012"><a xlink:href="class_p4_1_1_b_m_v2_1_1_c_f_g_1_1_table_node.html" target="_top" xlink:title=" ">
<polygon fill="white" stroke="#bfbfbf" points="594,-1033 448,-1033 448,-1014 594,-1014 594,-1033"/>
<text text-anchor="middle" x="521" y="-1021" font-family="Helvetica,sans-Serif" font-size="10.00">P4::BMV2::CFG::TableNode</text>
</a>
</g>
</g>
<!-- Node9&#45;&gt;Node12 -->
<g id="edge11_Node000009_Node000012" class="edge">
<title>Node9&#45;&gt;Node12</title>
<g id="a_edge11_Node000009_Node000012"><a xlink:title=" ">
<path fill="none" stroke="#63b8ff" d="M386.69,-1035.32C406.44,-1033.57 427.99,-1031.66 447.88,-1029.89"/>
<polygon fill="#63b8ff" stroke="#63b8ff" points="386.19,-1031.85 376.54,-1036.22 386.81,-1038.82 386.19,-1031.85"/>
</a>
</g>
</g>
<!-- Node14 -->
<g id="Node000014" class="node">
<title>Node14</title>
<g id="a_Node000014"><a xlink:href="struct_i_x_bar_1_1failure.html" target="_top" xlink:title=" ">
<polygon fill="white" stroke="#bfbfbf" points="561,-862 481,-862 481,-843 561,-843 561,-862"/>
<text text-anchor="middle" x="521" y="-850" font-family="Helvetica,sans-Serif" font-size="10.00">IXBar::failure</text>
</a>
</g>
</g>
<!-- Node13&#45;&gt;Node14 -->
<g id="edge13_Node000013_Node000014" class="edge">
<title>Node13&#45;&gt;Node14</title>
<g id="a_edge13_Node000013_Node000014"><a xlink:title=" ">
<path fill="none" stroke="#63b8ff" d="M387.1,-866.9C418.51,-863.5 454.35,-859.61 480.9,-856.74"/>
<polygon fill="#63b8ff" stroke="#63b8ff" points="386.65,-863.43 377.08,-867.99 387.4,-870.39 386.65,-863.43"/>
</a>
</g>
</g>
<!-- Node15 -->
<g id="Node000015" class="node">
<title>Node15</title>
<g id="a_Node000015"><a xlink:href="struct_long_branch_alloc_failed.html" target="_top" xlink:title=" ">
<polygon fill="white" stroke="#bfbfbf" points="584,-825 458,-825 458,-806 584,-806 584,-825"/>
<text text-anchor="middle" x="521" y="-813" font-family="Helvetica,sans-Serif" font-size="10.00">LongBranchAllocFailed</text>
</a>
</g>
</g>
<!-- Node13&#45;&gt;Node15 -->
<g id="edge14_Node000013_Node000015" class="edge">
<title>Node13&#45;&gt;Node15</title>
<g id="a_edge14_Node000013_Node000015"><a xlink:title=" ">
<path fill="none" stroke="#63b8ff" d="M350.3,-861.4C372.61,-852.95 402.78,-842.16 430,-834.5 442.45,-831 456.03,-827.81 468.79,-825.09"/>
<polygon fill="#63b8ff" stroke="#63b8ff" points="349.04,-858.14 340.95,-864.98 351.54,-864.68 349.04,-858.14"/>
</a>
</g>
</g>
<!-- Node16 -->
<g id="Node000016" class="node">
<title>Node16</title>
<g id="a_Node000016"><a xlink:href="struct_p_h_v_trigger_1_1failure.html" target="_top" xlink:title=" ">
<polygon fill="white" stroke="#bfbfbf" points="574.5,-996 467.5,-996 467.5,-977 574.5,-977 574.5,-996"/>
<text text-anchor="middle" x="521" y="-984" font-family="Helvetica,sans-Serif" font-size="10.00">PHVTrigger::failure</text>
</a>
</g>
</g>
<!-- Node13&#45;&gt;Node16 -->
<g id="edge15_Node000013_Node000016" class="edge">
<title>Node13&#45;&gt;Node16</title>
<g id="a_edge15_Node000013_Node000016"><a xlink:title=" ">
<path fill="none" stroke="#63b8ff" d="M332.47,-891.51C352.75,-912.71 390.41,-948.46 430,-967.5 441.51,-973.04 454.62,-976.97 467.2,-979.76"/>
<polygon fill="#63b8ff" stroke="#63b8ff" points="334.98,-889.07 325.58,-884.17 329.87,-893.86 334.98,-889.07"/>
</a>
</g>
</g>
<!-- Node17 -->
<g id="Node000017" class="node">
<title>Node17</title>
<g id="a_Node000017"><a xlink:href="struct_rerun_table_placement_trigger_1_1failure.html" target="_top" xlink:title=" ">
<polygon fill="white" stroke="#bfbfbf" points="598.5,-958.5 443.5,-958.5 443.5,-928.5 598.5,-928.5 598.5,-958.5"/>
<text text-anchor="start" x="451.5" y="-946.5" font-family="Helvetica,sans-Serif" font-size="10.00">RerunTablePlacementTrigger</text>
<text text-anchor="middle" x="521" y="-935.5" font-family="Helvetica,sans-Serif" font-size="10.00">::failure</text>
</a>
</g>
</g>
<!-- Node13&#45;&gt;Node17 -->
<g id="edge16_Node000013_Node000017" class="edge">
<title>Node13&#45;&gt;Node17</title>
<g id="a_edge16_Node000013_Node000017"><a xlink:title=" ">
<path fill="none" stroke="#63b8ff" d="M348.17,-888.07C370.66,-897.58 401.89,-910.19 430,-919.5 439.52,-922.65 449.7,-925.68 459.68,-928.47"/>
<polygon fill="#63b8ff" stroke="#63b8ff" points="349.37,-884.78 338.8,-884.08 346.63,-891.22 349.37,-884.78"/>
</a>
</g>
</g>
<!-- Node18 -->
<g id="Node000018" class="node">
<title>Node18</title>
<g id="a_Node000018"><a xlink:href="struct_table_placement_1_1_final_rerun_table_placement_trigger.html" target="_top" xlink:title=" ">
<polygon fill="white" stroke="#bfbfbf" points="597,-910.5 445,-910.5 445,-880.5 597,-880.5 597,-910.5"/>
<text text-anchor="start" x="453" y="-898.5" font-family="Helvetica,sans-Serif" font-size="10.00">TablePlacement::FinalRerun</text>
<text text-anchor="middle" x="521" y="-887.5" font-family="Helvetica,sans-Serif" font-size="10.00">TablePlacementTrigger</text>
</a>
</g>
</g>
<!-- Node13&#45;&gt;Node18 -->
<g id="edge17_Node000013_Node000018" class="edge">
<title>Node13&#45;&gt;Node18</title>
<g id="a_edge17_Node000013_Node000018"><a xlink:title=" ">
<path fill="none" stroke="#63b8ff" d="M387.25,-881.77C405.88,-883.69 426.07,-885.78 444.94,-887.74"/>
<polygon fill="#63b8ff" stroke="#63b8ff" points="387.39,-878.26 377.08,-880.72 386.67,-885.23 387.39,-878.26"/>
</a>
</g>
</g>
<!-- Node20 -->
<g id="Node000020" class="node">
<title>Node20</title>
<g id="a_Node000020"><a xlink:href="class_p4_1_1_e_b_p_f_1_1_e_b_p_f_checksum_p_s_a.html" target="_top" xlink:title=" ">
<polygon fill="white" stroke="orangered" points="601,-788 441,-788 441,-769 601,-769 601,-788"/>
<text text-anchor="middle" x="521" y="-776" font-family="Helvetica,sans-Serif" font-size="10.00">P4::EBPF::EBPFChecksumPSA</text>
</a>
</g>
</g>
<!-- Node19&#45;&gt;Node20 -->
<g id="edge19_Node000019_Node000020" class="edge">
<title>Node19&#45;&gt;Node20</title>
<g id="a_edge19_Node000019_Node000020"><a xlink:title=" ">
<path fill="none" stroke="#63b8ff" d="M325.62,-631.17C341.44,-663.18 378.28,-728.22 430,-760.5 435.41,-763.88 441.32,-766.63 447.45,-768.89"/>
<polygon fill="#63b8ff" stroke="#63b8ff" points="328.71,-629.52 321.23,-622.02 322.4,-632.55 328.71,-629.52"/>
</a>
</g>
</g>
<!-- Node26 -->
<g id="Node000026" class="node">
<title>Node26</title>
<g id="a_Node000026"><a xlink:href="class_p4_1_1_e_b_p_f_1_1_e_b_p_f_control.html" target="_top" xlink:title=" ">
<polygon fill="white" stroke="orangered" points="583.5,-751 458.5,-751 458.5,-732 583.5,-732 583.5,-751"/>
<text text-anchor="middle" x="521" y="-739" font-family="Helvetica,sans-Serif" font-size="10.00">P4::EBPF::EBPFControl</text>
</a>
</g>
</g>
<!-- Node19&#45;&gt;Node26 -->
<g id="edge20_Node000019_Node000026" class="edge">
<title>Node19&#45;&gt;Node26</title>
<g id="a_edge20_Node000019_Node000026"><a xlink:title=" ">
<path fill="none" stroke="#63b8ff" d="M329.71,-630.33C348.58,-655.37 386.49,-700.47 430,-723.5 438.73,-728.12 448.51,-731.56 458.32,-734.12"/>
<polygon fill="#63b8ff" stroke="#63b8ff" points="332.39,-628.07 323.64,-622.09 326.75,-632.22 332.39,-628.07"/>
</a>
</g>
</g>
<!-- Node40 -->
<g id="Node000040" class="node">
<title>Node40</title>
<g id="a_Node000040"><a xlink:href="class_p4_1_1_e_b_p_f_1_1_e_b_p_f_digest_p_s_a.html" target="_top" xlink:title=" ">
<polygon fill="white" stroke="orangered" points="591,-714 451,-714 451,-695 591,-695 591,-714"/>
<text text-anchor="middle" x="521" y="-702" font-family="Helvetica,sans-Serif" font-size="10.00">P4::EBPF::EBPFDigestPSA</text>
</a>
</g>
</g>
<!-- Node19&#45;&gt;Node40 -->
<g id="edge21_Node000019_Node000040" class="edge">
<title>Node19&#45;&gt;Node40</title>
<g id="a_edge21_Node000019_Node000040"><a xlink:title=" ">
<path fill="none" stroke="#63b8ff" d="M336.36,-628.55C357.89,-645.54 394.33,-671.9 430,-686.5 438.26,-689.88 447.21,-692.64 456.16,-694.9"/>
<polygon fill="#63b8ff" stroke="#63b8ff" points="338.34,-625.65 328.36,-622.11 333.96,-631.1 338.34,-625.65"/>
</a>
</g>
</g>
<!-- Node42 -->
<g id="Node000042" class="node">
<title>Node42</title>
<g id="a_Node000042"><a xlink:href="class_p4_1_1_e_b_p_f_1_1_e_b_p_f_hash_algorithm_p_s_a.html" target="_top" xlink:title=" ">
<polygon fill="white" stroke="orangered" points="612,-677 430,-677 430,-658 612,-658 612,-677"/>
<text text-anchor="middle" x="521" y="-665" font-family="Helvetica,sans-Serif" font-size="10.00">P4::EBPF::EBPFHashAlgorithmPSA</text>
</a>
</g>
</g>
<!-- Node19&#45;&gt;Node42 -->
<g id="edge22_Node000019_Node000042" class="edge">
<title>Node19&#45;&gt;Node42</title>
<g id="a_edge22_Node000019_Node000042"><a xlink:title=" ">
<path fill="none" stroke="#63b8ff" d="M352.83,-625.44C374.89,-633.11 403.86,-642.63 430,-649.5 441.87,-652.62 454.74,-655.49 466.93,-657.98"/>
<polygon fill="#63b8ff" stroke="#63b8ff" points="353.82,-622.08 343.22,-622.07 351.5,-628.68 353.82,-622.08"/>
</a>
</g>
</g>
<!-- Node49 -->
<g id="Node000049" class="node">
<title>Node49</title>
<g id="a_Node000049"><a xlink:href="class_p4_1_1_e_b_p_f_1_1_e_b_p_f_method_declaration.html" target="_top" xlink:title="Methods are function signatures.">
<polygon fill="white" stroke="#666666" points="612,-640 430,-640 430,-621 612,-621 612,-640"/>
<text text-anchor="middle" x="521" y="-628" font-family="Helvetica,sans-Serif" font-size="10.00">P4::EBPF::EBPFMethodDeclaration</text>
</a>
</g>
</g>
<!-- Node19&#45;&gt;Node49 -->
<g id="edge23_Node000019_Node000049" class="edge">
<title>Node19&#45;&gt;Node49</title>
<g id="a_edge23_Node000019_Node000049"><a xlink:title=" ">
<path fill="none" stroke="#63b8ff" d="M386.53,-618.67C400.5,-619.9 415.37,-621.22 429.93,-622.51"/>
<polygon fill="#63b8ff" stroke="#63b8ff" points="386.81,-615.18 376.54,-617.78 386.19,-622.15 386.81,-615.18"/>
</a>
</g>
</g>
<!-- Node50 -->
<g id="Node000050" class="node">
<title>Node50</title>
<g id="a_Node000050"><a xlink:href="class_p4_1_1_e_b_p_f_1_1_e_b_p_f_parser.html" target="_top" xlink:title=" ">
<polygon fill="white" stroke="orangered" points="580.5,-603 461.5,-603 461.5,-584 580.5,-584 580.5,-603"/>
<text text-anchor="middle" x="521" y="-591" font-family="Helvetica,sans-Serif" font-size="10.00">P4::EBPF::EBPFParser</text>
</a>
</g>
</g>
<!-- Node19&#45;&gt;Node50 -->
<g id="edge24_Node000019_Node000050" class="edge">
<title>Node19&#45;&gt;Node50</title>
<g id="a_edge24_Node000019_Node000050"><a xlink:title=" ">
<path fill="none" stroke="#63b8ff" d="M386.74,-605.97C410.98,-603.7 437.9,-601.18 461.17,-599.01"/>
<polygon fill="#63b8ff" stroke="#63b8ff" points="386.17,-602.51 376.54,-606.93 386.82,-609.48 386.17,-602.51"/>
</a>
</g>
</g>
<!-- Node54 -->
<g id="Node000054" class="node">
<title>Node54</title>
<g id="a_Node000054"><a xlink:href="class_p4_1_1_e_b_p_f_1_1_e_b_p_f_parser_state.html" target="_top" xlink:title=" ">
<polygon fill="white" stroke="orangered" points="593.5,-566 448.5,-566 448.5,-547 593.5,-547 593.5,-566"/>
<text text-anchor="middle" x="521" y="-554" font-family="Helvetica,sans-Serif" font-size="10.00">P4::EBPF::EBPFParserState</text>
</a>
</g>
</g>
<!-- Node19&#45;&gt;Node54 -->
<g id="edge25_Node000019_Node000054" class="edge">
<title>Node19&#45;&gt;Node54</title>
<g id="a_edge25_Node000019_Node000054"><a xlink:title=" ">
<path fill="none" stroke="#63b8ff" d="M358.73,-599.86C370.19,-596.29 382.61,-592.33 394,-588.5 410.12,-583.08 413.64,-580.16 430,-575.5 442.44,-571.96 456.02,-568.76 468.77,-566.03"/>
<polygon fill="#63b8ff" stroke="#63b8ff" points="357.46,-596.59 348.95,-602.89 359.53,-603.28 357.46,-596.59"/>
</a>
</g>
</g>
<!-- Node56 -->
<g id="Node000056" class="node">
<title>Node56</title>
<g id="a_Node000056"><a xlink:href="class_p4_1_1_e_b_p_f_1_1_e_b_p_f_program.html" target="_top" xlink:title=" ">
<polygon fill="white" stroke="orangered" points="586.5,-529 455.5,-529 455.5,-510 586.5,-510 586.5,-529"/>
<text text-anchor="middle" x="521" y="-517" font-family="Helvetica,sans-Serif" font-size="10.00">P4::EBPF::EBPFProgram</text>
</a>
</g>
</g>
<!-- Node19&#45;&gt;Node56 -->
<g id="edge26_Node000019_Node000056" class="edge">
<title>Node19&#45;&gt;Node56</title>
<g id="a_edge26_Node000019_Node000056"><a xlink:title=" ">
<path fill="none" stroke="#63b8ff" d="M374.13,-599.33C381.17,-596.4 387.99,-592.83 394,-588.5 416.22,-572.49 407.06,-553.45 430,-538.5 437.63,-533.53 446.32,-529.83 455.22,-527.09"/>
<polygon fill="#63b8ff" stroke="#63b8ff" points="372.6,-596.17 364.46,-602.95 375.06,-602.73 372.6,-596.17"/>
</a>
</g>
</g>
<!-- Node68 -->
<g id="Node000068" class="node">
<title>Node68</title>
<g id="a_Node000068"><a xlink:href="class_p4_1_1_e_b_p_f_1_1_e_b_p_f_random_p_s_a.html" target="_top" xlink:title=" ">
<polygon fill="white" stroke="#bfbfbf" points="595.5,-492 446.5,-492 446.5,-473 595.5,-473 595.5,-492"/>
<text text-anchor="middle" x="521" y="-480" font-family="Helvetica,sans-Serif" font-size="10.00">P4::EBPF::EBPFRandomPSA</text>
</a>
</g>
</g>
<!-- Node19&#45;&gt;Node68 -->
<g id="edge27_Node000019_Node000068" class="edge">
<title>Node19&#45;&gt;Node68</title>
<g id="a_edge27_Node000019_Node000068"><a xlink:title=" ">
<path fill="none" stroke="#63b8ff" d="M379.01,-598.72C384.45,-595.92 389.56,-592.55 394,-588.5 424.89,-560.27 397.81,-528.24 430,-501.5 434.91,-497.42 440.49,-494.15 446.4,-491.54"/>
<polygon fill="#63b8ff" stroke="#63b8ff" points="377.32,-595.65 369.61,-602.92 380.17,-602.04 377.32,-595.65"/>
</a>
</g>
</g>
<!-- Node69 -->
<g id="Node000069" class="node">
<title>Node69</title>
<g id="a_Node000069"><a xlink:href="class_p4_1_1_e_b_p_f_1_1_e_b_p_f_table_base.html" target="_top" xlink:title="Also used to represent counters.">
<polygon fill="#fff0f0" stroke="red" points="590,-455 452,-455 452,-436 590,-436 590,-455"/>
<text text-anchor="middle" x="521" y="-443" font-family="Helvetica,sans-Serif" font-size="10.00">P4::EBPF::EBPFTableBase</text>
</a>
</g>
</g>
<!-- Node19&#45;&gt;Node69 -->
<g id="edge28_Node000019_Node000069" class="edge">
<title>Node19&#45;&gt;Node69</title>
<g id="a_edge28_Node000019_Node000069"><a xlink:title=" ">
<path fill="none" stroke="#63b8ff" d="M380.8,-598.48C385.65,-595.73 390.14,-592.44 394,-588.5 434.18,-547.53 387.94,-503.54 430,-464.5 436.2,-458.74 443.7,-454.55 451.68,-451.53"/>
<polygon fill="#63b8ff" stroke="#63b8ff" points="379.23,-595.36 371.77,-602.88 382.3,-601.65 379.23,-595.36"/>
</a>
</g>
</g>
<!-- Node84 -->
<g id="Node000084" class="node">
<title>Node84</title>
<g id="a_Node000084"><a xlink:href="class_p4_1_1_e_b_p_f_1_1_e_b_p_f_type.html" target="_top" xlink:title="Base class for EBPF types.">
<polygon fill="#fff0f0" stroke="red" points="576.5,-418 465.5,-418 465.5,-399 576.5,-399 576.5,-418"/>
<text text-anchor="middle" x="521" y="-406" font-family="Helvetica,sans-Serif" font-size="10.00">P4::EBPF::EBPFType</text>
</a>
</g>
</g>
<!-- Node19&#45;&gt;Node84 -->
<g id="edge29_Node000019_Node000084" class="edge">
<title>Node19&#45;&gt;Node84</title>
<g id="a_edge29_Node000019_Node000084"><a xlink:title=" ">
<path fill="none" stroke="#63b8ff" d="M381.87,-598.26C386.35,-595.55 390.47,-592.33 394,-588.5 443.67,-534.57 377.84,-479.04 430,-427.5 439.43,-418.18 452.2,-412.91 465.16,-410.04"/>
<polygon fill="#63b8ff" stroke="#63b8ff" points="380.19,-595.19 372.9,-602.87 383.39,-601.42 380.19,-595.19"/>
</a>
</g>
</g>
<!-- Node100 -->
<g id="Node000100" class="node">
<title>Node100</title>
<g id="a_Node000100"><a xlink:href="class_p4_1_1_u_b_p_f_1_1_u_b_p_f_deparser.html" target="_top" xlink:title=" ">
<polygon fill="white" stroke="#bfbfbf" points="589.5,-381 452.5,-381 452.5,-362 589.5,-362 589.5,-381"/>
<text text-anchor="middle" x="521" y="-369" font-family="Helvetica,sans-Serif" font-size="10.00">P4::UBPF::UBPFDeparser</text>
</a>
</g>
</g>
<!-- Node19&#45;&gt;Node100 -->
<g id="edge32_Node000019_Node000100" class="edge">
<title>Node19&#45;&gt;Node100</title>
<g id="a_edge32_Node000019_Node000100"><a xlink:title=" ">
<path fill="none" stroke="#63b8ff" d="M382.6,-598.07C386.82,-595.4 390.7,-592.24 394,-588.5 453.52,-521.15 367.03,-453.64 430,-389.5 436.25,-383.13 444.07,-378.69 452.48,-375.63"/>
<polygon fill="#63b8ff" stroke="#63b8ff" points="380.7,-595.12 373.51,-602.91 383.98,-601.3 380.7,-595.12"/>
</a>
</g>
</g>
<!-- Node101 -->
<g id="Node000101" class="node">
<title>Node101</title>
<g id="a_Node000101"><a xlink:href="class_p4_1_1_u_b_p_f_1_1_u_b_p_f_table_base.html" target="_top" xlink:title=" ">
<polygon fill="white" stroke="orangered" points="591.5,-344 450.5,-344 450.5,-325 591.5,-325 591.5,-344"/>
<text text-anchor="middle" x="521" y="-332" font-family="Helvetica,sans-Serif" font-size="10.00">P4::UBPF::UBPFTableBase</text>
</a>
</g>
</g>
<!-- Node19&#45;&gt;Node101 -->
<g id="edge33_Node000019_Node000101" class="edge">
<title>Node19&#45;&gt;Node101</title>
<g id="a_edge33_Node000019_Node000101"><a xlink:title=" ">
<path fill="none" stroke="#63b8ff" d="M382.92,-598.04C387.04,-595.37 390.8,-592.22 394,-588.5 463.16,-508.04 356.72,-429.23 430,-352.5 435.61,-346.62 442.56,-342.37 450.09,-339.34"/>
<polygon fill="#63b8ff" stroke="#63b8ff" points="381.16,-595.01 374.05,-602.87 384.51,-601.16 381.16,-595.01"/>
</a>
</g>
</g>
<!-- Node85 -->
<g id="Node000085" class="node">
<title>Node85</title>
<g id="a_Node000085"><a xlink:href="class_p4_1_1_e_b_p_f_1_1_e_b_p_f_bool_type.html" target="_top" xlink:title=" ">
<polygon fill="white" stroke="orangered" points="785,-399 651,-399 651,-380 785,-380 785,-399"/>
<text text-anchor="middle" x="718" y="-387" font-family="Helvetica,sans-Serif" font-size="10.00">P4::EBPF::EBPFBoolType</text>
</a>
</g>
</g>
<!-- Node84&#45;&gt;Node85 -->
<g id="edge30_Node000084_Node000085" class="edge">
<title>Node84&#45;&gt;Node85</title>
<g id="a_edge30_Node000084_Node000085"><a xlink:title=" ">
<path fill="none" stroke="#63b8ff" d="M586.54,-402.21C607.24,-400.19 630.19,-397.96 651,-395.93"/>
<polygon fill="#63b8ff" stroke="#63b8ff" points="586.19,-398.73 576.58,-403.18 586.87,-405.7 586.19,-398.73"/>
</a>
</g>
</g>
<!-- Node87 -->
<g id="Node000087" class="node">
<title>Node87</title>
<g id="a_Node000087"><a xlink:href="class_p4_1_1_e_b_p_f_1_1_e_b_p_f_enum_type.html" target="_top" xlink:title=" ">
<polygon fill="white" stroke="orangered" points="788,-344 648,-344 648,-325 788,-325 788,-344"/>
<text text-anchor="middle" x="718" y="-332" font-family="Helvetica,sans-Serif" font-size="10.00">P4::EBPF::EBPFEnumType</text>
</a>
</g>
</g>
<!-- Node84&#45;&gt;Node87 -->
<g id="edge31_Node000084_Node000087" class="edge">
<title>Node84&#45;&gt;Node87</title>
<g id="a_edge31_Node000084_Node000087"><a xlink:title=" ">
<path fill="none" stroke="#63b8ff" d="M586.92,-397.06C595.46,-394.89 604.01,-392.39 612,-389.5 629.01,-383.35 631.98,-378.91 648,-370.5 665.11,-361.52 684.63,-351.34 698.54,-344.1"/>
<polygon fill="#63b8ff" stroke="#63b8ff" points="585.85,-393.71 576.94,-399.44 587.47,-400.52 585.85,-393.71"/>
</a>
</g>
</g>
<!-- Node104&#45;&gt;Node85 -->
<g id="edge35_Node000104_Node000085" class="edge">
<title>Node104&#45;&gt;Node85</title>
<g id="a_edge35_Node000104_Node000085"><a xlink:title=" ">
<path fill="none" stroke="#63b8ff" d="M588.28,-305.97C596.54,-308.39 604.66,-311.5 612,-315.5 632.15,-326.46 629.67,-338.69 648,-352.5 662.66,-363.54 681.04,-373.23 695.15,-379.92"/>
<polygon fill="#63b8ff" stroke="#63b8ff" points="589.11,-302.57 578.55,-303.42 587.34,-309.34 589.11,-302.57"/>
</a>
</g>
</g>
<!-- Node104&#45;&gt;Node87 -->
<g id="edge36_Node000104_Node000087" class="edge">
<title>Node104&#45;&gt;Node87</title>
<g id="a_edge36_Node000104_Node000087"><a xlink:title=" ">
<path fill="none" stroke="#63b8ff" d="M582.34,-308.95C609.36,-314.08 640.87,-320.06 666.61,-324.94"/>
<polygon fill="#63b8ff" stroke="#63b8ff" points="582.69,-305.45 572.22,-307.03 581.39,-312.33 582.69,-305.45"/>
</a>
</g>
</g>
</g>
</svg>

<g id="navigator" transform="translate(0 0)" fill="#404254">
  <rect fill="#f2f5e9" fill-opacity="0.5" stroke="#606060" stroke-width=".5" x="0" y="0" width="60" height="60"/>
  <use id="zoomplus" xlink:href="#zoomPlus" x="17" y="9" onmousedown="handleZoom(evt,'in')"/>
  <use id="zoomminus" xlink:href="#zoomMin" x="42" y="9" onmousedown="handleZoom(evt,'out')"/>
  <use id="reset" xlink:href="#resetDef" x="30" y="36" onmousedown="handleReset()"/>
   <use id="arrowup" xlink:href="#arrowUp" x="0" y="0" onmousedown="handlePan(0,-1)"/>
  <use id="arrowright" xlink:href="#arrowRight" x="0" y="0" onmousedown="handlePan(1,0)"/>
  <use id="arrowdown" xlink:href="#arrowDown" x="0" y="0" onmousedown="handlePan(0,1)"/>
  <use id="arrowleft" xlink:href="#arrowLeft" x="0" y="0" onmousedown="handlePan(-1,0)"/>
</g>
<svg viewBox="0 0 15 15" width="100%" height="30px" preserveAspectRatio="xMaxYMin meet">
 <g id="arrow_out" transform="scale(0.3 0.3)">
  <a xlink:href="class_p4_1_1_i_castable__inherit__graph_org.svg" target="_base">
   <rect id="button" ry="5" rx="5" y="6" x="6" height="38" width="38"
        fill="#f2f5e9" fill-opacity="0.5" stroke="#606060" stroke-width="1.0"/>
   <path id="arrow"
     d="M 11.500037,31.436501 C 11.940474,20.09759 22.043105,11.32322 32.158766,21.979434 L 37.068811,17.246167 C 37.068811,17.246167 37.088388,32 37.088388,32 L 22.160133,31.978069 C 22.160133,31.978069 26.997745,27.140456 26.997745,27.140456 C 18.528582,18.264221 13.291696,25.230495 11.500037,31.436501 z"
     style="fill:#404040;"/>
  </a>
 </g>
</svg>

<style type='text/css'>
<![CDATA[
[data-mouse-over-selected='false'] { opacity: 0.7; }
[data-mouse-over-selected='true']  { opacity: 1.0; }
]]>
</style>
<script type="application/ecmascript"><![CDATA[
document.addEventListener('DOMContentLoaded', (event) => {
  highlightEdges();
  highlightAdjacentNodes();
});
]]></script>
</svg>
