<?xml version="1.0" encoding="UTF-8" standalone="no"?>
<!DOCTYPE svg PUBLIC "-//W3C//DTD SVG 1.1//EN"
 "http://www.w3.org/Graphics/SVG/1.1/DTD/svg11.dtd">
<!-- Generated by graphviz version 2.43.0 (0)
 -->
<!-- Title: P4::Apollo::PortableOptions Pages: 1 -->
<svg width="157pt" height="302pt"
 viewBox="0.00 0.00 157.00 302.00" xmlns="http://www.w3.org/2000/svg" xmlns:xlink="http://www.w3.org/1999/xlink">

<svg id="main" version="1.1" xmlns="http://www.w3.org/2000/svg" xmlns:xlink="http://www.w3.org/1999/xlink" xml:space="preserve">

<style type="text/css"><![CDATA[
.node, .edge {opacity: 0.7;}
.node.selected, .edge.selected {opacity: 1;}
.edge:hover path { stroke: red; }
.edge:hover polygon { stroke: red; fill: red; }
]]></style>
<script type="application/ecmascript" xlink:href="svg.min.js"/>
<svg id="graph" class="graph">
<g id="graph0" class="graph" transform="scale(1 1) rotate(0) translate(4 298)">
<title>P4::Apollo::PortableOptions</title>
<!-- Node1 -->
<g id="Node000001" class="node">
<title>Node1</title>
<g id="a_Node000001"><a xlink:title=" ">
<polygon fill="#999999" stroke="#666666" points="149,-74 0,-74 0,-55 149,-55 149,-74"/>
<text text-anchor="middle" x="74.5" y="-62" font-family="Helvetica,sans-Serif" font-size="10.00">P4::Apollo::PortableOptions</text>
</a>
</g>
</g>
<!-- Node6 -->
<g id="Node000006" class="node">
<title>Node6</title>
<g id="a_Node000006"><a xlink:href="class_p4_1_1_apollo_1_1_tuna_nic_options.html" target="_top" xlink:title=" ">
<polygon fill="white" stroke="#bfbfbf" points="148,-19 1,-19 1,0 148,0 148,-19"/>
<text text-anchor="middle" x="74.5" y="-7" font-family="Helvetica,sans-Serif" font-size="10.00">P4::Apollo::TunaNicOptions</text>
</a>
</g>
</g>
<!-- Node1&#45;&gt;Node6 -->
<g id="edge5_Node000001_Node000006" class="edge">
<title>Node1&#45;&gt;Node6</title>
<g id="a_edge5_Node000001_Node000006"><a xlink:title=" ">
<path fill="none" stroke="#63b8ff" d="M74.5,-44.66C74.5,-35.93 74.5,-25.99 74.5,-19.09"/>
<polygon fill="#63b8ff" stroke="#63b8ff" points="71,-44.75 74.5,-54.75 78,-44.75 71,-44.75"/>
</a>
</g>
</g>
<!-- Node2 -->
<g id="Node000002" class="node">
<title>Node2</title>
<g id="a_Node000002"><a xlink:href="class_p4_1_1_apollo_1_1_apollo_options.html" target="_top" xlink:title=" ">
<polygon fill="white" stroke="#bfbfbf" points="144.5,-129 4.5,-129 4.5,-110 144.5,-110 144.5,-129"/>
<text text-anchor="middle" x="74.5" y="-117" font-family="Helvetica,sans-Serif" font-size="10.00">P4::Apollo::ApolloOptions</text>
</a>
</g>
</g>
<!-- Node2&#45;&gt;Node1 -->
<g id="edge1_Node000001_Node000002" class="edge">
<title>Node2&#45;&gt;Node1</title>
<g id="a_edge1_Node000001_Node000002"><a xlink:title=" ">
<path fill="none" stroke="#63b8ff" d="M74.5,-99.66C74.5,-90.93 74.5,-80.99 74.5,-74.09"/>
<polygon fill="#63b8ff" stroke="#63b8ff" points="71,-99.75 74.5,-109.75 78,-99.75 71,-99.75"/>
</a>
</g>
</g>
<!-- Node3 -->
<g id="Node000003" class="node">
<title>Node3</title>
<g id="a_Node000003"><a xlink:href="class_p4_1_1_compiler_options.html" target="_top" xlink:title=" ">
<polygon fill="white" stroke="#bfbfbf" points="132.5,-184 16.5,-184 16.5,-165 132.5,-165 132.5,-184"/>
<text text-anchor="middle" x="74.5" y="-172" font-family="Helvetica,sans-Serif" font-size="10.00">P4::CompilerOptions</text>
</a>
</g>
</g>
<!-- Node3&#45;&gt;Node2 -->
<g id="edge2_Node000002_Node000003" class="edge">
<title>Node3&#45;&gt;Node2</title>
<g id="a_edge2_Node000002_Node000003"><a xlink:title=" ">
<path fill="none" stroke="#63b8ff" d="M74.5,-154.66C74.5,-145.93 74.5,-135.99 74.5,-129.09"/>
<polygon fill="#63b8ff" stroke="#63b8ff" points="71,-154.75 74.5,-164.75 78,-154.75 71,-154.75"/>
</a>
</g>
</g>
<!-- Node4 -->
<g id="Node000004" class="node">
<title>Node4</title>
<g id="a_Node000004"><a xlink:href="class_p4_1_1_parser_options.html" target="_top" xlink:title=" ">
<polygon fill="white" stroke="#666666" points="125.5,-239 23.5,-239 23.5,-220 125.5,-220 125.5,-239"/>
<text text-anchor="middle" x="74.5" y="-227" font-family="Helvetica,sans-Serif" font-size="10.00">P4::ParserOptions</text>
</a>
</g>
</g>
<!-- Node4&#45;&gt;Node3 -->
<g id="edge3_Node000003_Node000004" class="edge">
<title>Node4&#45;&gt;Node3</title>
<g id="a_edge3_Node000003_Node000004"><a xlink:title=" ">
<path fill="none" stroke="#63b8ff" d="M74.5,-209.66C74.5,-200.93 74.5,-190.99 74.5,-184.09"/>
<polygon fill="#63b8ff" stroke="#63b8ff" points="71,-209.75 74.5,-219.75 78,-209.75 71,-209.75"/>
</a>
</g>
</g>
<!-- Node5 -->
<g id="Node000005" class="node">
<title>Node5</title>
<g id="a_Node000005"><a xlink:href="class_p4_1_1_util_1_1_options.html" target="_top" xlink:title=" ">
<polygon fill="white" stroke="#bfbfbf" points="122,-294 27,-294 27,-275 122,-275 122,-294"/>
<text text-anchor="middle" x="74.5" y="-282" font-family="Helvetica,sans-Serif" font-size="10.00">P4::Util::Options</text>
</a>
</g>
</g>
<!-- Node5&#45;&gt;Node4 -->
<g id="edge4_Node000004_Node000005" class="edge">
<title>Node5&#45;&gt;Node4</title>
<g id="a_edge4_Node000004_Node000005"><a xlink:title=" ">
<path fill="none" stroke="#63b8ff" d="M74.5,-264.66C74.5,-255.93 74.5,-245.99 74.5,-239.09"/>
<polygon fill="#63b8ff" stroke="#63b8ff" points="71,-264.75 74.5,-274.75 78,-264.75 71,-264.75"/>
</a>
</g>
</g>
</g>
</svg>
</svg>

<style type='text/css'>
<![CDATA[
[data-mouse-over-selected='false'] { opacity: 0.7; }
[data-mouse-over-selected='true']  { opacity: 1.0; }
]]>
</style>
<script type="application/ecmascript"><![CDATA[
document.addEventListener('DOMContentLoaded', (event) => {
  highlightEdges();
  highlightAdjacentNodes();
});
]]></script>
</svg>
