<?xml version="1.0" encoding="UTF-8" standalone="no"?>
<!DOCTYPE svg PUBLIC "-//W3C//DTD SVG 1.1//EN"
 "http://www.w3.org/Graphics/SVG/1.1/DTD/svg11.dtd">
<!-- Generated by graphviz version 2.43.0 (0)
 -->
<!-- Title: P4::ParseAnnotations Pages: 1 -->
<svg width="536pt" height="187pt"
 viewBox="0.00 0.00 536.00 187.00" xmlns="http://www.w3.org/2000/svg" xmlns:xlink="http://www.w3.org/1999/xlink">
<g id="graph0" class="graph" transform="scale(1 1) rotate(0) translate(4 183)">
<title>P4::ParseAnnotations</title>
<!-- Node1 -->
<g id="Node000001" class="node">
<title>Node1</title>
<g id="a_Node000001"><a xlink:title=" ">
<polygon fill="#999999" stroke="#666666" points="331,-105 212,-105 212,-86 331,-86 331,-105"/>
<text text-anchor="middle" x="271.5" y="-93" font-family="Helvetica,sans-Serif" font-size="10.00">P4::ParseAnnotations</text>
</a>
</g>
</g>
<!-- Node4 -->
<g id="Node000004" class="node">
<title>Node4</title>
<g id="a_Node000004"><a xlink:href="class_b_f_n_1_1_parse_annotations.html" target="_top" xlink:title=" ">
<polygon fill="white" stroke="#666666" points="511.5,-179 383.5,-179 383.5,-160 511.5,-160 511.5,-179"/>
<text text-anchor="middle" x="447.5" y="-167" font-family="Helvetica,sans-Serif" font-size="10.00">BFN::ParseAnnotations</text>
</a>
</g>
</g>
<!-- Node1&#45;&gt;Node4 -->
<g id="edge3_Node000001_Node000004" class="edge">
<title>Node1&#45;&gt;Node4</title>
<g id="a_edge3_Node000001_Node000004"><a xlink:title=" ">
<path fill="none" stroke="#63b8ff" d="M293.87,-110.81C312.4,-123.42 340.35,-140.89 367,-151.5 375.41,-154.85 384.59,-157.65 393.62,-159.96"/>
<polygon fill="#63b8ff" stroke="#63b8ff" points="295.79,-107.89 285.58,-105.06 291.81,-113.64 295.79,-107.89"/>
</a>
</g>
</g>
<!-- Node5 -->
<g id="Node000005" class="node">
<title>Node5</title>
<g id="a_Node000005"><a xlink:href="class_p4_1_1_apollo_1_1_parse_annotations.html" target="_top" xlink:title="Parses Apollo&#45;specific annotations.">
<polygon fill="white" stroke="#666666" points="525.5,-142 369.5,-142 369.5,-123 525.5,-123 525.5,-142"/>
<text text-anchor="middle" x="447.5" y="-130" font-family="Helvetica,sans-Serif" font-size="10.00">P4::Apollo::ParseAnnotations</text>
</a>
</g>
</g>
<!-- Node1&#45;&gt;Node5 -->
<g id="edge4_Node000001_Node000005" class="edge">
<title>Node1&#45;&gt;Node5</title>
<g id="a_edge4_Node000001_Node000005"><a xlink:title=" ">
<path fill="none" stroke="#63b8ff" d="M327.3,-107.15C351.2,-112.23 378.87,-118.12 401.54,-122.94"/>
<polygon fill="#63b8ff" stroke="#63b8ff" points="327.82,-103.68 317.31,-105.03 326.36,-110.53 327.82,-103.68"/>
</a>
</g>
</g>
<!-- Node6 -->
<g id="Node000006" class="node">
<title>Node6</title>
<g id="a_Node000006"><a xlink:href="class_p4_1_1_b_m_v2_1_1_parse_annotations.html" target="_top" xlink:title="Parses BMV2&#45;specific annotations.">
<polygon fill="white" stroke="#666666" points="524.5,-105 370.5,-105 370.5,-86 524.5,-86 524.5,-105"/>
<text text-anchor="middle" x="447.5" y="-93" font-family="Helvetica,sans-Serif" font-size="10.00">P4::BMV2::ParseAnnotations</text>
</a>
</g>
</g>
<!-- Node1&#45;&gt;Node6 -->
<g id="edge5_Node000001_Node000006" class="edge">
<title>Node1&#45;&gt;Node6</title>
<g id="a_edge5_Node000001_Node000006"><a xlink:title=" ">
<path fill="none" stroke="#63b8ff" d="M341.55,-95.5C351.02,-95.5 360.79,-95.5 370.38,-95.5"/>
<polygon fill="#63b8ff" stroke="#63b8ff" points="341.41,-92 331.41,-95.5 341.41,-99 341.41,-92"/>
</a>
</g>
</g>
<!-- Node7 -->
<g id="Node000007" class="node">
<title>Node7</title>
<g id="a_Node000007"><a xlink:href="class_p4_1_1_control_plane_a_p_i_1_1_parse_p4_runtime_annotations.html" target="_top" xlink:title="Parses P4Runtime&#45;specific annotations.">
<polygon fill="white" stroke="#666666" points="528,-67.5 367,-67.5 367,-37.5 528,-37.5 528,-67.5"/>
<text text-anchor="start" x="375" y="-55.5" font-family="Helvetica,sans-Serif" font-size="10.00">P4::ControlPlaneAPI</text>
<text text-anchor="middle" x="447.5" y="-44.5" font-family="Helvetica,sans-Serif" font-size="10.00">::ParseP4RuntimeAnnotations</text>
</a>
</g>
</g>
<!-- Node1&#45;&gt;Node7 -->
<g id="edge6_Node000001_Node000007" class="edge">
<title>Node1&#45;&gt;Node7</title>
<g id="a_edge6_Node000001_Node000007"><a xlink:title=" ">
<path fill="none" stroke="#63b8ff" d="M320.97,-83.52C341.05,-78.56 364.56,-72.75 385.78,-67.51"/>
<polygon fill="#63b8ff" stroke="#63b8ff" points="319.98,-80.16 311.12,-85.96 321.66,-86.96 319.98,-80.16"/>
</a>
</g>
</g>
<!-- Node8 -->
<g id="Node000008" class="node">
<title>Node8</title>
<g id="a_Node000008"><a xlink:href="class_p4_1_1_t_c_1_1_parse_t_c_annotations.html" target="_top" xlink:title=" ">
<polygon fill="white" stroke="#bfbfbf" points="522,-19 373,-19 373,0 522,0 522,-19"/>
<text text-anchor="middle" x="447.5" y="-7" font-family="Helvetica,sans-Serif" font-size="10.00">P4::TC::ParseTCAnnotations</text>
</a>
</g>
</g>
<!-- Node1&#45;&gt;Node8 -->
<g id="edge7_Node000001_Node000008" class="edge">
<title>Node1&#45;&gt;Node8</title>
<g id="a_edge7_Node000001_Node000008"><a xlink:title=" ">
<path fill="none" stroke="#63b8ff" d="M290.97,-79.12C309.12,-63.86 338.19,-41.56 367,-28.5 375.4,-24.69 384.66,-21.59 393.8,-19.09"/>
<polygon fill="#63b8ff" stroke="#63b8ff" points="288.3,-76.8 282.99,-85.97 292.86,-82.11 288.3,-76.8"/>
</a>
</g>
</g>
<!-- Node2 -->
<g id="Node000002" class="node">
<title>Node2</title>
<g id="a_Node000002"><a xlink:href="class_p4_1_1_modifier.html" target="_top" xlink:title=" ">
<polygon fill="white" stroke="#bfbfbf" points="176,-105 102,-105 102,-86 176,-86 176,-105"/>
<text text-anchor="middle" x="139" y="-93" font-family="Helvetica,sans-Serif" font-size="10.00">P4::Modifier</text>
</a>
</g>
</g>
<!-- Node2&#45;&gt;Node1 -->
<g id="edge1_Node000001_Node000002" class="edge">
<title>Node2&#45;&gt;Node1</title>
<g id="a_edge1_Node000001_Node000002"><a xlink:title=" ">
<path fill="none" stroke="#63b8ff" d="M186.14,-95.5C194.37,-95.5 203.04,-95.5 211.56,-95.5"/>
<polygon fill="#63b8ff" stroke="#63b8ff" points="186.01,-92 176.01,-95.5 186.01,-99 186.01,-92"/>
</a>
</g>
</g>
<!-- Node3 -->
<g id="Node000003" class="node">
<title>Node3</title>
<g id="a_Node000003"><a xlink:href="class_p4_1_1_visitor.html" target="_top" xlink:title=" ">
<polygon fill="white" stroke="#bfbfbf" points="66,-105 0,-105 0,-86 66,-86 66,-105"/>
<text text-anchor="middle" x="33" y="-93" font-family="Helvetica,sans-Serif" font-size="10.00">P4::Visitor</text>
</a>
</g>
</g>
<!-- Node3&#45;&gt;Node2 -->
<g id="edge2_Node000002_Node000003" class="edge">
<title>Node3&#45;&gt;Node2</title>
<g id="a_edge2_Node000002_Node000003"><a xlink:title=" ">
<path fill="none" stroke="#63b8ff" d="M76.2,-95.5C84.71,-95.5 93.59,-95.5 101.88,-95.5"/>
<polygon fill="#63b8ff" stroke="#63b8ff" points="76.05,-92 66.05,-95.5 76.05,-99 76.05,-92"/>
</a>
</g>
</g>
</g>
</svg>
