<?xml version="1.0" encoding="UTF-8" standalone="no"?>
<!DOCTYPE svg PUBLIC "-//W3C//DTD SVG 1.1//EN"
 "http://www.w3.org/Graphics/SVG/1.1/DTD/svg11.dtd">
<!-- Generated by graphviz version 2.43.0 (0)
 -->
<!-- Title: P4::RemoveComplexExpressions Pages: 1 -->
<svg width="394pt" height="203pt"
 viewBox="0.00 0.00 393.50 203.00" xmlns="http://www.w3.org/2000/svg" xmlns:xlink="http://www.w3.org/1999/xlink">
<g id="graph0" class="graph" transform="scale(1 1) rotate(0) translate(4 199)">
<title>P4::RemoveComplexExpressions</title>
<!-- Node1 -->
<g id="Node000001" class="node">
<title>Node1</title>
<g id="a_Node000001"><a xlink:title=" ">
<polygon fill="#999999" stroke="#666666" points="267,-85 90,-85 90,-66 267,-66 267,-85"/>
<text text-anchor="middle" x="178.5" y="-73" font-family="Helvetica,sans-Serif" font-size="10.00">P4::RemoveComplexExpressions</text>
</a>
</g>
</g>
<!-- Node6 -->
<g id="Node000006" class="node">
<title>Node6</title>
<g id="a_Node000006"><a xlink:href="class_p4_1_1_apollo_1_1_remove_complex_expressions.html" target="_top" xlink:title=" ">
<polygon fill="white" stroke="#bfbfbf" points="155,-30 0,-30 0,0 155,0 155,-30"/>
<text text-anchor="start" x="8" y="-18" font-family="Helvetica,sans-Serif" font-size="10.00">P4::Apollo::RemoveComplex</text>
<text text-anchor="middle" x="77.5" y="-7" font-family="Helvetica,sans-Serif" font-size="10.00">Expressions</text>
</a>
</g>
</g>
<!-- Node1&#45;&gt;Node6 -->
<g id="edge6_Node000001_Node000006" class="edge">
<title>Node1&#45;&gt;Node6</title>
<g id="a_edge6_Node000001_Node000006"><a xlink:title=" ">
<path fill="none" stroke="#63b8ff" d="M154.87,-60.81C138.93,-51.58 117.96,-39.43 101.87,-30.11"/>
<polygon fill="#63b8ff" stroke="#63b8ff" points="153.19,-63.88 163.6,-65.87 156.7,-57.83 153.19,-63.88"/>
</a>
</g>
</g>
<!-- Node7 -->
<g id="Node000007" class="node">
<title>Node7</title>
<g id="a_Node000007"><a xlink:href="class_p4_1_1_b_m_v2_1_1_remove_complex_expressions.html" target="_top" xlink:title=" ">
<polygon fill="white" stroke="#bfbfbf" points="385.5,-24.5 173.5,-24.5 173.5,-5.5 385.5,-5.5 385.5,-24.5"/>
<text text-anchor="middle" x="279.5" y="-12.5" font-family="Helvetica,sans-Serif" font-size="10.00">P4::BMV2::RemoveComplexExpressions</text>
</a>
</g>
</g>
<!-- Node1&#45;&gt;Node7 -->
<g id="edge7_Node000001_Node000007" class="edge">
<title>Node1&#45;&gt;Node7</title>
<g id="a_edge7_Node000001_Node000007"><a xlink:title=" ">
<path fill="none" stroke="#63b8ff" d="M202.2,-60.77C221.48,-49.6 248.1,-34.19 264.54,-24.67"/>
<polygon fill="#63b8ff" stroke="#63b8ff" points="200.3,-57.83 193.4,-65.87 203.81,-63.88 200.3,-57.83"/>
</a>
</g>
</g>
<!-- Node2 -->
<g id="Node000002" class="node">
<title>Node2</title>
<g id="a_Node000002"><a xlink:href="class_p4_1_1_transform.html" target="_top" xlink:title=" ">
<polygon fill="white" stroke="#bfbfbf" points="159,-140 76,-140 76,-121 159,-121 159,-140"/>
<text text-anchor="middle" x="117.5" y="-128" font-family="Helvetica,sans-Serif" font-size="10.00">P4::Transform</text>
</a>
</g>
</g>
<!-- Node2&#45;&gt;Node1 -->
<g id="edge1_Node000001_Node000002" class="edge">
<title>Node2&#45;&gt;Node1</title>
<g id="a_edge1_Node000001_Node000002"><a xlink:title=" ">
<path fill="none" stroke="#63b8ff" d="M134.97,-114.32C145.84,-104.87 159.44,-93.06 168.52,-85.17"/>
<polygon fill="#63b8ff" stroke="#63b8ff" points="132.55,-111.78 127.3,-120.98 137.15,-117.07 132.55,-111.78"/>
</a>
</g>
</g>
<!-- Node3 -->
<g id="Node000003" class="node">
<title>Node3</title>
<g id="a_Node000003"><a xlink:href="class_p4_1_1_visitor.html" target="_top" xlink:title=" ">
<polygon fill="white" stroke="#bfbfbf" points="154.5,-195 88.5,-195 88.5,-176 154.5,-176 154.5,-195"/>
<text text-anchor="middle" x="121.5" y="-183" font-family="Helvetica,sans-Serif" font-size="10.00">P4::Visitor</text>
</a>
</g>
</g>
<!-- Node3&#45;&gt;Node2 -->
<g id="edge2_Node000002_Node000003" class="edge">
<title>Node3&#45;&gt;Node2</title>
<g id="a_edge2_Node000002_Node000003"><a xlink:title=" ">
<path fill="none" stroke="#63b8ff" d="M120.08,-165.66C119.42,-156.93 118.67,-146.99 118.15,-140.09"/>
<polygon fill="#63b8ff" stroke="#63b8ff" points="116.6,-166.04 120.84,-175.75 123.58,-165.51 116.6,-166.04"/>
</a>
</g>
</g>
<!-- Node4 -->
<g id="Node000004" class="node">
<title>Node4</title>
<g id="a_Node000004"><a xlink:href="class_p4_1_1_resolution_context.html" target="_top" xlink:title="Visitor mixin for looking up names in enclosing scopes from the Visitor::Context.">
<polygon fill="white" stroke="#666666" points="302,-140 177,-140 177,-121 302,-121 302,-140"/>
<text text-anchor="middle" x="239.5" y="-128" font-family="Helvetica,sans-Serif" font-size="10.00">P4::ResolutionContext</text>
</a>
</g>
</g>
<!-- Node3&#45;&gt;Node4 -->
<g id="edge4_Node000004_Node000003" class="edge">
<title>Node3&#45;&gt;Node4</title>
<g id="a_edge4_Node000004_Node000003"><a xlink:title=" ">
<path fill="none" stroke="#63b8ff" d="M149.85,-171.77C171.62,-161.99 201.09,-148.75 220.2,-140.17"/>
<polygon fill="#63b8ff" stroke="#63b8ff" points="148.15,-168.69 140.46,-175.98 151.01,-175.08 148.15,-168.69"/>
</a>
</g>
</g>
<!-- Node4&#45;&gt;Node1 -->
<g id="edge3_Node000001_Node000004" class="edge">
<title>Node4&#45;&gt;Node1</title>
<g id="a_edge3_Node000001_Node000004"><a xlink:title=" ">
<path fill="none" stroke="#63b8ff" d="M222.03,-114.32C211.16,-104.87 197.56,-93.06 188.48,-85.17"/>
<polygon fill="#63b8ff" stroke="#63b8ff" points="219.85,-117.07 229.7,-120.98 224.45,-111.78 219.85,-117.07"/>
</a>
</g>
</g>
<!-- Node5 -->
<g id="Node000005" class="node">
<title>Node5</title>
<g id="a_Node000005"><a xlink:href="class_p4_1_1_declaration_lookup.html" target="_top" xlink:title=" ">
<polygon fill="white" stroke="#bfbfbf" points="302,-195 177,-195 177,-176 302,-176 302,-195"/>
<text text-anchor="middle" x="239.5" y="-183" font-family="Helvetica,sans-Serif" font-size="10.00">P4::DeclarationLookup</text>
</a>
</g>
</g>
<!-- Node5&#45;&gt;Node4 -->
<g id="edge5_Node000004_Node000005" class="edge">
<title>Node5&#45;&gt;Node4</title>
<g id="a_edge5_Node000004_Node000005"><a xlink:title=" ">
<path fill="none" stroke="#63b8ff" d="M239.5,-165.66C239.5,-156.93 239.5,-146.99 239.5,-140.09"/>
<polygon fill="#63b8ff" stroke="#63b8ff" points="236,-165.75 239.5,-175.75 243,-165.75 236,-165.75"/>
</a>
</g>
</g>
</g>
</svg>
