<?xml version="1.0" encoding="UTF-8" standalone="no"?>
<!DOCTYPE svg PUBLIC "-//W3C//DTD SVG 1.1//EN"
 "http://www.w3.org/Graphics/SVG/1.1/DTD/svg11.dtd">
<!-- Generated by graphviz version 2.43.0 (0)
 -->
<!-- Title: P4::InspectPortableProgram Pages: 1 -->
<svg width="470pt" height="192pt"
 viewBox="0.00 0.00 470.00 192.00" xmlns="http://www.w3.org/2000/svg" xmlns:xlink="http://www.w3.org/1999/xlink">
<g id="graph0" class="graph" transform="scale(1 1) rotate(0) translate(4 188)">
<title>P4::InspectPortableProgram</title>
<!-- Node1 -->
<g id="Node000001" class="node">
<title>Node1</title>
<g id="a_Node000001"><a xlink:title=" ">
<polygon fill="#999999" stroke="#666666" points="322,-74 170,-74 170,-55 322,-55 322,-74"/>
<text text-anchor="middle" x="246" y="-62" font-family="Helvetica,sans-Serif" font-size="10.00">P4::InspectPortableProgram</text>
</a>
</g>
</g>
<!-- Node4 -->
<g id="Node000004" class="node">
<title>Node4</title>
<g id="a_Node000004"><a xlink:href="class_p4_1_1_b_m_v2_1_1_inspect_pna_program.html" target="_top" xlink:title=" ">
<polygon fill="white" stroke="#bfbfbf" points="164,-19 0,-19 0,0 164,0 164,-19"/>
<text text-anchor="middle" x="82" y="-7" font-family="Helvetica,sans-Serif" font-size="10.00">P4::BMV2::InspectPnaProgram</text>
</a>
</g>
</g>
<!-- Node1&#45;&gt;Node4 -->
<g id="edge3_Node000001_Node000004" class="edge">
<title>Node1&#45;&gt;Node4</title>
<g id="a_edge3_Node000001_Node000004"><a xlink:title=" ">
<path fill="none" stroke="#63b8ff" d="M209.79,-51.8C179.18,-41.91 136.05,-27.97 108.56,-19.08"/>
<polygon fill="#63b8ff" stroke="#63b8ff" points="209.06,-55.24 219.65,-54.98 211.21,-48.58 209.06,-55.24"/>
</a>
</g>
</g>
<!-- Node5 -->
<g id="Node000005" class="node">
<title>Node5</title>
<g id="a_Node000005"><a xlink:href="class_p4_1_1_inspect_psa_program.html" target="_top" xlink:title=" ">
<polygon fill="white" stroke="#bfbfbf" points="310,-19 182,-19 182,0 310,0 310,-19"/>
<text text-anchor="middle" x="246" y="-7" font-family="Helvetica,sans-Serif" font-size="10.00">P4::InspectPsaProgram</text>
</a>
</g>
</g>
<!-- Node1&#45;&gt;Node5 -->
<g id="edge4_Node000001_Node000005" class="edge">
<title>Node1&#45;&gt;Node5</title>
<g id="a_edge4_Node000001_Node000005"><a xlink:title=" ">
<path fill="none" stroke="#63b8ff" d="M246,-44.66C246,-35.93 246,-25.99 246,-19.09"/>
<polygon fill="#63b8ff" stroke="#63b8ff" points="242.5,-44.75 246,-54.75 249.5,-44.75 242.5,-44.75"/>
</a>
</g>
</g>
<!-- Node6 -->
<g id="Node000006" class="node">
<title>Node6</title>
<g id="a_Node000006"><a xlink:href="class_p4_1_1_inspect_tuna_program.html" target="_top" xlink:title=" ">
<polygon fill="white" stroke="#bfbfbf" points="462,-19 328,-19 328,0 462,0 462,-19"/>
<text text-anchor="middle" x="395" y="-7" font-family="Helvetica,sans-Serif" font-size="10.00">P4::InspectTunaProgram</text>
</a>
</g>
</g>
<!-- Node1&#45;&gt;Node6 -->
<g id="edge5_Node000001_Node000006" class="edge">
<title>Node1&#45;&gt;Node6</title>
<g id="a_edge5_Node000001_Node000006"><a xlink:title=" ">
<path fill="none" stroke="#63b8ff" d="M279.59,-51.55C307.26,-41.71 345.84,-27.98 370.62,-19.17"/>
<polygon fill="#63b8ff" stroke="#63b8ff" points="278.19,-48.34 269.94,-54.98 280.53,-54.93 278.19,-48.34"/>
</a>
</g>
</g>
<!-- Node2 -->
<g id="Node000002" class="node">
<title>Node2</title>
<g id="a_Node000002"><a xlink:href="class_p4_1_1_inspector.html" target="_top" xlink:title=" ">
<polygon fill="white" stroke="#bfbfbf" points="286,-129 206,-129 206,-110 286,-110 286,-129"/>
<text text-anchor="middle" x="246" y="-117" font-family="Helvetica,sans-Serif" font-size="10.00">P4::Inspector</text>
</a>
</g>
</g>
<!-- Node2&#45;&gt;Node1 -->
<g id="edge1_Node000001_Node000002" class="edge">
<title>Node2&#45;&gt;Node1</title>
<g id="a_edge1_Node000001_Node000002"><a xlink:title=" ">
<path fill="none" stroke="#63b8ff" d="M246,-99.66C246,-90.93 246,-80.99 246,-74.09"/>
<polygon fill="#63b8ff" stroke="#63b8ff" points="242.5,-99.75 246,-109.75 249.5,-99.75 242.5,-99.75"/>
</a>
</g>
</g>
<!-- Node3 -->
<g id="Node000003" class="node">
<title>Node3</title>
<g id="a_Node000003"><a xlink:href="class_p4_1_1_visitor.html" target="_top" xlink:title=" ">
<polygon fill="white" stroke="#bfbfbf" points="279,-184 213,-184 213,-165 279,-165 279,-184"/>
<text text-anchor="middle" x="246" y="-172" font-family="Helvetica,sans-Serif" font-size="10.00">P4::Visitor</text>
</a>
</g>
</g>
<!-- Node3&#45;&gt;Node2 -->
<g id="edge2_Node000002_Node000003" class="edge">
<title>Node3&#45;&gt;Node2</title>
<g id="a_edge2_Node000002_Node000003"><a xlink:title=" ">
<path fill="none" stroke="#63b8ff" d="M246,-154.66C246,-145.93 246,-135.99 246,-129.09"/>
<polygon fill="#63b8ff" stroke="#63b8ff" points="242.5,-154.75 246,-164.75 249.5,-154.75 242.5,-154.75"/>
</a>
</g>
</g>
</g>
</svg>
