<?xml version="1.0" encoding="UTF-8" standalone="no"?>
<!DOCTYPE svg PUBLIC "-//W3C//DTD SVG 1.1//EN"
 "http://www.w3.org/Graphics/SVG/1.1/DTD/svg11.dtd">
<!-- Generated by graphviz version 2.43.0 (0)
 -->
<!-- Title: P4::P4CContext Pages: 1 -->
<svg width="617pt" height="710pt"
 viewBox="0.00 0.00 617.00 710.00" xmlns="http://www.w3.org/2000/svg" xmlns:xlink="http://www.w3.org/1999/xlink">
<g id="graph0" class="graph" transform="scale(1 1) rotate(0) translate(4 706)">
<title>P4::P4CContext</title>
<!-- Node1 -->
<g id="Node000001" class="node">
<title>Node1</title>
<g id="a_Node000001"><a xlink:title=" ">
<polygon fill="#999999" stroke="#666666" points="417,-360.5 325,-360.5 325,-341.5 417,-341.5 417,-360.5"/>
<text text-anchor="middle" x="371" y="-348.5" font-family="Helvetica,sans-Serif" font-size="10.00">P4::P4CContext</text>
</a>
</g>
</g>
<!-- Node4 -->
<g id="Node000004" class="node">
<title>Node4</title>
<g id="a_Node000004"><a xlink:href="class_p4_1_1_p4_c_context_with_options.html" target="_top" xlink:title=" ">
<polygon fill="white" stroke="#666666" points="607,-702 455,-702 455,-672 607,-672 607,-702"/>
<text text-anchor="start" x="463" y="-690" font-family="Helvetica,sans-Serif" font-size="10.00">P4::P4CContextWithOptions</text>
<text text-anchor="middle" x="531" y="-679" font-family="Helvetica,sans-Serif" font-size="10.00">&lt; ApolloOptions &gt;</text>
</a>
</g>
</g>
<!-- Node1&#45;&gt;Node4 -->
<g id="edge3_Node000001_Node000004" class="edge">
<title>Node1&#45;&gt;Node4</title>
<g id="a_edge3_Node000001_Node000004"><a xlink:title=" ">
<path fill="none" stroke="#63b8ff" d="M374.58,-370.6C383.05,-432.11 411.84,-619.81 453,-663 456.28,-666.45 460.05,-669.4 464.12,-671.93"/>
<polygon fill="#63b8ff" stroke="#63b8ff" points="378.04,-370.09 373.24,-360.65 371.11,-371.02 378.04,-370.09"/>
</a>
</g>
</g>
<!-- Node5 -->
<g id="Node000005" class="node">
<title>Node5</title>
<g id="a_Node000005"><a xlink:href="class_p4_1_1_p4_c_context_with_options.html" target="_top" xlink:title=" ">
<polygon fill="white" stroke="#666666" points="607,-654 455,-654 455,-624 607,-624 607,-654"/>
<text text-anchor="start" x="463" y="-642" font-family="Helvetica,sans-Serif" font-size="10.00">P4::P4CContextWithOptions</text>
<text text-anchor="middle" x="531" y="-631" font-family="Helvetica,sans-Serif" font-size="10.00">&lt; TunaNicOptions &gt;</text>
</a>
</g>
</g>
<!-- Node1&#45;&gt;Node5 -->
<g id="edge4_Node000001_Node000005" class="edge">
<title>Node1&#45;&gt;Node5</title>
<g id="a_edge4_Node000001_Node000005"><a xlink:title=" ">
<path fill="none" stroke="#63b8ff" d="M372.12,-370.58C373.52,-419.03 383.95,-545.64 453,-615 456.46,-618.47 460.41,-621.45 464.65,-623.99"/>
<polygon fill="#63b8ff" stroke="#63b8ff" points="375.62,-370.43 371.94,-360.5 368.62,-370.56 375.62,-370.43"/>
</a>
</g>
</g>
<!-- Node6 -->
<g id="Node000006" class="node">
<title>Node6</title>
<g id="a_Node000006"><a xlink:href="class_p4_1_1_p4_c_context_with_options.html" target="_top" xlink:title=" ">
<polygon fill="white" stroke="#666666" points="607,-606 455,-606 455,-576 607,-576 607,-606"/>
<text text-anchor="start" x="463" y="-594" font-family="Helvetica,sans-Serif" font-size="10.00">P4::P4CContextWithOptions</text>
<text text-anchor="middle" x="531" y="-583" font-family="Helvetica,sans-Serif" font-size="10.00">&lt; BMV2Options &gt;</text>
</a>
</g>
</g>
<!-- Node1&#45;&gt;Node6 -->
<g id="edge5_Node000001_Node000006" class="edge">
<title>Node1&#45;&gt;Node6</title>
<g id="a_edge5_Node000001_Node000006"><a xlink:title=" ">
<path fill="none" stroke="#63b8ff" d="M373.72,-370.94C378.45,-413.25 395.4,-512.58 453,-567 456.66,-570.46 460.82,-573.43 465.26,-575.96"/>
<polygon fill="#63b8ff" stroke="#63b8ff" points="377.19,-370.42 372.71,-360.82 370.22,-371.12 377.19,-370.42"/>
</a>
</g>
</g>
<!-- Node7 -->
<g id="Node000007" class="node">
<title>Node7</title>
<g id="a_Node000007"><a xlink:href="class_p4_1_1_p4_c_context_with_options.html" target="_top" xlink:title=" ">
<polygon fill="white" stroke="#666666" points="607,-558 455,-558 455,-528 607,-528 607,-558"/>
<text text-anchor="start" x="463" y="-546" font-family="Helvetica,sans-Serif" font-size="10.00">P4::P4CContextWithOptions</text>
<text text-anchor="middle" x="531" y="-535" font-family="Helvetica,sans-Serif" font-size="10.00">&lt; PnaNicOptions &gt;</text>
</a>
</g>
</g>
<!-- Node1&#45;&gt;Node7 -->
<g id="edge6_Node000001_Node000007" class="edge">
<title>Node1&#45;&gt;Node7</title>
<g id="a_edge6_Node000001_Node000007"><a xlink:title=" ">
<path fill="none" stroke="#63b8ff" d="M376.04,-370.51C384.27,-405.43 406.32,-478.73 453,-519 457.03,-522.48 461.56,-525.45 466.35,-527.99"/>
<polygon fill="#63b8ff" stroke="#63b8ff" points="379.42,-369.61 373.83,-360.61 372.59,-371.13 379.42,-369.61"/>
</a>
</g>
</g>
<!-- Node8 -->
<g id="Node000008" class="node">
<title>Node8</title>
<g id="a_Node000008"><a xlink:href="class_p4_1_1_p4_c_context_with_options.html" target="_top" xlink:title=" ">
<polygon fill="white" stroke="#666666" points="607,-510 455,-510 455,-480 607,-480 607,-510"/>
<text text-anchor="start" x="463" y="-498" font-family="Helvetica,sans-Serif" font-size="10.00">P4::P4CContextWithOptions</text>
<text text-anchor="middle" x="531" y="-487" font-family="Helvetica,sans-Serif" font-size="10.00">&lt; PsaSwitchOptions &gt;</text>
</a>
</g>
</g>
<!-- Node1&#45;&gt;Node8 -->
<g id="edge7_Node000001_Node000008" class="edge">
<title>Node1&#45;&gt;Node8</title>
<g id="a_edge7_Node000001_Node000008"><a xlink:title=" ">
<path fill="none" stroke="#63b8ff" d="M379.91,-370.05C391.87,-396.54 417.04,-444.25 453,-471 457.61,-474.43 462.71,-477.37 468.04,-479.9"/>
<polygon fill="#63b8ff" stroke="#63b8ff" points="383.05,-368.49 375.85,-360.72 376.63,-371.29 383.05,-368.49"/>
</a>
</g>
</g>
<!-- Node9 -->
<g id="Node000009" class="node">
<title>Node9</title>
<g id="a_Node000009"><a xlink:href="class_p4_1_1_p4_c_context_with_options.html" target="_top" xlink:title=" ">
<polygon fill="white" stroke="#666666" points="607,-462 455,-462 455,-432 607,-432 607,-462"/>
<text text-anchor="start" x="463" y="-450" font-family="Helvetica,sans-Serif" font-size="10.00">P4::P4CContextWithOptions</text>
<text text-anchor="middle" x="531" y="-439" font-family="Helvetica,sans-Serif" font-size="10.00">&lt; SimpleSwitchOptions &gt;</text>
</a>
</g>
</g>
<!-- Node1&#45;&gt;Node9 -->
<g id="edge8_Node000001_Node000009" class="edge">
<title>Node1&#45;&gt;Node9</title>
<g id="a_edge8_Node000001_Node000009"><a xlink:title=" ">
<path fill="none" stroke="#63b8ff" d="M387.52,-368.55C402.74,-384.77 427.33,-408.5 453,-423 458.97,-426.38 465.48,-429.34 472.1,-431.92"/>
<polygon fill="#63b8ff" stroke="#63b8ff" points="389.8,-365.85 380.47,-360.84 384.64,-370.58 389.8,-365.85"/>
</a>
</g>
</g>
<!-- Node10 -->
<g id="Node000010" class="node">
<title>Node10</title>
<g id="a_Node000010"><a xlink:href="class_p4_1_1_p4_c_context_with_options.html" target="_top" xlink:title=" ">
<polygon fill="white" stroke="#666666" points="607,-414 455,-414 455,-384 607,-384 607,-414"/>
<text text-anchor="start" x="463" y="-402" font-family="Helvetica,sans-Serif" font-size="10.00">P4::P4CContextWithOptions</text>
<text text-anchor="middle" x="531" y="-391" font-family="Helvetica,sans-Serif" font-size="10.00">&lt; DpdkOptions &gt;</text>
</a>
</g>
</g>
<!-- Node1&#45;&gt;Node10 -->
<g id="edge9_Node000001_Node000010" class="edge">
<title>Node1&#45;&gt;Node10</title>
<g id="a_edge9_Node000001_Node000010"><a xlink:title=" ">
<path fill="none" stroke="#63b8ff" d="M413.29,-363.54C433.84,-369.79 458.84,-377.38 480.42,-383.94"/>
<polygon fill="#63b8ff" stroke="#63b8ff" points="414.18,-360.16 403.59,-360.6 412.14,-366.85 414.18,-360.16"/>
</a>
</g>
</g>
<!-- Node11 -->
<g id="Node000011" class="node">
<title>Node11</title>
<g id="a_Node000011"><a xlink:href="class_p4_1_1_p4_c_context_with_options.html" target="_top" xlink:title=" ">
<polygon fill="white" stroke="#666666" points="607,-366 455,-366 455,-336 607,-336 607,-366"/>
<text text-anchor="start" x="463" y="-354" font-family="Helvetica,sans-Serif" font-size="10.00">P4::P4CContextWithOptions</text>
<text text-anchor="middle" x="531" y="-343" font-family="Helvetica,sans-Serif" font-size="10.00">&lt; EbpfOptions &gt;</text>
</a>
</g>
</g>
<!-- Node1&#45;&gt;Node11 -->
<g id="edge10_Node000001_Node000011" class="edge">
<title>Node1&#45;&gt;Node11</title>
<g id="a_edge10_Node000001_Node000011"><a xlink:title=" ">
<path fill="none" stroke="#63b8ff" d="M427.46,-351C436.34,-351 445.65,-351 454.89,-351"/>
<polygon fill="#63b8ff" stroke="#63b8ff" points="427.28,-347.5 417.28,-351 427.28,-354.5 427.28,-347.5"/>
</a>
</g>
</g>
<!-- Node12 -->
<g id="Node000012" class="node">
<title>Node12</title>
<g id="a_Node000012"><a xlink:href="class_p4_1_1_p4_c_context_with_options.html" target="_top" xlink:title=" ">
<polygon fill="white" stroke="#666666" points="607,-318 455,-318 455,-288 607,-288 607,-318"/>
<text text-anchor="start" x="463" y="-306" font-family="Helvetica,sans-Serif" font-size="10.00">P4::P4CContextWithOptions</text>
<text text-anchor="middle" x="531" y="-295" font-family="Helvetica,sans-Serif" font-size="10.00">&lt; Options &gt;</text>
</a>
</g>
</g>
<!-- Node1&#45;&gt;Node12 -->
<g id="edge11_Node000001_Node000012" class="edge">
<title>Node1&#45;&gt;Node12</title>
<g id="a_edge11_Node000001_Node000012"><a xlink:title=" ">
<path fill="none" stroke="#63b8ff" d="M413.29,-338.46C433.84,-332.21 458.84,-324.62 480.42,-318.06"/>
<polygon fill="#63b8ff" stroke="#63b8ff" points="412.14,-335.15 403.59,-341.4 414.18,-341.84 412.14,-335.15"/>
</a>
</g>
</g>
<!-- Node13 -->
<g id="Node000013" class="node">
<title>Node13</title>
<g id="a_Node000013"><a xlink:href="class_p4_1_1_p4_c_context_with_options.html" target="_top" xlink:title=" ">
<polygon fill="white" stroke="#666666" points="607,-270 455,-270 455,-240 607,-240 607,-270"/>
<text text-anchor="start" x="463" y="-258" font-family="Helvetica,sans-Serif" font-size="10.00">P4::P4CContextWithOptions</text>
<text text-anchor="middle" x="531" y="-247" font-family="Helvetica,sans-Serif" font-size="10.00">&lt; P4fmtOptions &gt;</text>
</a>
</g>
</g>
<!-- Node1&#45;&gt;Node13 -->
<g id="edge12_Node000001_Node000013" class="edge">
<title>Node1&#45;&gt;Node13</title>
<g id="a_edge12_Node000001_Node000013"><a xlink:title=" ">
<path fill="none" stroke="#63b8ff" d="M387.52,-333.45C402.74,-317.23 427.33,-293.5 453,-279 458.97,-275.62 465.48,-272.66 472.1,-270.08"/>
<polygon fill="#63b8ff" stroke="#63b8ff" points="384.64,-331.42 380.47,-341.16 389.8,-336.15 384.64,-331.42"/>
</a>
</g>
</g>
<!-- Node14 -->
<g id="Node000014" class="node">
<title>Node14</title>
<g id="a_Node000014"><a xlink:href="class_p4_1_1_p4_c_context_with_options.html" target="_top" xlink:title=" ">
<polygon fill="white" stroke="#666666" points="607,-222 455,-222 455,-192 607,-192 607,-222"/>
<text text-anchor="start" x="463" y="-210" font-family="Helvetica,sans-Serif" font-size="10.00">P4::P4CContextWithOptions</text>
<text text-anchor="middle" x="531" y="-199" font-family="Helvetica,sans-Serif" font-size="10.00">&lt; TCOptions &gt;</text>
</a>
</g>
</g>
<!-- Node1&#45;&gt;Node14 -->
<g id="edge13_Node000001_Node000014" class="edge">
<title>Node1&#45;&gt;Node14</title>
<g id="a_edge13_Node000001_Node000014"><a xlink:title=" ">
<path fill="none" stroke="#63b8ff" d="M379.91,-331.95C391.87,-305.46 417.04,-257.75 453,-231 457.61,-227.57 462.71,-224.63 468.04,-222.1"/>
<polygon fill="#63b8ff" stroke="#63b8ff" points="376.63,-330.71 375.85,-341.28 383.05,-333.51 376.63,-330.71"/>
</a>
</g>
</g>
<!-- Node15 -->
<g id="Node000015" class="node">
<title>Node15</title>
<g id="a_Node000015"><a xlink:href="class_p4_1_1_p4_tools_1_1_compile_context.html" target="_top" xlink:title=" ">
<polygon fill="white" stroke="#666666" points="609,-174 453,-174 453,-144 609,-144 609,-174"/>
<text text-anchor="start" x="461" y="-162" font-family="Helvetica,sans-Serif" font-size="10.00">P4::P4Tools::CompileContext</text>
<text text-anchor="middle" x="531" y="-151" font-family="Helvetica,sans-Serif" font-size="10.00">&lt; P4TestOptions &gt;</text>
</a>
</g>
</g>
<!-- Node1&#45;&gt;Node15 -->
<g id="edge14_Node000001_Node000015" class="edge">
<title>Node1&#45;&gt;Node15</title>
<g id="a_edge14_Node000001_Node000015"><a xlink:title=" ">
<path fill="none" stroke="#63b8ff" d="M376.04,-331.49C384.27,-296.57 406.32,-223.27 453,-183 457.03,-179.52 461.56,-176.55 466.35,-174.01"/>
<polygon fill="#63b8ff" stroke="#63b8ff" points="372.59,-330.87 373.83,-341.39 379.42,-332.39 372.59,-330.87"/>
</a>
</g>
</g>
<!-- Node16 -->
<g id="Node000016" class="node">
<title>Node16</title>
<g id="a_Node000016"><a xlink:href="class_p4_1_1_p4_tools_1_1_compile_context.html" target="_top" xlink:title=" ">
<polygon fill="white" stroke="#666666" points="609,-126 453,-126 453,-96 609,-96 609,-126"/>
<text text-anchor="start" x="461" y="-114" font-family="Helvetica,sans-Serif" font-size="10.00">P4::P4Tools::CompileContext</text>
<text text-anchor="middle" x="531" y="-103" font-family="Helvetica,sans-Serif" font-size="10.00">&lt; P4ReachabilityOptions &gt;</text>
</a>
</g>
</g>
<!-- Node1&#45;&gt;Node16 -->
<g id="edge15_Node000001_Node000016" class="edge">
<title>Node1&#45;&gt;Node16</title>
<g id="a_edge15_Node000001_Node000016"><a xlink:title=" ">
<path fill="none" stroke="#63b8ff" d="M373.72,-331.06C378.45,-288.75 395.4,-189.42 453,-135 456.66,-131.54 460.82,-128.57 465.26,-126.04"/>
<polygon fill="#63b8ff" stroke="#63b8ff" points="370.22,-330.88 372.71,-341.18 377.19,-331.58 370.22,-330.88"/>
</a>
</g>
</g>
<!-- Node17 -->
<g id="Node000017" class="node">
<title>Node17</title>
<g id="a_Node000017"><a xlink:href="class_p4_1_1_p4_c_context_with_options.html" target="_top" xlink:title=" ">
<polygon fill="white" stroke="#666666" points="607,-78 455,-78 455,-48 607,-48 607,-78"/>
<text text-anchor="start" x="463" y="-66" font-family="Helvetica,sans-Serif" font-size="10.00">P4::P4CContextWithOptions</text>
<text text-anchor="middle" x="531" y="-55" font-family="Helvetica,sans-Serif" font-size="10.00">&lt; OptionsType &gt;</text>
</a>
</g>
</g>
<!-- Node1&#45;&gt;Node17 -->
<g id="edge16_Node000001_Node000017" class="edge">
<title>Node1&#45;&gt;Node17</title>
<g id="a_edge16_Node000001_Node000017"><a xlink:title=" ">
<path fill="none" stroke="#63b8ff" d="M372.12,-331.42C373.52,-282.97 383.95,-156.36 453,-87 456.46,-83.53 460.41,-80.55 464.65,-78.01"/>
<polygon fill="#63b8ff" stroke="#63b8ff" points="368.62,-331.44 371.94,-341.5 375.62,-331.57 368.62,-331.44"/>
</a>
</g>
</g>
<!-- Node18 -->
<g id="Node000018" class="node">
<title>Node18</title>
<g id="a_Node000018"><a xlink:href="class_p4_1_1_p4_tools_1_1_compile_context.html" target="_top" xlink:title="A compilation context for P4Tools that provides a custom compiler configuration.">
<polygon fill="white" stroke="#666666" points="609,-30 453,-30 453,0 609,0 609,-30"/>
<text text-anchor="start" x="461" y="-18" font-family="Helvetica,sans-Serif" font-size="10.00">P4::P4Tools::CompileContext</text>
<text text-anchor="middle" x="531" y="-7" font-family="Helvetica,sans-Serif" font-size="10.00">&lt; OptionsType &gt;</text>
</a>
</g>
</g>
<!-- Node1&#45;&gt;Node18 -->
<g id="edge17_Node000001_Node000018" class="edge">
<title>Node1&#45;&gt;Node18</title>
<g id="a_edge17_Node000001_Node000018"><a xlink:title=" ">
<path fill="none" stroke="#63b8ff" d="M374.58,-331.4C383.05,-269.89 411.84,-82.19 453,-39 456.28,-35.55 460.05,-32.6 464.12,-30.07"/>
<polygon fill="#63b8ff" stroke="#63b8ff" points="371.11,-330.98 373.24,-341.35 378.04,-331.91 371.11,-330.98"/>
</a>
</g>
</g>
<!-- Node2 -->
<g id="Node000002" class="node">
<title>Node2</title>
<g id="a_Node000002"><a xlink:href="class_p4_1_1_base_compile_context.html" target="_top" xlink:title=" ">
<polygon fill="white" stroke="#666666" points="289,-360.5 152,-360.5 152,-341.5 289,-341.5 289,-360.5"/>
<text text-anchor="middle" x="220.5" y="-348.5" font-family="Helvetica,sans-Serif" font-size="10.00">P4::BaseCompileContext</text>
</a>
</g>
</g>
<!-- Node2&#45;&gt;Node1 -->
<g id="edge1_Node000001_Node000002" class="edge">
<title>Node2&#45;&gt;Node1</title>
<g id="a_edge1_Node000001_Node000002"><a xlink:title=" ">
<path fill="none" stroke="#63b8ff" d="M299.46,-351C308.16,-351 316.8,-351 324.89,-351"/>
<polygon fill="#63b8ff" stroke="#63b8ff" points="299.23,-347.5 289.23,-351 299.23,-354.5 299.23,-347.5"/>
</a>
</g>
</g>
<!-- Node3 -->
<g id="Node000003" class="node">
<title>Node3</title>
<g id="a_Node000003"><a xlink:href="class_p4_1_1_i_compile_context.html" target="_top" xlink:title=" ">
<polygon fill="white" stroke="#666666" points="116,-360.5 0,-360.5 0,-341.5 116,-341.5 116,-360.5"/>
<text text-anchor="middle" x="58" y="-348.5" font-family="Helvetica,sans-Serif" font-size="10.00">P4::ICompileContext</text>
</a>
</g>
</g>
<!-- Node3&#45;&gt;Node2 -->
<g id="edge2_Node000002_Node000003" class="edge">
<title>Node3&#45;&gt;Node2</title>
<g id="a_edge2_Node000002_Node000003"><a xlink:title=" ">
<path fill="none" stroke="#63b8ff" d="M126.27,-351C134.76,-351 143.45,-351 151.94,-351"/>
<polygon fill="#63b8ff" stroke="#63b8ff" points="126.04,-347.5 116.04,-351 126.04,-354.5 126.04,-347.5"/>
</a>
</g>
</g>
</g>
</svg>
