<?xml version="1.0" encoding="UTF-8" standalone="no"?>
<!DOCTYPE svg PUBLIC "-//W3C//DTD SVG 1.1//EN"
 "http://www.w3.org/Graphics/SVG/1.1/DTD/svg11.dtd">
<!-- Generated by graphviz version 2.43.0 (0)
 -->
<!-- Title: P4::Util::Options Pages: 1 -->
<svg width="970pt" height="431pt"
 viewBox="0.00 0.00 970.00 431.00" xmlns="http://www.w3.org/2000/svg" xmlns:xlink="http://www.w3.org/1999/xlink">
<g id="graph0" class="graph" transform="scale(1 1) rotate(0) translate(4 427)">
<title>P4::Util::Options</title>
<!-- Node1 -->
<g id="Node000001" class="node">
<title>Node1</title>
<g id="a_Node000001"><a xlink:title=" ">
<polygon fill="#999999" stroke="#666666" points="95,-250 0,-250 0,-231 95,-231 95,-250"/>
<text text-anchor="middle" x="47.5" y="-238" font-family="Helvetica,sans-Serif" font-size="10.00">P4::Util::Options</text>
</a>
</g>
</g>
<!-- Node2 -->
<g id="Node000002" class="node">
<title>Node2</title>
<g id="a_Node000002"><a xlink:href="class_g_test_options.html" target="_top" xlink:title=" ">
<polygon fill="white" stroke="#bfbfbf" points="222.5,-269 141.5,-269 141.5,-250 222.5,-250 222.5,-269"/>
<text text-anchor="middle" x="182" y="-257" font-family="Helvetica,sans-Serif" font-size="10.00">GTestOptions</text>
</a>
</g>
</g>
<!-- Node1&#45;&gt;Node2 -->
<g id="edge1_Node000001_Node000002" class="edge">
<title>Node1&#45;&gt;Node2</title>
<g id="a_edge1_Node000001_Node000002"><a xlink:title=" ">
<path fill="none" stroke="#63b8ff" d="M105.27,-248.64C117.4,-250.38 129.96,-252.18 141.29,-253.81"/>
<polygon fill="#63b8ff" stroke="#63b8ff" points="105.61,-245.15 95.21,-247.2 104.62,-252.08 105.61,-245.15"/>
</a>
</g>
</g>
<!-- Node3 -->
<g id="Node000003" class="node">
<title>Node3</title>
<g id="a_Node000003"><a xlink:href="class_p4_1_1_parser_options.html" target="_top" xlink:title=" ">
<polygon fill="white" stroke="#666666" points="233,-232 131,-232 131,-213 233,-213 233,-232"/>
<text text-anchor="middle" x="182" y="-220" font-family="Helvetica,sans-Serif" font-size="10.00">P4::ParserOptions</text>
</a>
</g>
</g>
<!-- Node1&#45;&gt;Node3 -->
<g id="edge2_Node000001_Node000003" class="edge">
<title>Node1&#45;&gt;Node3</title>
<g id="a_edge2_Node000001_Node000003"><a xlink:title=" ">
<path fill="none" stroke="#63b8ff" d="M105.34,-232.78C113.76,-231.63 122.38,-230.46 130.66,-229.34"/>
<polygon fill="#63b8ff" stroke="#63b8ff" points="104.65,-229.34 95.21,-234.15 105.59,-236.28 104.65,-229.34"/>
</a>
</g>
</g>
<!-- Node4 -->
<g id="Node000004" class="node">
<title>Node4</title>
<g id="a_Node000004"><a xlink:href="class_p4_1_1_compiler_options.html" target="_top" xlink:title=" ">
<polygon fill="white" stroke="#bfbfbf" points="385,-232 269,-232 269,-213 385,-213 385,-232"/>
<text text-anchor="middle" x="327" y="-220" font-family="Helvetica,sans-Serif" font-size="10.00">P4::CompilerOptions</text>
</a>
</g>
</g>
<!-- Node3&#45;&gt;Node4 -->
<g id="edge3_Node000003_Node000004" class="edge">
<title>Node3&#45;&gt;Node4</title>
<g id="a_edge3_Node000003_Node000004"><a xlink:title=" ">
<path fill="none" stroke="#63b8ff" d="M243.25,-222.5C251.75,-222.5 260.47,-222.5 268.92,-222.5"/>
<polygon fill="#63b8ff" stroke="#63b8ff" points="243.01,-219 233.01,-222.5 243.01,-226 243.01,-219"/>
</a>
</g>
</g>
<!-- Node5 -->
<g id="Node000005" class="node">
<title>Node5</title>
<g id="a_Node000005"><a xlink:href="class_p4_1_1_apollo_1_1_apollo_options.html" target="_top" xlink:title=" ">
<polygon fill="white" stroke="#bfbfbf" points="561,-423 421,-423 421,-404 561,-404 561,-423"/>
<text text-anchor="middle" x="491" y="-411" font-family="Helvetica,sans-Serif" font-size="10.00">P4::Apollo::ApolloOptions</text>
</a>
</g>
</g>
<!-- Node4&#45;&gt;Node5 -->
<g id="edge4_Node000004_Node000005" class="edge">
<title>Node4&#45;&gt;Node5</title>
<g id="a_edge4_Node000004_Node000005"><a xlink:title=" ">
<path fill="none" stroke="#63b8ff" d="M332.86,-241.87C342.92,-277.85 369.5,-355 421,-395.5 425.38,-398.94 430.35,-401.73 435.57,-403.99"/>
<polygon fill="#63b8ff" stroke="#63b8ff" points="336.22,-240.88 330.26,-232.11 329.45,-242.68 336.22,-240.88"/>
</a>
</g>
</g>
<!-- Node8 -->
<g id="Node000008" class="node">
<title>Node8</title>
<g id="a_Node000008"><a xlink:href="class_p4_1_1_b_m_v2_1_1_b_m_v2_options.html" target="_top" xlink:title=" ">
<polygon fill="white" stroke="#bfbfbf" points="558.5,-386 423.5,-386 423.5,-367 558.5,-367 558.5,-386"/>
<text text-anchor="middle" x="491" y="-374" font-family="Helvetica,sans-Serif" font-size="10.00">P4::BMV2::BMV2Options</text>
</a>
</g>
</g>
<!-- Node4&#45;&gt;Node8 -->
<g id="edge7_Node000004_Node000008" class="edge">
<title>Node4&#45;&gt;Node8</title>
<g id="a_edge7_Node000004_Node000008"><a xlink:title=" ">
<path fill="none" stroke="#63b8ff" d="M335.66,-241.4C348.66,-271.04 377.89,-328.17 421,-358.5 425.86,-361.92 431.32,-364.69 436.99,-366.93"/>
<polygon fill="#63b8ff" stroke="#63b8ff" points="338.87,-240 331.74,-232.16 332.42,-242.73 338.87,-240"/>
</a>
</g>
</g>
<!-- Node13 -->
<g id="Node000013" class="node">
<title>Node13</title>
<g id="a_Node000013"><a xlink:href="class_p4_1_1_d_p_d_k_1_1_dpdk_options.html" target="_top" xlink:title=" ">
<polygon fill="white" stroke="#bfbfbf" points="556.5,-349 425.5,-349 425.5,-330 556.5,-330 556.5,-349"/>
<text text-anchor="middle" x="491" y="-337" font-family="Helvetica,sans-Serif" font-size="10.00">P4::DPDK::DpdkOptions</text>
</a>
</g>
</g>
<!-- Node4&#45;&gt;Node13 -->
<g id="edge12_Node000004_Node000013" class="edge">
<title>Node4&#45;&gt;Node13</title>
<g id="a_edge12_Node000004_Node000013"><a xlink:title=" ">
<path fill="none" stroke="#63b8ff" d="M339.89,-240.35C355.73,-262.72 385.89,-300.65 421,-321.5 426.75,-324.91 433.14,-327.69 439.65,-329.94"/>
<polygon fill="#63b8ff" stroke="#63b8ff" points="342.74,-238.31 334.18,-232.07 336.98,-242.29 342.74,-238.31"/>
</a>
</g>
</g>
<!-- Node14 -->
<g id="Node000014" class="node">
<title>Node14</title>
<g id="a_Node000014"><a xlink:href="class_p4_1_1_ebpf_options.html" target="_top" xlink:title=" ">
<polygon fill="white" stroke="#bfbfbf" points="538,-312 444,-312 444,-293 538,-293 538,-312"/>
<text text-anchor="middle" x="491" y="-300" font-family="Helvetica,sans-Serif" font-size="10.00">P4::EbpfOptions</text>
</a>
</g>
</g>
<!-- Node4&#45;&gt;Node14 -->
<g id="edge13_Node000004_Node000014" class="edge">
<title>Node4&#45;&gt;Node14</title>
<g id="a_edge13_Node000004_Node000014"><a xlink:title=" ">
<path fill="none" stroke="#63b8ff" d="M347.6,-238.41C365.68,-252.36 393.76,-272.28 421,-284.5 428.46,-287.84 436.65,-290.66 444.71,-293"/>
<polygon fill="#63b8ff" stroke="#63b8ff" points="349.6,-235.53 339.58,-232.1 345.27,-241.03 349.6,-235.53"/>
</a>
</g>
</g>
<!-- Node15 -->
<g id="Node000015" class="node">
<title>Node15</title>
<g id="a_Node000015"><a xlink:href="class_p4_1_1_p4_fmt_1_1_p4fmt_options.html" target="_top" xlink:title=" ">
<polygon fill="white" stroke="#bfbfbf" points="560.5,-275 421.5,-275 421.5,-256 560.5,-256 560.5,-275"/>
<text text-anchor="middle" x="491" y="-263" font-family="Helvetica,sans-Serif" font-size="10.00">P4::P4Fmt::P4fmtOptions</text>
</a>
</g>
</g>
<!-- Node4&#45;&gt;Node15 -->
<g id="edge14_Node000004_Node000015" class="edge">
<title>Node4&#45;&gt;Node15</title>
<g id="a_edge14_Node000004_Node000015"><a xlink:title=" ">
<path fill="none" stroke="#63b8ff" d="M373.76,-234.65C399.23,-241.41 430.47,-249.7 454.15,-255.98"/>
<polygon fill="#63b8ff" stroke="#63b8ff" points="374.52,-231.23 363.95,-232.04 372.72,-237.99 374.52,-231.23"/>
</a>
</g>
</g>
<!-- Node16 -->
<g id="Node000016" class="node">
<title>Node16</title>
<g id="a_Node000016"><a xlink:href="class_p4_1_1_p4_tools_1_1_abstract_p4c_tool_options.html" target="_top" xlink:title=" ">
<polygon fill="white" stroke="#666666" points="558.5,-237.5 423.5,-237.5 423.5,-207.5 558.5,-207.5 558.5,-237.5"/>
<text text-anchor="start" x="431.5" y="-225.5" font-family="Helvetica,sans-Serif" font-size="10.00">P4::P4Tools::AbstractP4c</text>
<text text-anchor="middle" x="491" y="-214.5" font-family="Helvetica,sans-Serif" font-size="10.00">ToolOptions</text>
</a>
</g>
</g>
<!-- Node4&#45;&gt;Node16 -->
<g id="edge15_Node000004_Node000016" class="edge">
<title>Node4&#45;&gt;Node16</title>
<g id="a_edge15_Node000004_Node000016"><a xlink:title=" ">
<path fill="none" stroke="#63b8ff" d="M395.14,-222.5C404.49,-222.5 414.09,-222.5 423.43,-222.5"/>
<polygon fill="#63b8ff" stroke="#63b8ff" points="395.12,-219 385.12,-222.5 395.12,-226 395.12,-219"/>
</a>
</g>
</g>
<!-- Node19 -->
<g id="Node000019" class="node">
<title>Node19</title>
<g id="a_Node000019"><a xlink:href="class_p4_1_1_p4_tools_1_1_test_1_1_p4_reachability_options.html" target="_top" xlink:title=" ">
<polygon fill="white" stroke="#bfbfbf" points="554.5,-189.5 427.5,-189.5 427.5,-159.5 554.5,-159.5 554.5,-189.5"/>
<text text-anchor="start" x="435.5" y="-177.5" font-family="Helvetica,sans-Serif" font-size="10.00">P4::P4Tools::Test::</text>
<text text-anchor="middle" x="491" y="-166.5" font-family="Helvetica,sans-Serif" font-size="10.00">P4ReachabilityOptions</text>
</a>
</g>
</g>
<!-- Node4&#45;&gt;Node19 -->
<g id="edge18_Node000004_Node000019" class="edge">
<title>Node4&#45;&gt;Node19</title>
<g id="a_edge18_Node000004_Node000019"><a xlink:title=" ">
<path fill="none" stroke="#63b8ff" d="M370.05,-210.04C391.17,-203.78 416.93,-196.15 439.16,-189.56"/>
<polygon fill="#63b8ff" stroke="#63b8ff" points="368.99,-206.71 360.39,-212.9 370.98,-213.42 368.99,-206.71"/>
</a>
</g>
</g>
<!-- Node20 -->
<g id="Node000020" class="node">
<title>Node20</title>
<g id="a_Node000020"><a xlink:href="class_p4_1_1_p4_tools_1_1_test_1_1_p4_test_options.html" target="_top" xlink:title=" ">
<polygon fill="white" stroke="#bfbfbf" points="542.5,-141.5 439.5,-141.5 439.5,-111.5 542.5,-111.5 542.5,-141.5"/>
<text text-anchor="start" x="447.5" y="-129.5" font-family="Helvetica,sans-Serif" font-size="10.00">P4::P4Tools::Test::</text>
<text text-anchor="middle" x="491" y="-118.5" font-family="Helvetica,sans-Serif" font-size="10.00">P4TestOptions</text>
</a>
</g>
</g>
<!-- Node4&#45;&gt;Node20 -->
<g id="edge19_Node000004_Node000020" class="edge">
<title>Node4&#45;&gt;Node20</title>
<g id="a_edge19_Node000004_Node000020"><a xlink:title=" ">
<path fill="none" stroke="#63b8ff" d="M345.94,-205.72C363.81,-189.74 392.62,-165.89 421,-150.5 427.13,-147.18 433.81,-144.17 440.53,-141.5"/>
<polygon fill="#63b8ff" stroke="#63b8ff" points="343.13,-203.55 338.09,-212.87 347.84,-208.72 343.13,-203.55"/>
</a>
</g>
</g>
<!-- Node21 -->
<g id="Node000021" class="node">
<title>Node21</title>
<g id="a_Node000021"><a xlink:href="class_p4_1_1_t_c_1_1_t_c_options.html" target="_top" xlink:title=" ">
<polygon fill="white" stroke="#bfbfbf" points="542,-93 440,-93 440,-74 542,-74 542,-93"/>
<text text-anchor="middle" x="491" y="-81" font-family="Helvetica,sans-Serif" font-size="10.00">P4::TC::TCOptions</text>
</a>
</g>
</g>
<!-- Node4&#45;&gt;Node21 -->
<g id="edge20_Node000004_Node000021" class="edge">
<title>Node4&#45;&gt;Node21</title>
<g id="a_edge20_Node000004_Node000021"><a xlink:title=" ">
<path fill="none" stroke="#63b8ff" d="M337.51,-203.64C351.91,-177.02 381.77,-128.77 421,-102.5 426.78,-98.63 433.34,-95.54 440.05,-93.08"/>
<polygon fill="#63b8ff" stroke="#63b8ff" points="334.31,-202.21 332.76,-212.69 340.51,-205.46 334.31,-202.21"/>
</a>
</g>
</g>
<!-- Node22 -->
<g id="Node000022" class="node">
<title>Node22</title>
<g id="a_Node000022"><a xlink:href="class_p4_1_1graphs_1_1_options.html" target="_top" xlink:title=" ">
<polygon fill="white" stroke="#bfbfbf" points="546.5,-56 435.5,-56 435.5,-37 546.5,-37 546.5,-56"/>
<text text-anchor="middle" x="491" y="-44" font-family="Helvetica,sans-Serif" font-size="10.00">P4::graphs::Options</text>
</a>
</g>
</g>
<!-- Node4&#45;&gt;Node22 -->
<g id="edge21_Node000004_Node000022" class="edge">
<title>Node4&#45;&gt;Node22</title>
<g id="a_edge21_Node000004_Node000022"><a xlink:title=" ">
<path fill="none" stroke="#63b8ff" d="M333.82,-203.41C345.04,-169.96 372.87,-100.86 421,-64.5 425.54,-61.07 430.68,-58.29 436.06,-56.04"/>
<polygon fill="#63b8ff" stroke="#63b8ff" points="330.49,-202.34 330.76,-212.93 337.16,-204.48 330.49,-202.34"/>
</a>
</g>
</g>
<!-- Node23 -->
<g id="Node000023" class="node">
<title>Node23</title>
<g id="a_Node000023"><a xlink:href="class_p4_test_options.html" target="_top" xlink:title=" ">
<polygon fill="white" stroke="#bfbfbf" points="534,-19 448,-19 448,0 534,0 534,-19"/>
<text text-anchor="middle" x="491" y="-7" font-family="Helvetica,sans-Serif" font-size="10.00">P4TestOptions</text>
</a>
</g>
</g>
<!-- Node4&#45;&gt;Node23 -->
<g id="edge22_Node000004_Node000023" class="edge">
<title>Node4&#45;&gt;Node23</title>
<g id="a_edge22_Node000004_Node000023"><a xlink:title=" ">
<path fill="none" stroke="#63b8ff" d="M331.7,-202.61C340.12,-163.02 364.56,-74.13 421,-27.5 428.64,-21.19 438.24,-17.07 447.83,-14.38"/>
<polygon fill="#63b8ff" stroke="#63b8ff" points="328.23,-202.11 329.69,-212.6 335.09,-203.49 328.23,-202.11"/>
</a>
</g>
</g>
<!-- Node6 -->
<g id="Node000006" class="node">
<title>Node6</title>
<g id="a_Node000006"><a xlink:href="class_p4_1_1_apollo_1_1_portable_options.html" target="_top" xlink:title=" ">
<polygon fill="white" stroke="#bfbfbf" points="758,-423 609,-423 609,-404 758,-404 758,-423"/>
<text text-anchor="middle" x="683.5" y="-411" font-family="Helvetica,sans-Serif" font-size="10.00">P4::Apollo::PortableOptions</text>
</a>
</g>
</g>
<!-- Node5&#45;&gt;Node6 -->
<g id="edge5_Node000005_Node000006" class="edge">
<title>Node5&#45;&gt;Node6</title>
<g id="a_edge5_Node000005_Node000006"><a xlink:title=" ">
<path fill="none" stroke="#63b8ff" d="M571.37,-413.5C583.79,-413.5 596.59,-413.5 608.87,-413.5"/>
<polygon fill="#63b8ff" stroke="#63b8ff" points="571.04,-410 561.04,-413.5 571.04,-417 571.04,-410"/>
</a>
</g>
</g>
<!-- Node7 -->
<g id="Node000007" class="node">
<title>Node7</title>
<g id="a_Node000007"><a xlink:href="class_p4_1_1_apollo_1_1_tuna_nic_options.html" target="_top" xlink:title=" ">
<polygon fill="white" stroke="#bfbfbf" points="957.5,-423 810.5,-423 810.5,-404 957.5,-404 957.5,-423"/>
<text text-anchor="middle" x="884" y="-411" font-family="Helvetica,sans-Serif" font-size="10.00">P4::Apollo::TunaNicOptions</text>
</a>
</g>
</g>
<!-- Node6&#45;&gt;Node7 -->
<g id="edge6_Node000006_Node000007" class="edge">
<title>Node6&#45;&gt;Node7</title>
<g id="a_edge6_Node000006_Node000007"><a xlink:title=" ">
<path fill="none" stroke="#63b8ff" d="M768.26,-413.5C782.3,-413.5 796.76,-413.5 810.48,-413.5"/>
<polygon fill="#63b8ff" stroke="#63b8ff" points="768.13,-410 758.13,-413.5 768.13,-417 768.13,-410"/>
</a>
</g>
</g>
<!-- Node9 -->
<g id="Node000009" class="node">
<title>Node9</title>
<g id="a_Node000009"><a xlink:href="class_p4_1_1_b_m_v2_1_1_portable_options.html" target="_top" xlink:title=" ">
<polygon fill="white" stroke="#bfbfbf" points="757,-386 610,-386 610,-367 757,-367 757,-386"/>
<text text-anchor="middle" x="683.5" y="-374" font-family="Helvetica,sans-Serif" font-size="10.00">P4::BMV2::PortableOptions</text>
</a>
</g>
</g>
<!-- Node8&#45;&gt;Node9 -->
<g id="edge8_Node000008_Node000009" class="edge">
<title>Node8&#45;&gt;Node9</title>
<g id="a_edge8_Node000008_Node000009"><a xlink:title=" ">
<path fill="none" stroke="#63b8ff" d="M568.83,-376.5C582.34,-376.5 596.35,-376.5 609.74,-376.5"/>
<polygon fill="#63b8ff" stroke="#63b8ff" points="568.63,-373 558.63,-376.5 568.63,-380 568.63,-373"/>
</a>
</g>
</g>
<!-- Node12 -->
<g id="Node000012" class="node">
<title>Node12</title>
<g id="a_Node000012"><a xlink:href="class_p4_1_1_b_m_v2_1_1_simple_switch_options.html" target="_top" xlink:title=" ">
<polygon fill="white" stroke="#bfbfbf" points="770,-349 597,-349 597,-330 770,-330 770,-349"/>
<text text-anchor="middle" x="683.5" y="-337" font-family="Helvetica,sans-Serif" font-size="10.00">P4::BMV2::SimpleSwitchOptions</text>
</a>
</g>
</g>
<!-- Node8&#45;&gt;Node12 -->
<g id="edge11_Node000008_Node000012" class="edge">
<title>Node8&#45;&gt;Node12</title>
<g id="a_edge11_Node000008_Node000012"><a xlink:title=" ">
<path fill="none" stroke="#63b8ff" d="M550.94,-365.05C577.35,-359.92 608.13,-353.94 633.28,-349.06"/>
<polygon fill="#63b8ff" stroke="#63b8ff" points="550.21,-361.63 541.06,-366.97 551.54,-368.5 550.21,-361.63"/>
</a>
</g>
</g>
<!-- Node10 -->
<g id="Node000010" class="node">
<title>Node10</title>
<g id="a_Node000010"><a xlink:href="class_p4_1_1_b_m_v2_1_1_pna_nic_options.html" target="_top" xlink:title=" ">
<polygon fill="white" stroke="#bfbfbf" points="954,-386 814,-386 814,-367 954,-367 954,-386"/>
<text text-anchor="middle" x="884" y="-374" font-family="Helvetica,sans-Serif" font-size="10.00">P4::BMV2::PnaNicOptions</text>
</a>
</g>
</g>
<!-- Node9&#45;&gt;Node10 -->
<g id="edge9_Node000009_Node000010" class="edge">
<title>Node9&#45;&gt;Node10</title>
<g id="a_edge9_Node000009_Node000010"><a xlink:title=" ">
<path fill="none" stroke="#63b8ff" d="M767.15,-376.5C782.74,-376.5 798.88,-376.5 814,-376.5"/>
<polygon fill="#63b8ff" stroke="#63b8ff" points="767.01,-373 757.01,-376.5 767.01,-380 767.01,-373"/>
</a>
</g>
</g>
<!-- Node11 -->
<g id="Node000011" class="node">
<title>Node11</title>
<g id="a_Node000011"><a xlink:href="class_p4_1_1_b_m_v2_1_1_psa_switch_options.html" target="_top" xlink:title=" ">
<polygon fill="white" stroke="#bfbfbf" points="962,-349 806,-349 806,-330 962,-330 962,-349"/>
<text text-anchor="middle" x="884" y="-337" font-family="Helvetica,sans-Serif" font-size="10.00">P4::BMV2::PsaSwitchOptions</text>
</a>
</g>
</g>
<!-- Node9&#45;&gt;Node11 -->
<g id="edge10_Node000009_Node000011" class="edge">
<title>Node9&#45;&gt;Node11</title>
<g id="a_edge10_Node000009_Node000011"><a xlink:title=" ">
<path fill="none" stroke="#63b8ff" d="M745.56,-365.12C773.15,-359.98 805.39,-353.97 831.71,-349.06"/>
<polygon fill="#63b8ff" stroke="#63b8ff" points="744.81,-361.7 735.62,-366.97 746.09,-368.58 744.81,-361.7"/>
</a>
</g>
</g>
<!-- Node17 -->
<g id="Node000017" class="node">
<title>Node17</title>
<g id="a_Node000017"><a xlink:href="class_p4_1_1_p4_tools_1_1_p4_testgen_1_1_testgen_options.html" target="_top" xlink:title="Encapsulates and processes command&#45;line options for P4Testgen.">
<polygon fill="white" stroke="#666666" points="747,-258.5 620,-258.5 620,-228.5 747,-228.5 747,-258.5"/>
<text text-anchor="start" x="628" y="-246.5" font-family="Helvetica,sans-Serif" font-size="10.00">P4::P4Tools::P4Testgen</text>
<text text-anchor="middle" x="683.5" y="-235.5" font-family="Helvetica,sans-Serif" font-size="10.00">::TestgenOptions</text>
</a>
</g>
</g>
<!-- Node16&#45;&gt;Node17 -->
<g id="edge16_Node000016_Node000017" class="edge">
<title>Node16&#45;&gt;Node17</title>
<g id="a_edge16_Node000016_Node000017"><a xlink:title=" ">
<path fill="none" stroke="#63b8ff" d="M569,-230.99C585.87,-232.85 603.52,-234.79 619.75,-236.58"/>
<polygon fill="#63b8ff" stroke="#63b8ff" points="568.95,-227.46 558.63,-229.84 568.18,-234.42 568.95,-227.46"/>
</a>
</g>
</g>
<!-- Node18 -->
<g id="Node000018" class="node">
<title>Node18</title>
<g id="a_Node000018"><a xlink:href="class_p4_1_1_p4_tools_1_1_smith_options.html" target="_top" xlink:title=" ">
<polygon fill="white" stroke="#bfbfbf" points="755,-210 612,-210 612,-191 755,-191 755,-210"/>
<text text-anchor="middle" x="683.5" y="-198" font-family="Helvetica,sans-Serif" font-size="10.00">P4::P4Tools::SmithOptions</text>
</a>
</g>
</g>
<!-- Node16&#45;&gt;Node18 -->
<g id="edge17_Node000016_Node000018" class="edge">
<title>Node16&#45;&gt;Node18</title>
<g id="a_edge17_Node000016_Node000018"><a xlink:title=" ">
<path fill="none" stroke="#63b8ff" d="M568.82,-213.63C582.99,-211.99 597.72,-210.29 611.7,-208.68"/>
<polygon fill="#63b8ff" stroke="#63b8ff" points="568.16,-210.18 558.63,-214.81 568.96,-217.14 568.16,-210.18"/>
</a>
</g>
</g>
</g>
</svg>
