<?xml version="1.0" encoding="UTF-8" standalone="no"?>
<!DOCTYPE svg PUBLIC "-//W3C//DTD SVG 1.1//EN"
 "http://www.w3.org/Graphics/SVG/1.1/DTD/svg11.dtd">
<!-- Generated by graphviz version 2.43.0 (0)
 -->
<!-- Title: Graphical Class Hierarchy Pages: 1 -->
<svg width="383pt" height="397pt"
 viewBox="0.00 0.00 383.00 397.00" xmlns="http://www.w3.org/2000/svg" xmlns:xlink="http://www.w3.org/1999/xlink">
<g id="graph0" class="graph" transform="scale(1 1) rotate(0) translate(4 393)">
<title>Graphical Class Hierarchy</title>
<!-- Node0 -->
<g id="Node000000" class="node">
<title>Node0</title>
<g id="a_Node000000"><a xlink:href="class_p4_1_1_choose_enum_representation.html" target="_top" xlink:title=" ">
<polygon fill="white" stroke="#666666" points="173,-204 0,-204 0,-185 173,-185 173,-204"/>
<text text-anchor="middle" x="86.5" y="-192" font-family="Helvetica,sans-Serif" font-size="10.00">P4::ChooseEnumRepresentation</text>
</a>
</g>
</g>
<!-- Node1 -->
<g id="Node000001" class="node">
<title>Node1</title>
<g id="a_Node000001"><a xlink:href="group__midend.html#class_b_f_n_1_1_enum_on32_bits" target="_top" xlink:title="Class that implements a policy suitable for the ConvertEnums pass.">
<polygon fill="white" stroke="#666666" points="349.5,-389 234.5,-389 234.5,-370 349.5,-370 349.5,-389"/>
<text text-anchor="middle" x="292" y="-377" font-family="Helvetica,sans-Serif" font-size="10.00">BFN::EnumOn32Bits</text>
</a>
</g>
</g>
<!-- Node0&#45;&gt;Node1 -->
<g id="edge2344_Node000000_Node000001" class="edge">
<title>Node0&#45;&gt;Node1</title>
<g id="a_edge2344_Node000000_Node000001"><a xlink:title=" ">
<path fill="none" stroke="#63b8ff" d="M95.67,-213.51C111.83,-248.7 151.37,-323.83 209,-361.5 216.56,-366.44 225.27,-370.05 234.13,-372.67"/>
<polygon fill="#63b8ff" stroke="#63b8ff" points="98.84,-212.03 91.57,-204.33 92.45,-214.89 98.84,-212.03"/>
</a>
</g>
</g>
<!-- Node2 -->
<g id="Node000002" class="node">
<title>Node2</title>
<g id="a_Node000002"><a xlink:href="group___portable_switch_translation.html#class_b_f_n_1_1_p_s_a_1_1_packet_path_to8_bits" target="_top" xlink:title=" ">
<polygon fill="white" stroke="#666666" points="370,-352 214,-352 214,-333 370,-333 370,-352"/>
<text text-anchor="middle" x="292" y="-340" font-family="Helvetica,sans-Serif" font-size="10.00">BFN::PSA::PacketPathTo8Bits</text>
</a>
</g>
</g>
<!-- Node0&#45;&gt;Node2 -->
<g id="edge2345_Node000000_Node000002" class="edge">
<title>Node0&#45;&gt;Node2</title>
<g id="a_edge2345_Node000000_Node000002"><a xlink:title=" ">
<path fill="none" stroke="#63b8ff" d="M99.15,-212.81C118.37,-241.41 159.56,-296.35 209,-324.5 214.95,-327.89 221.48,-330.64 228.18,-332.88"/>
<polygon fill="#63b8ff" stroke="#63b8ff" points="101.91,-210.63 93.49,-204.19 96.05,-214.47 101.91,-210.63"/>
</a>
</g>
</g>
<!-- Node3 -->
<g id="Node000003" class="node">
<title>Node3</title>
<g id="a_Node000003"><a xlink:href="class_p4_1_1_apollo_1_1_enum_on32_bits.html" target="_top" xlink:title=" ">
<polygon fill="white" stroke="#666666" points="363.5,-315 220.5,-315 220.5,-296 363.5,-296 363.5,-315"/>
<text text-anchor="middle" x="292" y="-303" font-family="Helvetica,sans-Serif" font-size="10.00">P4::Apollo::EnumOn32Bits</text>
</a>
</g>
</g>
<!-- Node0&#45;&gt;Node3 -->
<g id="edge2346_Node000000_Node000003" class="edge">
<title>Node0&#45;&gt;Node3</title>
<g id="a_edge2346_Node000000_Node000003"><a xlink:title=" ">
<path fill="none" stroke="#63b8ff" d="M104.13,-211.14C126.17,-232.2 167.16,-268.07 209,-287.5 216.27,-290.88 224.2,-293.63 232.18,-295.88"/>
<polygon fill="#63b8ff" stroke="#63b8ff" points="106.51,-208.57 96.91,-204.11 101.63,-213.59 106.51,-208.57"/>
</a>
</g>
</g>
<!-- Node4 -->
<g id="Node000004" class="node">
<title>Node4</title>
<g id="a_Node000004"><a xlink:href="class_p4_1_1_apollo_1_1_tuna_enum_on32_bits.html" target="_top" xlink:title=" ">
<polygon fill="white" stroke="#666666" points="375,-278 209,-278 209,-259 375,-259 375,-278"/>
<text text-anchor="middle" x="292" y="-266" font-family="Helvetica,sans-Serif" font-size="10.00">P4::Apollo::TunaEnumOn32Bits</text>
</a>
</g>
</g>
<!-- Node0&#45;&gt;Node4 -->
<g id="edge2347_Node000000_Node000004" class="edge">
<title>Node0&#45;&gt;Node4</title>
<g id="a_edge2347_Node000000_Node000004"><a xlink:title=" ">
<path fill="none" stroke="#63b8ff" d="M114.03,-208.76C138.2,-221.25 175.18,-239.14 209,-250.5 218.67,-253.75 229.19,-256.57 239.36,-258.95"/>
<polygon fill="#63b8ff" stroke="#63b8ff" points="115.6,-205.63 105.12,-204.1 112.36,-211.83 115.6,-205.63"/>
</a>
</g>
</g>
<!-- Node5 -->
<g id="Node000005" class="node">
<title>Node5</title>
<g id="a_Node000005"><a xlink:href="class_p4_1_1_b_m_v2_1_1_enum_on32_bits.html" target="_top" xlink:title=" ">
<polygon fill="white" stroke="#666666" points="362.5,-241 221.5,-241 221.5,-222 362.5,-222 362.5,-241"/>
<text text-anchor="middle" x="292" y="-229" font-family="Helvetica,sans-Serif" font-size="10.00">P4::BMV2::EnumOn32Bits</text>
</a>
</g>
</g>
<!-- Node0&#45;&gt;Node5 -->
<g id="edge2348_Node000000_Node000005" class="edge">
<title>Node0&#45;&gt;Node5</title>
<g id="a_edge2348_Node000000_Node000005"><a xlink:title=" ">
<path fill="none" stroke="#63b8ff" d="M150.09,-205.88C178.38,-211.02 211.44,-217.03 238.42,-221.94"/>
<polygon fill="#63b8ff" stroke="#63b8ff" points="150.37,-202.37 139.91,-204.03 149.12,-209.26 150.37,-202.37"/>
</a>
</g>
</g>
<!-- Node6 -->
<g id="Node000006" class="node">
<title>Node6</title>
<g id="a_Node000006"><a xlink:href="class_p4_1_1_b_m_v2_1_1_pna_enum_on32_bits.html" target="_top" xlink:title=" ">
<polygon fill="white" stroke="#666666" points="371.5,-204 212.5,-204 212.5,-185 371.5,-185 371.5,-204"/>
<text text-anchor="middle" x="292" y="-192" font-family="Helvetica,sans-Serif" font-size="10.00">P4::BMV2::PnaEnumOn32Bits</text>
</a>
</g>
</g>
<!-- Node0&#45;&gt;Node6 -->
<g id="edge2349_Node000000_Node000006" class="edge">
<title>Node0&#45;&gt;Node6</title>
<g id="a_edge2349_Node000000_Node000006"><a xlink:title=" ">
<path fill="none" stroke="#63b8ff" d="M183.27,-194.5C192.95,-194.5 202.71,-194.5 212.19,-194.5"/>
<polygon fill="#63b8ff" stroke="#63b8ff" points="183.21,-191 173.21,-194.5 183.21,-198 183.21,-191"/>
</a>
</g>
</g>
<!-- Node7 -->
<g id="Node000007" class="node">
<title>Node7</title>
<g id="a_Node000007"><a xlink:href="class_p4_1_1_b_m_v2_1_1_psa_enum_on32_bits.html" target="_top" xlink:title=" ">
<polygon fill="white" stroke="#666666" points="371,-167 213,-167 213,-148 371,-148 371,-167"/>
<text text-anchor="middle" x="292" y="-155" font-family="Helvetica,sans-Serif" font-size="10.00">P4::BMV2::PsaEnumOn32Bits</text>
</a>
</g>
</g>
<!-- Node0&#45;&gt;Node7 -->
<g id="edge2350_Node000000_Node000007" class="edge">
<title>Node0&#45;&gt;Node7</title>
<g id="a_edge2350_Node000000_Node000007"><a xlink:title=" ">
<path fill="none" stroke="#63b8ff" d="M150.09,-183.12C178.38,-177.98 211.44,-171.97 238.42,-167.06"/>
<polygon fill="#63b8ff" stroke="#63b8ff" points="149.12,-179.74 139.91,-184.97 150.37,-186.63 149.12,-179.74"/>
</a>
</g>
</g>
<!-- Node8 -->
<g id="Node000008" class="node">
<title>Node8</title>
<g id="a_Node000008"><a xlink:href="class_p4_1_1_d_p_d_k_1_1_enum_on32_bits.html" target="_top" xlink:title=" ">
<polygon fill="white" stroke="#666666" points="362,-130 222,-130 222,-111 362,-111 362,-130"/>
<text text-anchor="middle" x="292" y="-118" font-family="Helvetica,sans-Serif" font-size="10.00">P4::DPDK::EnumOn32Bits</text>
</a>
</g>
</g>
<!-- Node0&#45;&gt;Node8 -->
<g id="edge2351_Node000000_Node000008" class="edge">
<title>Node0&#45;&gt;Node8</title>
<g id="a_edge2351_Node000000_Node000008"><a xlink:title=" ">
<path fill="none" stroke="#63b8ff" d="M114.51,-180.4C138.73,-168.22 175.5,-150.84 209,-139.5 219.66,-135.89 231.32,-132.74 242.43,-130.09"/>
<polygon fill="#63b8ff" stroke="#63b8ff" points="112.89,-177.3 105.57,-184.95 116.07,-183.54 112.89,-177.3"/>
</a>
</g>
</g>
<!-- Node9 -->
<g id="Node000009" class="node">
<title>Node9</title>
<g id="a_Node000009"><a xlink:href="class_p4_1_1_e_b_p_f_1_1_enum_on32_bits.html" target="_top" xlink:title=" ">
<polygon fill="white" stroke="#666666" points="360.5,-93 223.5,-93 223.5,-74 360.5,-74 360.5,-93"/>
<text text-anchor="middle" x="292" y="-81" font-family="Helvetica,sans-Serif" font-size="10.00">P4::EBPF::EnumOn32Bits</text>
</a>
</g>
</g>
<!-- Node0&#45;&gt;Node9 -->
<g id="edge2352_Node000000_Node000009" class="edge">
<title>Node0&#45;&gt;Node9</title>
<g id="a_edge2352_Node000000_Node000009"><a xlink:title=" ">
<path fill="none" stroke="#63b8ff" d="M104.55,-177.8C126.74,-157.01 167.6,-121.88 209,-102.5 217.21,-98.66 226.25,-95.56 235.24,-93.08"/>
<polygon fill="#63b8ff" stroke="#63b8ff" points="102.07,-175.32 97.25,-184.76 106.9,-180.39 102.07,-175.32"/>
</a>
</g>
</g>
<!-- Node10 -->
<g id="Node000010" class="node">
<title>Node10</title>
<g id="a_Node000010"><a xlink:href="class_p4_1_1_enum_on32_bits.html" target="_top" xlink:title=" ">
<polygon fill="white" stroke="#666666" points="345.5,-56 238.5,-56 238.5,-37 345.5,-37 345.5,-56"/>
<text text-anchor="middle" x="292" y="-44" font-family="Helvetica,sans-Serif" font-size="10.00">P4::EnumOn32Bits</text>
</a>
</g>
</g>
<!-- Node0&#45;&gt;Node10 -->
<g id="edge2353_Node000000_Node000010" class="edge">
<title>Node0&#45;&gt;Node10</title>
<g id="a_edge2353_Node000000_Node000010"><a xlink:title=" ">
<path fill="none" stroke="#63b8ff" d="M99.22,-176.4C118.54,-148.11 159.87,-93.73 209,-65.5 217.87,-60.4 228.02,-56.67 238.09,-53.94"/>
<polygon fill="#63b8ff" stroke="#63b8ff" points="96.18,-174.66 93.53,-184.92 102,-178.55 96.18,-174.66"/>
</a>
</g>
</g>
<!-- Node11 -->
<g id="Node000011" class="node">
<title>Node11</title>
<g id="a_Node000011"><a xlink:href="class_p4_1_1_u_b_p_f_1_1_enum_on32_bits.html" target="_top" xlink:title=" ">
<polygon fill="white" stroke="#666666" points="361,-19 223,-19 223,0 361,0 361,-19"/>
<text text-anchor="middle" x="292" y="-7" font-family="Helvetica,sans-Serif" font-size="10.00">P4::UBPF::EnumOn32Bits</text>
</a>
</g>
</g>
<!-- Node0&#45;&gt;Node11 -->
<g id="edge2354_Node000000_Node000011" class="edge">
<title>Node0&#45;&gt;Node11</title>
<g id="a_edge2354_Node000000_Node000011"><a xlink:title=" ">
<path fill="none" stroke="#63b8ff" d="M95.95,-175.22C112.36,-140.15 152,-66.12 209,-28.5 214.85,-24.64 221.4,-21.55 228.16,-19.09"/>
<polygon fill="#63b8ff" stroke="#63b8ff" points="92.57,-174.21 91.61,-184.76 98.94,-177.11 92.57,-174.21"/>
</a>
</g>
</g>
</g>
</svg>
