<?xml version="1.0" encoding="UTF-8" standalone="no"?>
<!DOCTYPE svg PUBLIC "-//W3C//DTD SVG 1.1//EN"
 "http://www.w3.org/Graphics/SVG/1.1/DTD/svg11.dtd">
<!-- Generated by graphviz version 2.43.0 (0)
 -->
<!-- Title: Graphical Class Hierarchy Pages: 1 -->
<svg width="370pt" height="101pt"
 viewBox="0.00 0.00 370.00 101.00" xmlns="http://www.w3.org/2000/svg" xmlns:xlink="http://www.w3.org/1999/xlink">
<g id="graph0" class="graph" transform="scale(1 1) rotate(0) translate(4 97)">
<title>Graphical Class Hierarchy</title>
<!-- Node0 -->
<g id="Node000000" class="node">
<title>Node0</title>
<g id="a_Node000000"><a xlink:href="class_p4_1_1_remove_complex_expressions_policy.html" target="_top" xlink:title=" ">
<polygon fill="white" stroke="#666666" points="177,-61.5 0,-61.5 0,-31.5 177,-31.5 177,-61.5"/>
<text text-anchor="start" x="8" y="-49.5" font-family="Helvetica,sans-Serif" font-size="10.00">P4::RemoveComplexExpressions</text>
<text text-anchor="middle" x="88.5" y="-38.5" font-family="Helvetica,sans-Serif" font-size="10.00">Policy</text>
</a>
</g>
</g>
<!-- Node1 -->
<g id="Node000001" class="node">
<title>Node1</title>
<g id="a_Node000001"><a xlink:href="class_p4_1_1_apollo_1_1_process_controls.html" target="_top" xlink:title=" ">
<polygon fill="white" stroke="#666666" points="362,-93 213,-93 213,-74 362,-74 362,-93"/>
<text text-anchor="middle" x="287.5" y="-81" font-family="Helvetica,sans-Serif" font-size="10.00">P4::Apollo::ProcessControls</text>
</a>
</g>
</g>
<!-- Node0&#45;&gt;Node1 -->
<g id="edge2598_Node000000_Node000001" class="edge">
<title>Node0&#45;&gt;Node1</title>
<g id="a_edge2598_Node000000_Node000001"><a xlink:title=" ">
<path fill="none" stroke="#63b8ff" d="M179.66,-63.43C198.95,-67.06 218.67,-70.76 235.83,-73.98"/>
<polygon fill="#63b8ff" stroke="#63b8ff" points="180.1,-59.96 169.63,-61.55 178.81,-66.84 180.1,-59.96"/>
</a>
</g>
</g>
<!-- Node2 -->
<g id="Node000002" class="node">
<title>Node2</title>
<g id="a_Node000002"><a xlink:href="class_p4_1_1_b_m_v2_1_1_process_controls.html" target="_top" xlink:title=" ">
<polygon fill="white" stroke="#666666" points="361,-56 214,-56 214,-37 361,-37 361,-56"/>
<text text-anchor="middle" x="287.5" y="-44" font-family="Helvetica,sans-Serif" font-size="10.00">P4::BMV2::ProcessControls</text>
</a>
</g>
</g>
<!-- Node0&#45;&gt;Node2 -->
<g id="edge2599_Node000000_Node000002" class="edge">
<title>Node0&#45;&gt;Node2</title>
<g id="a_edge2599_Node000000_Node000002"><a xlink:title=" ">
<path fill="none" stroke="#63b8ff" d="M187.21,-46.5C196.21,-46.5 205.23,-46.5 213.96,-46.5"/>
<polygon fill="#63b8ff" stroke="#63b8ff" points="187.05,-43 177.05,-46.5 187.05,-50 187.05,-43"/>
</a>
</g>
</g>
<!-- Node3 -->
<g id="Node000003" class="node">
<title>Node3</title>
<g id="a_Node000003"><a xlink:href="class_p4_1_1_d_p_d_k_1_1_process_controls.html" target="_top" xlink:title="Only simplify complex expression in ingress/egress.">
<polygon fill="white" stroke="#666666" points="360.5,-19 214.5,-19 214.5,0 360.5,0 360.5,-19"/>
<text text-anchor="middle" x="287.5" y="-7" font-family="Helvetica,sans-Serif" font-size="10.00">P4::DPDK::ProcessControls</text>
</a>
</g>
</g>
<!-- Node0&#45;&gt;Node3 -->
<g id="edge2600_Node000000_Node000003" class="edge">
<title>Node0&#45;&gt;Node3</title>
<g id="a_edge2600_Node000000_Node000003"><a xlink:title=" ">
<path fill="none" stroke="#63b8ff" d="M179.66,-29.57C198.95,-25.94 218.67,-22.24 235.83,-19.02"/>
<polygon fill="#63b8ff" stroke="#63b8ff" points="178.81,-26.16 169.63,-31.45 180.1,-33.04 178.81,-26.16"/>
</a>
</g>
</g>
</g>
</svg>
