<?xml version="1.0" encoding="UTF-8" standalone="no"?>
<!DOCTYPE svg PUBLIC "-//W3C//DTD SVG 1.1//EN"
 "http://www.w3.org/Graphics/SVG/1.1/DTD/svg11.dtd">
<!-- Generated by graphviz version 2.43.0 (0)
 -->
<!-- Title: Graphical Class Hierarchy Pages: 1 -->
<svg width="336pt" height="138pt"
 viewBox="0.00 0.00 336.00 138.00" xmlns="http://www.w3.org/2000/svg" xmlns:xlink="http://www.w3.org/1999/xlink">
<g id="graph0" class="graph" transform="scale(1 1) rotate(0) translate(4 134)">
<title>Graphical Class Hierarchy</title>
<!-- Node0 -->
<g id="Node000000" class="node">
<title>Node0</title>
<g id="a_Node000000"><a xlink:href="class_p4_1_1_action_synthesis_policy.html" target="_top" xlink:title=" ">
<polygon fill="white" stroke="#666666" points="142,-74 0,-74 0,-55 142,-55 142,-74"/>
<text text-anchor="middle" x="71" y="-62" font-family="Helvetica,sans-Serif" font-size="10.00">P4::ActionSynthesisPolicy</text>
</a>
</g>
</g>
<!-- Node1 -->
<g id="Node000001" class="node">
<title>Node1</title>
<g id="a_Node000001"><a xlink:href="class_b_f_n_1_1_action_synthesis_policy.html" target="_top" xlink:title=" ">
<polygon fill="white" stroke="#666666" points="328,-130 178,-130 178,-111 328,-111 328,-130"/>
<text text-anchor="middle" x="253" y="-118" font-family="Helvetica,sans-Serif" font-size="10.00">BFN::ActionSynthesisPolicy</text>
</a>
</g>
</g>
<!-- Node0&#45;&gt;Node1 -->
<g id="edge2307_Node000000_Node000001" class="edge">
<title>Node0&#45;&gt;Node1</title>
<g id="a_edge2307_Node000000_Node000001"><a xlink:title=" ">
<path fill="none" stroke="#63b8ff" d="M106.18,-77.79C126.8,-85.55 153.7,-95.21 178,-102.5 188.13,-105.54 199.16,-108.44 209.53,-110.98"/>
<polygon fill="#63b8ff" stroke="#63b8ff" points="107.19,-74.43 96.6,-74.15 104.71,-80.97 107.19,-74.43"/>
</a>
</g>
</g>
<!-- Node2 -->
<g id="Node000002" class="node">
<title>Node2</title>
<g id="a_Node000002"><a xlink:href="class_p4_1_1_apollo_1_1_skip_controls.html" target="_top" xlink:title="This class implements a policy suitable for the SynthesizeActions pass.">
<polygon fill="white" stroke="#666666" points="319.5,-93 186.5,-93 186.5,-74 319.5,-74 319.5,-93"/>
<text text-anchor="middle" x="253" y="-81" font-family="Helvetica,sans-Serif" font-size="10.00">P4::Apollo::SkipControls</text>
</a>
</g>
</g>
<!-- Node0&#45;&gt;Node2 -->
<g id="edge2308_Node000000_Node000002" class="edge">
<title>Node0&#45;&gt;Node2</title>
<g id="a_edge2308_Node000000_Node000002"><a xlink:title=" ">
<path fill="none" stroke="#63b8ff" d="M152.13,-72.96C163.62,-74.17 175.33,-75.41 186.5,-76.59"/>
<polygon fill="#63b8ff" stroke="#63b8ff" points="152.42,-69.47 142.11,-71.9 151.69,-76.43 152.42,-69.47"/>
</a>
</g>
</g>
<!-- Node3 -->
<g id="Node000003" class="node">
<title>Node3</title>
<g id="a_Node000003"><a xlink:href="class_p4_1_1_b_m_v2_1_1_skip_controls.html" target="_top" xlink:title="This class implements a policy suitable for the SynthesizeActions pass.">
<polygon fill="white" stroke="#666666" points="318.5,-56 187.5,-56 187.5,-37 318.5,-37 318.5,-56"/>
<text text-anchor="middle" x="253" y="-44" font-family="Helvetica,sans-Serif" font-size="10.00">P4::BMV2::SkipControls</text>
</a>
</g>
</g>
<!-- Node0&#45;&gt;Node3 -->
<g id="edge2309_Node000000_Node000003" class="edge">
<title>Node0&#45;&gt;Node3</title>
<g id="a_edge2309_Node000000_Node000003"><a xlink:title=" ">
<path fill="none" stroke="#63b8ff" d="M152.34,-56.47C164.06,-55.29 176.01,-54.1 187.38,-52.96"/>
<polygon fill="#63b8ff" stroke="#63b8ff" points="151.71,-53.01 142.11,-57.49 152.41,-59.98 151.71,-53.01"/>
</a>
</g>
</g>
<!-- Node4 -->
<g id="Node000004" class="node">
<title>Node4</title>
<g id="a_Node000004"><a xlink:href="class_p4_1_1_p4_test_1_1_skip_controls.html" target="_top" xlink:title=" ">
<polygon fill="white" stroke="#666666" points="320,-19 186,-19 186,0 320,0 320,-19"/>
<text text-anchor="middle" x="253" y="-7" font-family="Helvetica,sans-Serif" font-size="10.00">P4::P4Test::SkipControls</text>
</a>
</g>
</g>
<!-- Node0&#45;&gt;Node4 -->
<g id="edge2310_Node000000_Node000004" class="edge">
<title>Node0&#45;&gt;Node4</title>
<g id="a_edge2310_Node000000_Node000004"><a xlink:title=" ">
<path fill="none" stroke="#63b8ff" d="M107.93,-51.54C128.35,-44.36 154.47,-35.51 178,-28.5 189.19,-25.17 201.43,-21.88 212.67,-19.01"/>
<polygon fill="#63b8ff" stroke="#63b8ff" points="106.65,-48.28 98.39,-54.91 108.99,-54.88 106.65,-48.28"/>
</a>
</g>
</g>
</g>
</svg>
