<?xml version="1.0" encoding="UTF-8" standalone="no"?>
<!DOCTYPE svg PUBLIC "-//W3C//DTD SVG 1.1//EN"
 "http://www.w3.org/Graphics/SVG/1.1/DTD/svg11.dtd">
<!-- Generated by graphviz version 2.43.0 (0)
 -->
<!-- Title: P4::Apollo::Standard::ActionProfileTraits&lt; Arch::PSA &gt; Pages: 1 -->
<svg width="433pt" height="108pt"
 viewBox="0.00 0.00 433.00 108.00" xmlns="http://www.w3.org/2000/svg" xmlns:xlink="http://www.w3.org/1999/xlink">
<g id="graph0" class="graph" transform="scale(1 1) rotate(0) translate(4 104)">
<title>P4::Apollo::Standard::ActionProfileTraits&lt; Arch::PSA &gt;</title>
<!-- Node1 -->
<g id="Node000001" class="node">
<title>Node1</title>
<g id="a_Node000001"><a xlink:title=" ">
<polygon fill="#999999" stroke="#666666" points="115,-70 0,-70 0,-29 115,-29 115,-70"/>
<text text-anchor="start" x="8" y="-58" font-family="Helvetica,sans-Serif" font-size="10.00">P4::Apollo::Standard</text>
<text text-anchor="start" x="8" y="-47" font-family="Helvetica,sans-Serif" font-size="10.00">::ActionProfileTraits</text>
<text text-anchor="middle" x="57.5" y="-36" font-family="Helvetica,sans-Serif" font-size="10.00">&lt; Arch::PSA &gt;</text>
</a>
</g>
</g>
<!-- Node2 -->
<g id="Node000002" class="node">
<title>Node2</title>
<g id="a_Node000002"><a xlink:href="struct_p4_1_1_apollo_1_1_standard_1_1_action_profile_traits_3_01_arch_1_1_p_n_a_01_4.html" target="_top" xlink:title=" ">
<polygon fill="white" stroke="#bfbfbf" points="268,-100 153,-100 153,-59 268,-59 268,-100"/>
<text text-anchor="start" x="161" y="-88" font-family="Helvetica,sans-Serif" font-size="10.00">P4::Apollo::Standard</text>
<text text-anchor="start" x="161" y="-77" font-family="Helvetica,sans-Serif" font-size="10.00">::ActionProfileTraits</text>
<text text-anchor="middle" x="210.5" y="-66" font-family="Helvetica,sans-Serif" font-size="10.00">&lt; Arch::PNA &gt;</text>
</a>
</g>
</g>
<!-- Node1&#45;&gt;Node2 -->
<g id="edge1_Node000001_Node000002" class="edge">
<title>Node1&#45;&gt;Node2</title>
<g id="a_edge1_Node000001_Node000002"><a xlink:title=" ">
<path fill="none" stroke="#63b8ff" d="M125.08,-62.73C134.32,-64.56 143.74,-66.44 152.78,-68.23"/>
<polygon fill="#63b8ff" stroke="#63b8ff" points="125.65,-59.27 115.16,-60.76 124.28,-66.14 125.65,-59.27"/>
</a>
</g>
</g>
<!-- Node3 -->
<g id="Node000003" class="node">
<title>Node3</title>
<g id="a_Node000003"><a xlink:href="struct_p4_1_1_apollo_1_1_standard_1_1_action_selector_traits_3_01_arch_1_1_p_s_a_01_4.html" target="_top" xlink:title=" ">
<polygon fill="white" stroke="#bfbfbf" points="270,-41 151,-41 151,0 270,0 270,-41"/>
<text text-anchor="start" x="159" y="-29" font-family="Helvetica,sans-Serif" font-size="10.00">P4::Apollo::Standard</text>
<text text-anchor="start" x="159" y="-18" font-family="Helvetica,sans-Serif" font-size="10.00">::ActionSelectorTraits</text>
<text text-anchor="middle" x="210.5" y="-7" font-family="Helvetica,sans-Serif" font-size="10.00">&lt; Arch::PSA &gt;</text>
</a>
</g>
</g>
<!-- Node1&#45;&gt;Node3 -->
<g id="edge2_Node000001_Node000003" class="edge">
<title>Node1&#45;&gt;Node3</title>
<g id="a_edge2_Node000001_Node000003"><a xlink:title=" ">
<path fill="none" stroke="#63b8ff" d="M125.1,-36.71C133.65,-35.07 142.35,-33.4 150.76,-31.78"/>
<polygon fill="#63b8ff" stroke="#63b8ff" points="124.32,-33.3 115.16,-38.62 125.64,-40.17 124.32,-33.3"/>
</a>
</g>
</g>
<!-- Node4 -->
<g id="Node000004" class="node">
<title>Node4</title>
<g id="a_Node000004"><a xlink:href="struct_p4_1_1_apollo_1_1_standard_1_1_action_selector_traits_3_01_arch_1_1_p_n_a_01_4.html" target="_top" xlink:title=" ">
<polygon fill="white" stroke="#bfbfbf" points="425,-41 306,-41 306,0 425,0 425,-41"/>
<text text-anchor="start" x="314" y="-29" font-family="Helvetica,sans-Serif" font-size="10.00">P4::Apollo::Standard</text>
<text text-anchor="start" x="314" y="-18" font-family="Helvetica,sans-Serif" font-size="10.00">::ActionSelectorTraits</text>
<text text-anchor="middle" x="365.5" y="-7" font-family="Helvetica,sans-Serif" font-size="10.00">&lt; Arch::PNA &gt;</text>
</a>
</g>
</g>
<!-- Node3&#45;&gt;Node4 -->
<g id="edge3_Node000003_Node000004" class="edge">
<title>Node3&#45;&gt;Node4</title>
<g id="a_edge3_Node000003_Node000004"><a xlink:title=" ">
<path fill="none" stroke="#63b8ff" d="M280.49,-20.5C288.99,-20.5 297.62,-20.5 305.94,-20.5"/>
<polygon fill="#63b8ff" stroke="#63b8ff" points="280.22,-17 270.22,-20.5 280.22,-24 280.22,-17"/>
</a>
</g>
</g>
</g>
</svg>
