<?xml version="1.0" encoding="UTF-8" standalone="no"?>
<!DOCTYPE svg PUBLIC "-//W3C//DTD SVG 1.1//EN"
 "http://www.w3.org/Graphics/SVG/1.1/DTD/svg11.dtd">
<!-- Generated by graphviz version 2.43.0 (0)
 -->
<!-- Title: P4::RTTI::Base Pages: 1 -->
<!--zoomable 1264 -->

<svg id="main" version="1.1" xmlns="http://www.w3.org/2000/svg" xmlns:xlink="http://www.w3.org/1999/xlink" xml:space="preserve" onload="init(evt)">

<style type="text/css"><![CDATA[
.node, .edge {opacity: 0.7;}
.node.selected, .edge.selected {opacity: 1;}
.edge:hover path { stroke: red; }
.edge:hover polygon { stroke: red; fill: red; }
]]></style>

<defs>
  <circle id="rim" cx="0" cy="0" r="7"/>
  <circle id="rim2" cx="0" cy="0" r="3.5"/>
  <g id="zoomPlus">
    <use xlink:href="#rim" fill="#404040"><set attributeName="fill" to="#808080" begin="zoomplus.mouseover" end="zoomplus.mouseout"/></use>
    <path d="M-4,0h8M0,-4v8" fill="none" stroke="white" stroke-width="1.5" pointer-events="none"/>
  </g>
  <g id="zoomMin">
    <use xlink:href="#rim" fill="#404040"><set attributeName="fill" to="#808080" begin="zoomminus.mouseover" end="zoomminus.mouseout"/></use>
    <path d="M-4,0h8" fill="none" stroke="white" stroke-width="1.5" pointer-events="none"/>
  </g>
  <g id="arrowUp" transform="translate(30 24)">
    <use xlink:href="#rim"/>
    <path pointer-events="none" fill="none" stroke="white" stroke-width="1.5" d="M0,-3.0v7 M-2.5,-0.5L0,-3.0L2.5,-0.5"/>
  </g>
  <g id="arrowRight" transform="rotate(90) translate(36 -43)">
    <use xlink:href="#rim"/>
    <path pointer-events="none" fill="none" stroke="white" stroke-width="1.5" d="M0,-3.0v7 M-2.5,-0.5L0,-3.0L2.5,-0.5"/>
  </g>
  <g id="arrowDown" transform="rotate(180) translate(-30 -48)">
    <use xlink:href="#rim"/>
    <path pointer-events="none" fill="none" stroke="white" stroke-width="1.5" d="M0,-3.0v7 M-2.5,-0.5L0,-3.0L2.5,-0.5"/>
  </g>
  <g id="arrowLeft" transform="rotate(270) translate(-36 17)">
    <use xlink:href="#rim"/>
    <path pointer-events="none" fill="none" stroke="white" stroke-width="1.5" d="M0,-3.0v7 M-2.5,-0.5L0,-3.0L2.5,-0.5"/>
  </g>
  <g id="resetDef">
    <use xlink:href="#rim2" fill="#404040"><set attributeName="fill" to="#808080" begin="reset.mouseover" end="reset.mouseout"/></use>
  </g>
</defs>
<script type="application/ecmascript">
var viewWidth = 796;
var viewHeight = 1264;
var sectionId = 'dynsection-0';
</script>
<script type="application/ecmascript" xlink:href="svg.min.js"/>
<svg id="graph" class="graph">
<g id="viewport">
<title>P4::RTTI::Base</title>
<!-- Node1 -->
<g id="Node000001" class="node">
<title>Node1</title>
<g id="a_Node000001"><a xlink:title=" ">
<polygon fill="#999999" stroke="#666666" points="86,-407 0,-407 0,-388 86,-388 86,-407"/>
<text text-anchor="middle" x="43" y="-395" font-family="Helvetica,sans-Serif" font-size="10.00">P4::RTTI::Base</text>
</a>
</g>
</g>
<!-- Node2 -->
<g id="Node000002" class="node">
<title>Node2</title>
<g id="a_Node000002"><a xlink:href="class_p4_1_1_i_castable.html" target="_top" xlink:title=" ">
<polygon fill="white" stroke="#666666" points="202,-407 122,-407 122,-388 202,-388 202,-407"/>
<text text-anchor="middle" x="162" y="-395" font-family="Helvetica,sans-Serif" font-size="10.00">P4::ICastable</text>
</a>
</g>
</g>
<!-- Node1&#45;&gt;Node2 -->
<g id="edge1_Node000001_Node000002" class="edge">
<title>Node1&#45;&gt;Node2</title>
<g id="a_edge1_Node000001_Node000002"><a xlink:title=" ">
<path fill="none" stroke="#63b8ff" d="M96.25,-397.5C104.88,-397.5 113.7,-397.5 121.94,-397.5"/>
<polygon fill="#63b8ff" stroke="#63b8ff" points="96.24,-394 86.24,-397.5 96.24,-401 96.24,-394"/>
</a>
</g>
</g>
<!-- Node3 -->
<g id="Node000003" class="node">
<title>Node3</title>
<g id="a_Node000003"><a xlink:href="class_p4_1_1_abstract_solver.html" target="_top" xlink:title="Provides a higher&#45;level interface for an SMT solver.">
<polygon fill="white" stroke="#666666" points="369,-1237 263,-1237 263,-1218 369,-1218 369,-1237"/>
<text text-anchor="middle" x="316" y="-1225" font-family="Helvetica,sans-Serif" font-size="10.00">P4::AbstractSolver</text>
</a>
</g>
</g>
<!-- Node2&#45;&gt;Node3 -->
<g id="edge2_Node000002_Node000003" class="edge">
<title>Node2&#45;&gt;Node3</title>
<g id="a_edge2_Node000002_Node000003"><a xlink:title=" ">
<path fill="none" stroke="#63b8ff" d="M162.74,-417.2C161.66,-524.49 160.65,-1038.5 238,-1172.5 250.32,-1193.84 274.64,-1209.06 292.66,-1218"/>
<polygon fill="#63b8ff" stroke="#63b8ff" points="166.24,-417.17 162.86,-407.13 159.24,-417.09 166.24,-417.17"/>
</a>
</g>
</g>
<!-- Node5 -->
<g id="Node000005" class="node">
<title>Node5</title>
<g id="a_Node000005"><a xlink:href="class_p4_1_1_apollo_1_1_c_f_g_1_1_node.html" target="_top" xlink:title=" ">
<polygon fill="white" stroke="#bfbfbf" points="377.5,-1163 254.5,-1163 254.5,-1144 377.5,-1144 377.5,-1163"/>
<text text-anchor="middle" x="316" y="-1151" font-family="Helvetica,sans-Serif" font-size="10.00">P4::Apollo::CFG::Node</text>
</a>
</g>
</g>
<!-- Node2&#45;&gt;Node5 -->
<g id="edge4_Node000002_Node000005" class="edge">
<title>Node2&#45;&gt;Node5</title>
<g id="a_edge4_Node000002_Node000005"><a xlink:title=" ">
<path fill="none" stroke="#63b8ff" d="M163.71,-417.36C167.4,-514.63 186.32,-940.84 238,-1061.5 253.01,-1096.54 285.91,-1128.49 303.45,-1143.87"/>
<polygon fill="#63b8ff" stroke="#63b8ff" points="167.2,-417.04 163.33,-407.18 160.2,-417.3 167.2,-417.04"/>
</a>
</g>
</g>
<!-- Node9 -->
<g id="Node000009" class="node">
<title>Node9</title>
<g id="a_Node000009"><a xlink:href="class_p4_1_1_b_m_v2_1_1_c_f_g_1_1_node.html" target="_top" xlink:title=" ">
<polygon fill="white" stroke="#bfbfbf" points="376.5,-1052 255.5,-1052 255.5,-1033 376.5,-1033 376.5,-1052"/>
<text text-anchor="middle" x="316" y="-1040" font-family="Helvetica,sans-Serif" font-size="10.00">P4::BMV2::CFG::Node</text>
</a>
</g>
</g>
<!-- Node2&#45;&gt;Node9 -->
<g id="edge8_Node000002_Node000009" class="edge">
<title>Node2&#45;&gt;Node9</title>
<g id="a_edge8_Node000002_Node000009"><a xlink:title=" ">
<path fill="none" stroke="#63b8ff" d="M163.69,-417.38C166.53,-485.47 180.11,-714.94 238,-893.5 256.14,-949.45 293.59,-1009.87 308.59,-1032.88"/>
<polygon fill="#63b8ff" stroke="#63b8ff" points="167.18,-417.08 163.3,-407.22 160.19,-417.35 167.18,-417.08"/>
</a>
</g>
</g>
<!-- Node13 -->
<g id="Node000013" class="node">
<title>Node13</title>
<g id="a_Node000013"><a xlink:href="struct_p4_1_1_backtrack_1_1trigger.html" target="_top" xlink:title=" ">
<polygon fill="white" stroke="#bfbfbf" points="377,-884 255,-884 255,-865 377,-865 377,-884"/>
<text text-anchor="middle" x="316" y="-872" font-family="Helvetica,sans-Serif" font-size="10.00">P4::Backtrack::trigger</text>
</a>
</g>
</g>
<!-- Node2&#45;&gt;Node13 -->
<g id="edge12_Node000002_Node000013" class="edge">
<title>Node2&#45;&gt;Node13</title>
<g id="a_edge12_Node000002_Node000013"><a xlink:title=" ">
<path fill="none" stroke="#63b8ff" d="M169.17,-416.87C194.93,-497.7 293.35,-806.57 311.96,-864.95"/>
<polygon fill="#63b8ff" stroke="#63b8ff" points="172.41,-415.49 166.04,-407.03 165.74,-417.62 172.41,-415.49"/>
</a>
</g>
</g>
<!-- Node19 -->
<g id="Node000019" class="node">
<title>Node19</title>
<g id="a_Node000019"><a xlink:href="class_p4_1_1_e_b_p_f_1_1_e_b_p_f_object.html" target="_top" xlink:title="Base class for EBPF objects.">
<polygon fill="white" stroke="#666666" points="376.5,-622 255.5,-622 255.5,-603 376.5,-603 376.5,-622"/>
<text text-anchor="middle" x="316" y="-610" font-family="Helvetica,sans-Serif" font-size="10.00">P4::EBPF::EBPFObject</text>
</a>
</g>
</g>
<!-- Node2&#45;&gt;Node19 -->
<g id="edge18_Node000002_Node000019" class="edge">
<title>Node2&#45;&gt;Node19</title>
<g id="a_edge18_Node000002_Node000019"><a xlink:title=" ">
<path fill="none" stroke="#63b8ff" d="M165.17,-417.44C170.43,-456.06 187.42,-541.44 238,-588.5 244.77,-594.8 253.16,-599.44 261.9,-602.87"/>
<polygon fill="#63b8ff" stroke="#63b8ff" points="168.58,-416.54 163.89,-407.04 161.64,-417.4 168.58,-416.54"/>
</a>
</g>
</g>
<!-- Node104 -->
<g id="Node000104" class="node">
<title>Node104</title>
<g id="a_Node000104"><a xlink:href="class_p4_1_1_e_b_p_f_1_1_i_has_width.html" target="_top" xlink:title=" ">
<polygon fill="white" stroke="orangered" points="578.5,-308 463.5,-308 463.5,-289 578.5,-289 578.5,-308"/>
<text text-anchor="middle" x="521" y="-296" font-family="Helvetica,sans-Serif" font-size="10.00">P4::EBPF::IHasWidth</text>
</a>
</g>
</g>
<!-- Node2&#45;&gt;Node104 -->
<g id="edge34_Node000002_Node000104" class="edge">
<title>Node2&#45;&gt;Node104</title>
<g id="a_edge34_Node000002_Node000104"><a xlink:title=" ">
<path fill="none" stroke="#63b8ff" d="M165.62,-417.22C171.47,-452.27 189.14,-524.61 238,-555.5 296.6,-592.55 341.45,-600.73 394,-555.5 475.42,-485.43 355.88,-394.25 430,-316.5 438.8,-307.27 450.88,-302.05 463.35,-299.24"/>
<polygon fill="#63b8ff" stroke="#63b8ff" points="169.07,-416.62 164.12,-407.26 162.15,-417.67 169.07,-416.62"/>
</a>
</g>
</g>
<!-- Node105 -->
<g id="Node000105" class="node">
<title>Node105</title>
<g id="a_Node000105"><a xlink:href="class_p4_1_1_i_r_1_1_i_node.html" target="_top" xlink:title=" ">
<polygon fill="white" stroke="orangered" points="355.5,-546 276.5,-546 276.5,-527 355.5,-527 355.5,-546"/>
<text text-anchor="middle" x="316" y="-534" font-family="Helvetica,sans-Serif" font-size="10.00">P4::IR::INode</text>
</a>
</g>
</g>
<!-- Node2&#45;&gt;Node105 -->
<g id="edge37_Node000002_Node000105" class="edge">
<title>Node2&#45;&gt;Node105</title>
<g id="a_edge37_Node000002_Node000105"><a xlink:title=" ">
<path fill="none" stroke="#63b8ff" d="M169.49,-416.66C179.66,-443.7 202.02,-492.66 238,-518.5 249.15,-526.51 263.34,-531.01 276.49,-533.51"/>
<polygon fill="#63b8ff" stroke="#63b8ff" points="172.75,-415.38 166.07,-407.15 166.16,-417.74 172.75,-415.38"/>
</a>
</g>
</g>
<!-- Node147 -->
<g id="Node000147" class="node">
<title>Node147</title>
<g id="a_Node000147"><a xlink:href="class_p4_1_1_instance_base.html" target="_top" xlink:title=" ">
<polygon fill="white" stroke="orangered" points="366,-509 266,-509 266,-490 366,-490 366,-509"/>
<text text-anchor="middle" x="316" y="-497" font-family="Helvetica,sans-Serif" font-size="10.00">P4::InstanceBase</text>
</a>
</g>
</g>
<!-- Node2&#45;&gt;Node147 -->
<g id="edge38_Node000002_Node000147" class="edge">
<title>Node2&#45;&gt;Node147</title>
<g id="a_edge38_Node000002_Node000147"><a xlink:title=" ">
<path fill="none" stroke="#63b8ff" d="M174.18,-415.55C187.12,-434.9 210.26,-465.03 238,-481.5 246.38,-486.48 256.04,-490.08 265.61,-492.68"/>
<polygon fill="#63b8ff" stroke="#63b8ff" points="177.04,-413.53 168.67,-407.03 171.16,-417.33 177.04,-413.53"/>
</a>
</g>
</g>
<!-- Node167 -->
<g id="Node000167" class="node">
<title>Node167</title>
<g id="a_Node000167"><a xlink:href="class_p4_1_1_json_data.html" target="_top" xlink:title=" ">
<polygon fill="white" stroke="orangered" points="355,-472 277,-472 277,-453 355,-453 355,-472"/>
<text text-anchor="middle" x="316" y="-460" font-family="Helvetica,sans-Serif" font-size="10.00">P4::JsonData</text>
</a>
</g>
</g>
<!-- Node2&#45;&gt;Node167 -->
<g id="edge39_Node000002_Node000167" class="edge">
<title>Node2&#45;&gt;Node167</title>
<g id="a_edge39_Node000002_Node000167"><a xlink:title=" ">
<path fill="none" stroke="#63b8ff" d="M184.15,-412.92C198.68,-422.89 218.74,-435.45 238,-443.5 250.2,-448.6 264.07,-452.55 276.65,-455.49"/>
<polygon fill="#63b8ff" stroke="#63b8ff" points="186.07,-410 175.88,-407.12 182.05,-415.73 186.07,-410"/>
</a>
</g>
</g>
<!-- Node174 -->
<g id="Node000174" class="node">
<title>Node174</title>
<g id="a_Node000174"><a xlink:href="class_p4_1_1_p4_tools_1_1_abstract_rep_checked_node.html" target="_top" xlink:title=" ">
<polygon fill="white" stroke="#666666" points="394,-434.5 238,-434.5 238,-404.5 394,-404.5 394,-434.5"/>
<text text-anchor="start" x="246" y="-422.5" font-family="Helvetica,sans-Serif" font-size="10.00">P4::P4Tools::AbstractRep</text>
<text text-anchor="middle" x="316" y="-411.5" font-family="Helvetica,sans-Serif" font-size="10.00">CheckedNode&lt; Self, Node &gt;</text>
</a>
</g>
</g>
<!-- Node2&#45;&gt;Node174 -->
<g id="edge40_Node000002_Node000174" class="edge">
<title>Node2&#45;&gt;Node174</title>
<g id="a_edge40_Node000002_Node000174"><a xlink:title=" ">
<path fill="none" stroke="#63b8ff" d="M212.26,-404.63C220.48,-405.82 229.17,-407.08 237.89,-408.34"/>
<polygon fill="#63b8ff" stroke="#63b8ff" points="212.54,-401.13 202.14,-403.17 211.54,-408.06 212.54,-401.13"/>
</a>
</g>
</g>
<!-- Node175 -->
<g id="Node000175" class="node">
<title>Node175</title>
<g id="a_Node000175"><a xlink:href="class_p4_1_1_p4_tools_1_1_compiler_result.html" target="_top" xlink:title=" ">
<polygon fill="#fff0f0" stroke="red" points="392,-386 240,-386 240,-367 392,-367 392,-386"/>
<text text-anchor="middle" x="316" y="-374" font-family="Helvetica,sans-Serif" font-size="10.00">P4::P4Tools::CompilerResult</text>
</a>
</g>
</g>
<!-- Node2&#45;&gt;Node175 -->
<g id="edge41_Node000002_Node000175" class="edge">
<title>Node2&#45;&gt;Node175</title>
<g id="a_edge41_Node000002_Node000175"><a xlink:title=" ">
<path fill="none" stroke="#63b8ff" d="M212.25,-390.7C223.08,-389.2 234.75,-387.59 246.2,-386"/>
<polygon fill="#63b8ff" stroke="#63b8ff" points="211.57,-387.26 202.14,-392.09 212.53,-394.19 211.57,-387.26"/>
</a>
</g>
</g>
<!-- Node179 -->
<g id="Node000179" class="node">
<title>Node179</title>
<g id="a_Node000179"><a xlink:href="struct_p4_1_1_p4_tools_1_1_p4_testgen_1_1_abstract_test.html" target="_top" xlink:title="Type definitions for abstract tests.">
<polygon fill="#fff0f0" stroke="red" points="379.5,-348.5 252.5,-348.5 252.5,-318.5 379.5,-318.5 379.5,-348.5"/>
<text text-anchor="start" x="260.5" y="-336.5" font-family="Helvetica,sans-Serif" font-size="10.00">P4::P4Tools::P4Testgen</text>
<text text-anchor="middle" x="316" y="-325.5" font-family="Helvetica,sans-Serif" font-size="10.00">::AbstractTest</text>
</a>
</g>
</g>
<!-- Node2&#45;&gt;Node179 -->
<g id="edge42_Node000002_Node000179" class="edge">
<title>Node2&#45;&gt;Node179</title>
<g id="a_edge42_Node000002_Node000179"><a xlink:title=" ">
<path fill="none" stroke="#63b8ff" d="M188.35,-382.98C202.65,-375.13 221.01,-365.62 238,-358.5 246.43,-354.97 255.54,-351.62 264.44,-348.59"/>
<polygon fill="#63b8ff" stroke="#63b8ff" points="186.63,-379.93 179.6,-387.85 190.04,-386.05 186.63,-379.93"/>
</a>
</g>
</g>
<!-- Node182 -->
<g id="Node000182" class="node">
<title>Node182</title>
<g id="a_Node000182"><a xlink:href="class_p4_1_1_p4_tools_1_1_p4_testgen_1_1_program_info.html" target="_top" xlink:title="Stores target&#45;specific information about a P4 program.">
<polygon fill="#fff0f0" stroke="red" points="379.5,-300.5 252.5,-300.5 252.5,-270.5 379.5,-270.5 379.5,-300.5"/>
<text text-anchor="start" x="260.5" y="-288.5" font-family="Helvetica,sans-Serif" font-size="10.00">P4::P4Tools::P4Testgen</text>
<text text-anchor="middle" x="316" y="-277.5" font-family="Helvetica,sans-Serif" font-size="10.00">::ProgramInfo</text>
</a>
</g>
</g>
<!-- Node2&#45;&gt;Node182 -->
<g id="edge43_Node000002_Node000182" class="edge">
<title>Node2&#45;&gt;Node182</title>
<g id="a_edge43_Node000002_Node000182"><a xlink:title=" ">
<path fill="none" stroke="#63b8ff" d="M174.04,-379.24C186.98,-359.32 210.23,-327.83 238,-309.5 243.14,-306.11 248.79,-303.17 254.62,-300.63"/>
<polygon fill="#63b8ff" stroke="#63b8ff" points="171.06,-377.4 168.69,-387.73 176.98,-381.14 171.06,-377.4"/>
</a>
</g>
</g>
<!-- Node191 -->
<g id="Node000191" class="node">
<title>Node191</title>
<g id="a_Node000191"><a xlink:href="class_p4_1_1_p4_tools_1_1_p4_testgen_1_1_test_object.html" target="_top" xlink:title=" ">
<polygon fill="white" stroke="orangered" points="379.5,-252.5 252.5,-252.5 252.5,-222.5 379.5,-222.5 379.5,-252.5"/>
<text text-anchor="start" x="260.5" y="-240.5" font-family="Helvetica,sans-Serif" font-size="10.00">P4::P4Tools::P4Testgen</text>
<text text-anchor="middle" x="316" y="-229.5" font-family="Helvetica,sans-Serif" font-size="10.00">::TestObject</text>
</a>
</g>
</g>
<!-- Node2&#45;&gt;Node191 -->
<g id="edge44_Node000002_Node000191" class="edge">
<title>Node2&#45;&gt;Node191</title>
<g id="a_edge44_Node000002_Node000191"><a xlink:title=" ">
<path fill="none" stroke="#63b8ff" d="M168.54,-378.08C177.95,-348.58 199.84,-292.64 238,-261.5 242.34,-257.96 247.2,-254.94 252.32,-252.36"/>
<polygon fill="#63b8ff" stroke="#63b8ff" points="165.09,-377.4 165.54,-387.98 171.79,-379.43 165.09,-377.4"/>
</a>
</g>
</g>
<!-- Node227 -->
<g id="Node000227" class="node">
<title>Node227</title>
<g id="a_Node000227"><a xlink:href="class_p4_1_1_p4_tools_1_1_trace_event.html" target="_top" xlink:title="An event in a trace of the execution of a P4 program.">
<polygon fill="#fff0f0" stroke="red" points="381.5,-204 250.5,-204 250.5,-185 381.5,-185 381.5,-204"/>
<text text-anchor="middle" x="316" y="-192" font-family="Helvetica,sans-Serif" font-size="10.00">P4::P4Tools::TraceEvent</text>
</a>
</g>
</g>
<!-- Node2&#45;&gt;Node227 -->
<g id="edge45_Node000002_Node000227" class="edge">
<title>Node2&#45;&gt;Node227</title>
<g id="a_edge45_Node000002_Node000227"><a xlink:title=" ">
<path fill="none" stroke="#63b8ff" d="M165.24,-377.48C170.58,-339.54 187.63,-257.05 238,-213.5 242.48,-209.63 247.63,-206.52 253.09,-204.03"/>
<polygon fill="#63b8ff" stroke="#63b8ff" points="161.72,-377.38 163.93,-387.74 168.67,-378.26 161.72,-377.38"/>
</a>
</g>
</g>
<!-- Node240 -->
<g id="Node000240" class="node">
<title>Node240</title>
<g id="a_Node000240"><a xlink:href="class_p4_1_1_storage_location.html" target="_top" xlink:title="Abstraction for something that is has a left value (variable, parameter)">
<polygon fill="#fff0f0" stroke="red" points="372.5,-167 259.5,-167 259.5,-148 372.5,-148 372.5,-167"/>
<text text-anchor="middle" x="316" y="-155" font-family="Helvetica,sans-Serif" font-size="10.00">P4::StorageLocation</text>
</a>
</g>
</g>
<!-- Node2&#45;&gt;Node240 -->
<g id="edge46_Node000002_Node000240" class="edge">
<title>Node2&#45;&gt;Node240</title>
<g id="a_edge46_Node000002_Node000240"><a xlink:title=" ">
<path fill="none" stroke="#63b8ff" d="M163.58,-377.61C165.97,-334.09 178.01,-229.98 238,-175.5 244.1,-169.96 251.57,-166.03 259.43,-163.26"/>
<polygon fill="#63b8ff" stroke="#63b8ff" points="160.08,-377.6 163.14,-387.75 167.07,-377.91 160.08,-377.6"/>
</a>
</g>
</g>
<!-- Node247 -->
<g id="Node000247" class="node">
<title>Node247</title>
<g id="a_Node000247"><a xlink:href="class_p4_1_1_symbolic_value.html" target="_top" xlink:title=" ">
<polygon fill="white" stroke="orangered" points="369.5,-130 262.5,-130 262.5,-111 369.5,-111 369.5,-130"/>
<text text-anchor="middle" x="316" y="-118" font-family="Helvetica,sans-Serif" font-size="10.00">P4::SymbolicValue</text>
</a>
</g>
</g>
<!-- Node2&#45;&gt;Node247 -->
<g id="edge47_Node000002_Node000247" class="edge">
<title>Node2&#45;&gt;Node247</title>
<g id="a_edge47_Node000002_Node000247"><a xlink:title=" ">
<path fill="none" stroke="#63b8ff" d="M162.45,-377.69C162.26,-329.27 168.84,-204.14 238,-138.5 244.77,-132.07 253.38,-127.79 262.37,-124.97"/>
<polygon fill="#63b8ff" stroke="#63b8ff" points="158.95,-377.83 162.6,-387.78 165.95,-377.73 158.95,-377.83"/>
</a>
</g>
</g>
<!-- Node266 -->
<g id="Node000266" class="node">
<title>Node266</title>
<g id="a_Node000266"><a xlink:href="class_p4_1_1_type_constraint.html" target="_top" xlink:title=" ">
<polygon fill="white" stroke="orangered" points="369.5,-93 262.5,-93 262.5,-74 369.5,-74 369.5,-93"/>
<text text-anchor="middle" x="316" y="-81" font-family="Helvetica,sans-Serif" font-size="10.00">P4::TypeConstraint</text>
</a>
</g>
</g>
<!-- Node2&#45;&gt;Node266 -->
<g id="edge48_Node000002_Node000266" class="edge">
<title>Node2&#45;&gt;Node266</title>
<g id="a_edge48_Node000002_Node000266"><a xlink:title=" ">
<path fill="none" stroke="#63b8ff" d="M165.3,-378.03C172.71,-318.56 197.84,-140.92 238,-101.5 244.66,-94.96 253.22,-90.62 262.19,-87.78"/>
<polygon fill="#63b8ff" stroke="#63b8ff" points="161.82,-377.64 164.09,-387.99 168.77,-378.48 161.82,-377.64"/>
</a>
</g>
</g>
<!-- Node270 -->
<g id="Node000270" class="node">
<title>Node270</title>
<g id="a_Node000270"><a xlink:href="class_p4_1_1_util_1_1_i_json.html" target="_top" xlink:title=" ">
<polygon fill="white" stroke="orangered" points="356.5,-56 275.5,-56 275.5,-37 356.5,-37 356.5,-56"/>
<text text-anchor="middle" x="316" y="-44" font-family="Helvetica,sans-Serif" font-size="10.00">P4::Util::IJson</text>
</a>
</g>
</g>
<!-- Node2&#45;&gt;Node270 -->
<g id="edge49_Node000002_Node000270" class="edge">
<title>Node2&#45;&gt;Node270</title>
<g id="a_edge49_Node000002_Node000270"><a xlink:title=" ">
<path fill="none" stroke="#63b8ff" d="M164.74,-377.74C170.81,-313.13 193.22,-109.65 238,-64.5 247.76,-54.66 261.81,-49.78 275.24,-47.48"/>
<polygon fill="#63b8ff" stroke="#63b8ff" points="161.24,-377.54 163.82,-387.82 168.21,-378.18 161.24,-377.54"/>
</a>
</g>
</g>
<!-- Node274 -->
<g id="Node000274" class="node">
<title>Node274</title>
<g id="a_Node000274"><a xlink:href="class_p4_1_1_util_1_1_named_symbol.html" target="_top" xlink:title=" ">
<polygon fill="white" stroke="orangered" points="381,-19 251,-19 251,0 381,0 381,-19"/>
<text text-anchor="middle" x="316" y="-7" font-family="Helvetica,sans-Serif" font-size="10.00">P4::Util::NamedSymbol</text>
</a>
</g>
</g>
<!-- Node2&#45;&gt;Node274 -->
<g id="edge50_Node000002_Node000274" class="edge">
<title>Node2&#45;&gt;Node274</title>
<g id="a_edge50_Node000002_Node000274"><a xlink:title=" ">
<path fill="none" stroke="#63b8ff" d="M164.25,-377.83C169.03,-308.74 188.48,-78.51 238,-27.5 241.73,-23.66 246.11,-20.57 250.86,-18.09"/>
<polygon fill="#63b8ff" stroke="#63b8ff" points="160.76,-377.61 163.58,-387.82 167.74,-378.07 160.76,-377.61"/>
</a>
</g>
</g>
<!-- Node4 -->
<g id="Node000004" class="node">
<title>Node4</title>
<g id="a_Node000004"><a xlink:href="class_p4_1_1_p4_tools_1_1_z3_solver.html" target="_top" xlink:title="A Z3&#45;based implementation of AbstractSolver. Encapsulates a z3::solver and a z3::context.">
<polygon fill="white" stroke="#666666" points="581.5,-1256 460.5,-1256 460.5,-1237 581.5,-1237 581.5,-1256"/>
<text text-anchor="middle" x="521" y="-1244" font-family="Helvetica,sans-Serif" font-size="10.00">P4::P4Tools::Z3Solver</text>
</a>
</g>
</g>
<!-- Node3&#45;&gt;Node4 -->
<g id="edge3_Node000003_Node000004" class="edge">
<title>Node3&#45;&gt;Node4</title>
<g id="a_edge3_Node000003_Node000004"><a xlink:title=" ">
<path fill="none" stroke="#63b8ff" d="M379.05,-1233.31C404.85,-1235.72 434.66,-1238.51 460.21,-1240.9"/>
<polygon fill="#63b8ff" stroke="#63b8ff" points="379.3,-1229.82 369.01,-1232.37 378.64,-1236.79 379.3,-1229.82"/>
</a>
</g>
</g>
<!-- Node6 -->
<g id="Node000006" class="node">
<title>Node6</title>
<g id="a_Node000006"><a xlink:href="class_p4_1_1_apollo_1_1_c_f_g_1_1_dummy_node.html" target="_top" xlink:title=" ">
<polygon fill="white" stroke="#bfbfbf" points="602,-1219 440,-1219 440,-1200 602,-1200 602,-1219"/>
<text text-anchor="middle" x="521" y="-1207" font-family="Helvetica,sans-Serif" font-size="10.00">P4::Apollo::CFG::DummyNode</text>
</a>
</g>
</g>
<!-- Node5&#45;&gt;Node6 -->
<g id="edge5_Node000005_Node000006" class="edge">
<title>Node5&#45;&gt;Node6</title>
<g id="a_edge5_Node000005_Node000006"><a xlink:title=" ">
<path fill="none" stroke="#63b8ff" d="M351.93,-1166.53C374.08,-1174.47 403.47,-1184.42 430,-1191.5 441.7,-1194.62 454.39,-1197.48 466.44,-1199.95"/>
<polygon fill="#63b8ff" stroke="#63b8ff" points="352.89,-1163.15 342.3,-1163.04 350.51,-1169.73 352.89,-1163.15"/>
</a>
</g>
</g>
<!-- Node7 -->
<g id="Node000007" class="node">
<title>Node7</title>
<g id="a_Node000007"><a xlink:href="class_p4_1_1_apollo_1_1_c_f_g_1_1_if_node.html" target="_top" xlink:title=" ">
<polygon fill="white" stroke="#bfbfbf" points="586,-1182 456,-1182 456,-1163 586,-1163 586,-1182"/>
<text text-anchor="middle" x="521" y="-1170" font-family="Helvetica,sans-Serif" font-size="10.00">P4::Apollo::CFG::IfNode</text>
</a>
</g>
</g>
<!-- Node5&#45;&gt;Node7 -->
<g id="edge6_Node000005_Node000007" class="edge">
<title>Node5&#45;&gt;Node7</title>
<g id="a_edge6_Node000005_Node000007"><a xlink:title=" ">
<path fill="none" stroke="#63b8ff" d="M387.64,-1160.11C409.79,-1162.19 434.12,-1164.46 455.8,-1166.49"/>
<polygon fill="#63b8ff" stroke="#63b8ff" points="387.91,-1156.62 377.63,-1159.17 387.26,-1163.59 387.91,-1156.62"/>
</a>
</g>
</g>
<!-- Node8 -->
<g id="Node000008" class="node">
<title>Node8</title>
<g id="a_Node000008"><a xlink:href="class_p4_1_1_apollo_1_1_c_f_g_1_1_table_node.html" target="_top" xlink:title=" ">
<polygon fill="white" stroke="#bfbfbf" points="595.5,-1145 446.5,-1145 446.5,-1126 595.5,-1126 595.5,-1145"/>
<text text-anchor="middle" x="521" y="-1133" font-family="Helvetica,sans-Serif" font-size="10.00">P4::Apollo::CFG::TableNode</text>
</a>
</g>
</g>
<!-- Node5&#45;&gt;Node8 -->
<g id="edge7_Node000005_Node000008" class="edge">
<title>Node5&#45;&gt;Node8</title>
<g id="a_edge7_Node000005_Node000008"><a xlink:title=" ">
<path fill="none" stroke="#63b8ff" d="M387.7,-1147.23C406.69,-1145.55 427.27,-1143.72 446.41,-1142.03"/>
<polygon fill="#63b8ff" stroke="#63b8ff" points="387.28,-1143.75 377.63,-1148.12 387.9,-1150.73 387.28,-1143.75"/>
</a>
</g>
</g>
<!-- Node10 -->
<g id="Node000010" class="node">
<title>Node10</title>
<g id="a_Node000010"><a xlink:href="class_p4_1_1_b_m_v2_1_1_c_f_g_1_1_dummy_node.html" target="_top" xlink:title=" ">
<polygon fill="white" stroke="#bfbfbf" points="601,-1108 441,-1108 441,-1089 601,-1089 601,-1108"/>
<text text-anchor="middle" x="521" y="-1096" font-family="Helvetica,sans-Serif" font-size="10.00">P4::BMV2::CFG::DummyNode</text>
</a>
</g>
</g>
<!-- Node9&#45;&gt;Node10 -->
<g id="edge9_Node000009_Node000010" class="edge">
<title>Node9&#45;&gt;Node10</title>
<g id="a_edge9_Node000009_Node000010"><a xlink:title=" ">
<path fill="none" stroke="#63b8ff" d="M351.93,-1055.53C374.08,-1063.47 403.47,-1073.42 430,-1080.5 441.7,-1083.62 454.39,-1086.48 466.44,-1088.95"/>
<polygon fill="#63b8ff" stroke="#63b8ff" points="352.89,-1052.15 342.3,-1052.04 350.51,-1058.73 352.89,-1052.15"/>
</a>
</g>
</g>
<!-- Node11 -->
<g id="Node000011" class="node">
<title>Node11</title>
<g id="a_Node000011"><a xlink:href="class_p4_1_1_b_m_v2_1_1_c_f_g_1_1_if_node.html" target="_top" xlink:title=" ">
<polygon fill="white" stroke="#bfbfbf" points="585,-1071 457,-1071 457,-1052 585,-1052 585,-1071"/>
<text text-anchor="middle" x="521" y="-1059" font-family="Helvetica,sans-Serif" font-size="10.00">P4::BMV2::CFG::IfNode</text>
</a>
</g>
</g>
<!-- Node9&#45;&gt;Node11 -->
<g id="edge10_Node000009_Node000011" class="edge">
<title>Node9&#45;&gt;Node11</title>
<g id="a_edge10_Node000009_Node000011"><a xlink:title=" ">
<path fill="none" stroke="#63b8ff" d="M386.5,-1049C409.34,-1051.14 434.59,-1053.51 456.93,-1055.6"/>
<polygon fill="#63b8ff" stroke="#63b8ff" points="386.82,-1045.52 376.54,-1048.07 386.17,-1052.49 386.82,-1045.52"/>
</a>
</g>
</g>
<!-- Node12 -->
<g id="Node000012" class="node">
<title>Node12</title>
<g id="a_Node000012"><a xlink:href="class_p4_1_1_b_m_v2_1_1_c_f_g_1_1_table_node.html" target="_top" xlink:title=" ">
<polygon fill="white" stroke="#bfbfbf" points="594,-1034 448,-1034 448,-1015 594,-1015 594,-1034"/>
<text text-anchor="middle" x="521" y="-1022" font-family="Helvetica,sans-Serif" font-size="10.00">P4::BMV2::CFG::TableNode</text>
</a>
</g>
</g>
<!-- Node9&#45;&gt;Node12 -->
<g id="edge11_Node000009_Node000012" class="edge">
<title>Node9&#45;&gt;Node12</title>
<g id="a_edge11_Node000009_Node000012"><a xlink:title=" ">
<path fill="none" stroke="#63b8ff" d="M386.69,-1036.32C406.44,-1034.57 427.99,-1032.66 447.88,-1030.89"/>
<polygon fill="#63b8ff" stroke="#63b8ff" points="386.19,-1032.85 376.54,-1037.22 386.81,-1039.82 386.19,-1032.85"/>
</a>
</g>
</g>
<!-- Node14 -->
<g id="Node000014" class="node">
<title>Node14</title>
<g id="a_Node000014"><a xlink:href="struct_i_x_bar_1_1failure.html" target="_top" xlink:title=" ">
<polygon fill="white" stroke="#bfbfbf" points="561,-863 481,-863 481,-844 561,-844 561,-863"/>
<text text-anchor="middle" x="521" y="-851" font-family="Helvetica,sans-Serif" font-size="10.00">IXBar::failure</text>
</a>
</g>
</g>
<!-- Node13&#45;&gt;Node14 -->
<g id="edge13_Node000013_Node000014" class="edge">
<title>Node13&#45;&gt;Node14</title>
<g id="a_edge13_Node000013_Node000014"><a xlink:title=" ">
<path fill="none" stroke="#63b8ff" d="M387.1,-867.25C418.51,-864 454.35,-860.29 480.9,-857.55"/>
<polygon fill="#63b8ff" stroke="#63b8ff" points="386.67,-863.77 377.08,-868.28 387.39,-870.74 386.67,-863.77"/>
</a>
</g>
</g>
<!-- Node15 -->
<g id="Node000015" class="node">
<title>Node15</title>
<g id="a_Node000015"><a xlink:href="struct_long_branch_alloc_failed.html" target="_top" xlink:title=" ">
<polygon fill="white" stroke="#bfbfbf" points="584,-826 458,-826 458,-807 584,-807 584,-826"/>
<text text-anchor="middle" x="521" y="-814" font-family="Helvetica,sans-Serif" font-size="10.00">LongBranchAllocFailed</text>
</a>
</g>
</g>
<!-- Node13&#45;&gt;Node15 -->
<g id="edge14_Node000013_Node000015" class="edge">
<title>Node13&#45;&gt;Node15</title>
<g id="a_edge14_Node000013_Node000015"><a xlink:title=" ">
<path fill="none" stroke="#63b8ff" d="M351.5,-861.34C373.7,-853.19 403.29,-842.9 430,-835.5 442.62,-832 456.39,-828.8 469.28,-826.06"/>
<polygon fill="#63b8ff" stroke="#63b8ff" points="350.01,-858.16 341.85,-864.92 352.45,-864.73 350.01,-858.16"/>
</a>
</g>
</g>
<!-- Node16 -->
<g id="Node000016" class="node">
<title>Node16</title>
<g id="a_Node000016"><a xlink:href="struct_p_h_v_trigger_1_1failure.html" target="_top" xlink:title=" ">
<polygon fill="white" stroke="#bfbfbf" points="574.5,-997 467.5,-997 467.5,-978 574.5,-978 574.5,-997"/>
<text text-anchor="middle" x="521" y="-985" font-family="Helvetica,sans-Serif" font-size="10.00">PHVTrigger::failure</text>
</a>
</g>
</g>
<!-- Node13&#45;&gt;Node16 -->
<g id="edge15_Node000013_Node000016" class="edge">
<title>Node13&#45;&gt;Node16</title>
<g id="a_edge15_Node000013_Node000016"><a xlink:title=" ">
<path fill="none" stroke="#63b8ff" d="M332.43,-891.7C352.67,-913.13 390.29,-949.27 430,-968.5 441.5,-974.07 454.6,-978.01 467.18,-980.8"/>
<polygon fill="#63b8ff" stroke="#63b8ff" points="334.92,-889.24 325.56,-884.27 329.78,-893.99 334.92,-889.24"/>
</a>
</g>
</g>
<!-- Node17 -->
<g id="Node000017" class="node">
<title>Node17</title>
<g id="a_Node000017"><a xlink:href="struct_rerun_table_placement_trigger_1_1failure.html" target="_top" xlink:title=" ">
<polygon fill="white" stroke="#bfbfbf" points="598.5,-959.5 443.5,-959.5 443.5,-929.5 598.5,-929.5 598.5,-959.5"/>
<text text-anchor="start" x="451.5" y="-947.5" font-family="Helvetica,sans-Serif" font-size="10.00">RerunTablePlacementTrigger</text>
<text text-anchor="middle" x="521" y="-936.5" font-family="Helvetica,sans-Serif" font-size="10.00">::failure</text>
</a>
</g>
</g>
<!-- Node13&#45;&gt;Node17 -->
<g id="edge16_Node000013_Node000017" class="edge">
<title>Node13&#45;&gt;Node17</title>
<g id="a_edge16_Node000013_Node000017"><a xlink:title=" ">
<path fill="none" stroke="#63b8ff" d="M347.72,-888.23C370.23,-897.99 401.66,-911 430,-920.5 439.35,-923.64 449.36,-926.64 459.17,-929.4"/>
<polygon fill="#63b8ff" stroke="#63b8ff" points="348.92,-884.94 338.36,-884.14 346.12,-891.35 348.92,-884.94"/>
</a>
</g>
</g>
<!-- Node18 -->
<g id="Node000018" class="node">
<title>Node18</title>
<g id="a_Node000018"><a xlink:href="struct_table_placement_1_1_final_rerun_table_placement_trigger.html" target="_top" xlink:title=" ">
<polygon fill="white" stroke="#bfbfbf" points="597,-911.5 445,-911.5 445,-881.5 597,-881.5 597,-911.5"/>
<text text-anchor="start" x="453" y="-899.5" font-family="Helvetica,sans-Serif" font-size="10.00">TablePlacement::FinalRerun</text>
<text text-anchor="middle" x="521" y="-888.5" font-family="Helvetica,sans-Serif" font-size="10.00">TablePlacementTrigger</text>
</a>
</g>
</g>
<!-- Node13&#45;&gt;Node18 -->
<g id="edge17_Node000013_Node000018" class="edge">
<title>Node13&#45;&gt;Node18</title>
<g id="a_edge17_Node000013_Node000018"><a xlink:title=" ">
<path fill="none" stroke="#63b8ff" d="M387.25,-882.11C405.88,-884.13 426.07,-886.32 444.94,-888.37"/>
<polygon fill="#63b8ff" stroke="#63b8ff" points="387.4,-878.61 377.08,-881.01 386.65,-885.57 387.4,-878.61"/>
</a>
</g>
</g>
<!-- Node20 -->
<g id="Node000020" class="node">
<title>Node20</title>
<g id="a_Node000020"><a xlink:href="class_p4_1_1_e_b_p_f_1_1_e_b_p_f_checksum_p_s_a.html" target="_top" xlink:title=" ">
<polygon fill="white" stroke="orangered" points="601,-789 441,-789 441,-770 601,-770 601,-789"/>
<text text-anchor="middle" x="521" y="-777" font-family="Helvetica,sans-Serif" font-size="10.00">P4::EBPF::EBPFChecksumPSA</text>
</a>
</g>
</g>
<!-- Node19&#45;&gt;Node20 -->
<g id="edge19_Node000019_Node000020" class="edge">
<title>Node19&#45;&gt;Node20</title>
<g id="a_edge19_Node000019_Node000020"><a xlink:title=" ">
<path fill="none" stroke="#63b8ff" d="M325.59,-631.29C341.35,-663.52 378.11,-728.99 430,-761.5 435.4,-764.88 441.31,-767.65 447.44,-769.91"/>
<polygon fill="#63b8ff" stroke="#63b8ff" points="328.66,-629.61 321.21,-622.08 322.34,-632.61 328.66,-629.61"/>
</a>
</g>
</g>
<!-- Node26 -->
<g id="Node000026" class="node">
<title>Node26</title>
<g id="a_Node000026"><a xlink:href="class_p4_1_1_e_b_p_f_1_1_e_b_p_f_control.html" target="_top" xlink:title=" ">
<polygon fill="white" stroke="orangered" points="583.5,-752 458.5,-752 458.5,-733 583.5,-733 583.5,-752"/>
<text text-anchor="middle" x="521" y="-740" font-family="Helvetica,sans-Serif" font-size="10.00">P4::EBPF::EBPFControl</text>
</a>
</g>
</g>
<!-- Node19&#45;&gt;Node26 -->
<g id="edge20_Node000019_Node000026" class="edge">
<title>Node19&#45;&gt;Node26</title>
<g id="a_edge20_Node000019_Node000026"><a xlink:title=" ">
<path fill="none" stroke="#63b8ff" d="M329.67,-630.49C348.49,-655.76 386.35,-701.26 430,-724.5 438.72,-729.14 448.5,-732.59 458.3,-735.15"/>
<polygon fill="#63b8ff" stroke="#63b8ff" points="332.33,-628.2 323.62,-622.18 326.67,-632.32 332.33,-628.2"/>
</a>
</g>
</g>
<!-- Node40 -->
<g id="Node000040" class="node">
<title>Node40</title>
<g id="a_Node000040"><a xlink:href="class_p4_1_1_e_b_p_f_1_1_e_b_p_f_digest_p_s_a.html" target="_top" xlink:title=" ">
<polygon fill="white" stroke="orangered" points="591,-715 451,-715 451,-696 591,-696 591,-715"/>
<text text-anchor="middle" x="521" y="-703" font-family="Helvetica,sans-Serif" font-size="10.00">P4::EBPF::EBPFDigestPSA</text>
</a>
</g>
</g>
<!-- Node19&#45;&gt;Node40 -->
<g id="edge21_Node000019_Node000040" class="edge">
<title>Node19&#45;&gt;Node40</title>
<g id="a_edge21_Node000019_Node000040"><a xlink:title=" ">
<path fill="none" stroke="#63b8ff" d="M336.32,-628.77C357.81,-646.01 394.23,-672.73 430,-687.5 438.25,-690.91 447.19,-693.68 456.14,-695.94"/>
<polygon fill="#63b8ff" stroke="#63b8ff" points="338.29,-625.86 328.33,-622.25 333.86,-631.28 338.29,-625.86"/>
</a>
</g>
</g>
<!-- Node42 -->
<g id="Node000042" class="node">
<title>Node42</title>
<g id="a_Node000042"><a xlink:href="class_p4_1_1_e_b_p_f_1_1_e_b_p_f_hash_algorithm_p_s_a.html" target="_top" xlink:title=" ">
<polygon fill="white" stroke="orangered" points="612,-678 430,-678 430,-659 612,-659 612,-678"/>
<text text-anchor="middle" x="521" y="-666" font-family="Helvetica,sans-Serif" font-size="10.00">P4::EBPF::EBPFHashAlgorithmPSA</text>
</a>
</g>
</g>
<!-- Node19&#45;&gt;Node42 -->
<g id="edge22_Node000019_Node000042" class="edge">
<title>Node19&#45;&gt;Node42</title>
<g id="a_edge22_Node000019_Node000042"><a xlink:title=" ">
<path fill="none" stroke="#63b8ff" d="M351.93,-625.53C374.08,-633.47 403.47,-643.42 430,-650.5 441.7,-653.62 454.39,-656.48 466.44,-658.95"/>
<polygon fill="#63b8ff" stroke="#63b8ff" points="352.89,-622.15 342.3,-622.04 350.51,-628.73 352.89,-622.15"/>
</a>
</g>
</g>
<!-- Node49 -->
<g id="Node000049" class="node">
<title>Node49</title>
<g id="a_Node000049"><a xlink:href="class_p4_1_1_e_b_p_f_1_1_e_b_p_f_method_declaration.html" target="_top" xlink:title="Methods are function signatures.">
<polygon fill="white" stroke="#666666" points="612,-641 430,-641 430,-622 612,-622 612,-641"/>
<text text-anchor="middle" x="521" y="-629" font-family="Helvetica,sans-Serif" font-size="10.00">P4::EBPF::EBPFMethodDeclaration</text>
</a>
</g>
</g>
<!-- Node19&#45;&gt;Node49 -->
<g id="edge23_Node000019_Node000049" class="edge">
<title>Node19&#45;&gt;Node49</title>
<g id="a_edge23_Node000019_Node000049"><a xlink:title=" ">
<path fill="none" stroke="#63b8ff" d="M386.53,-619.01C400.5,-620.32 415.37,-621.71 429.93,-623.07"/>
<polygon fill="#63b8ff" stroke="#63b8ff" points="386.82,-615.52 376.54,-618.07 386.17,-622.49 386.82,-615.52"/>
</a>
</g>
</g>
<!-- Node50 -->
<g id="Node000050" class="node">
<title>Node50</title>
<g id="a_Node000050"><a xlink:href="class_p4_1_1_e_b_p_f_1_1_e_b_p_f_parser.html" target="_top" xlink:title=" ">
<polygon fill="white" stroke="orangered" points="580.5,-604 461.5,-604 461.5,-585 580.5,-585 580.5,-604"/>
<text text-anchor="middle" x="521" y="-592" font-family="Helvetica,sans-Serif" font-size="10.00">P4::EBPF::EBPFParser</text>
</a>
</g>
</g>
<!-- Node19&#45;&gt;Node50 -->
<g id="edge24_Node000019_Node000050" class="edge">
<title>Node19&#45;&gt;Node50</title>
<g id="a_edge24_Node000019_Node000050"><a xlink:title=" ">
<path fill="none" stroke="#63b8ff" d="M386.74,-606.32C410.98,-604.17 437.9,-601.78 461.17,-599.72"/>
<polygon fill="#63b8ff" stroke="#63b8ff" points="386.19,-602.85 376.54,-607.22 386.81,-609.82 386.19,-602.85"/>
</a>
</g>
</g>
<!-- Node54 -->
<g id="Node000054" class="node">
<title>Node54</title>
<g id="a_Node000054"><a xlink:href="class_p4_1_1_e_b_p_f_1_1_e_b_p_f_parser_state.html" target="_top" xlink:title=" ">
<polygon fill="white" stroke="orangered" points="593.5,-567 448.5,-567 448.5,-548 593.5,-548 593.5,-567"/>
<text text-anchor="middle" x="521" y="-555" font-family="Helvetica,sans-Serif" font-size="10.00">P4::EBPF::EBPFParserState</text>
</a>
</g>
</g>
<!-- Node19&#45;&gt;Node54 -->
<g id="edge25_Node000019_Node000054" class="edge">
<title>Node19&#45;&gt;Node54</title>
<g id="a_edge25_Node000019_Node000054"><a xlink:title=" ">
<path fill="none" stroke="#63b8ff" d="M357.7,-599.98C369.43,-596.33 382.24,-592.29 394,-588.5 410.05,-583.32 413.72,-580.92 430,-576.5 442.79,-573.03 456.75,-569.81 469.77,-567.05"/>
<polygon fill="#63b8ff" stroke="#63b8ff" points="356.65,-596.64 348.14,-602.95 358.73,-603.32 356.65,-596.64"/>
</a>
</g>
</g>
<!-- Node56 -->
<g id="Node000056" class="node">
<title>Node56</title>
<g id="a_Node000056"><a xlink:href="class_p4_1_1_e_b_p_f_1_1_e_b_p_f_program.html" target="_top" xlink:title=" ">
<polygon fill="white" stroke="orangered" points="586.5,-530 455.5,-530 455.5,-511 586.5,-511 586.5,-530"/>
<text text-anchor="middle" x="521" y="-518" font-family="Helvetica,sans-Serif" font-size="10.00">P4::EBPF::EBPFProgram</text>
</a>
</g>
</g>
<!-- Node19&#45;&gt;Node56 -->
<g id="edge26_Node000019_Node000056" class="edge">
<title>Node19&#45;&gt;Node56</title>
<g id="a_edge26_Node000019_Node000056"><a xlink:title=" ">
<path fill="none" stroke="#63b8ff" d="M374.09,-599.28C381.13,-596.36 387.97,-592.8 394,-588.5 416,-572.81 407.29,-554.14 430,-539.5 437.65,-534.57 446.36,-530.89 455.27,-528.15"/>
<polygon fill="#63b8ff" stroke="#63b8ff" points="372.56,-596.12 364.42,-602.89 375.01,-602.67 372.56,-596.12"/>
</a>
</g>
</g>
<!-- Node68 -->
<g id="Node000068" class="node">
<title>Node68</title>
<g id="a_Node000068"><a xlink:href="class_p4_1_1_e_b_p_f_1_1_e_b_p_f_random_p_s_a.html" target="_top" xlink:title=" ">
<polygon fill="white" stroke="#bfbfbf" points="595.5,-493 446.5,-493 446.5,-474 595.5,-474 595.5,-493"/>
<text text-anchor="middle" x="521" y="-481" font-family="Helvetica,sans-Serif" font-size="10.00">P4::EBPF::EBPFRandomPSA</text>
</a>
</g>
</g>
<!-- Node19&#45;&gt;Node68 -->
<g id="edge27_Node000019_Node000068" class="edge">
<title>Node19&#45;&gt;Node68</title>
<g id="a_edge27_Node000019_Node000068"><a xlink:title=" ">
<path fill="none" stroke="#63b8ff" d="M378.99,-598.7C384.44,-595.91 389.55,-592.54 394,-588.5 424.65,-560.61 398.07,-528.91 430,-502.5 434.92,-498.43 440.5,-495.16 446.42,-492.56"/>
<polygon fill="#63b8ff" stroke="#63b8ff" points="377.3,-595.63 369.59,-602.9 380.15,-602.02 377.3,-595.63"/>
</a>
</g>
</g>
<!-- Node69 -->
<g id="Node000069" class="node">
<title>Node69</title>
<g id="a_Node000069"><a xlink:href="class_p4_1_1_e_b_p_f_1_1_e_b_p_f_table_base.html" target="_top" xlink:title="Also used to represent counters.">
<polygon fill="#fff0f0" stroke="red" points="590,-456 452,-456 452,-437 590,-437 590,-456"/>
<text text-anchor="middle" x="521" y="-444" font-family="Helvetica,sans-Serif" font-size="10.00">P4::EBPF::EBPFTableBase</text>
</a>
</g>
</g>
<!-- Node19&#45;&gt;Node69 -->
<g id="edge28_Node000019_Node000069" class="edge">
<title>Node19&#45;&gt;Node69</title>
<g id="a_edge28_Node000019_Node000069"><a xlink:title=" ">
<path fill="none" stroke="#63b8ff" d="M380.79,-598.48C385.64,-595.72 390.14,-592.43 394,-588.5 433.92,-547.87 388.21,-504.2 430,-465.5 436.21,-459.75 443.71,-455.56 451.69,-452.55"/>
<polygon fill="#63b8ff" stroke="#63b8ff" points="379.22,-595.35 371.76,-602.87 382.29,-601.64 379.22,-595.35"/>
</a>
</g>
</g>
<!-- Node84 -->
<g id="Node000084" class="node">
<title>Node84</title>
<g id="a_Node000084"><a xlink:href="class_p4_1_1_e_b_p_f_1_1_e_b_p_f_type.html" target="_top" xlink:title="Base class for EBPF types.">
<polygon fill="#fff0f0" stroke="red" points="576.5,-419 465.5,-419 465.5,-400 576.5,-400 576.5,-419"/>
<text text-anchor="middle" x="521" y="-407" font-family="Helvetica,sans-Serif" font-size="10.00">P4::EBPF::EBPFType</text>
</a>
</g>
</g>
<!-- Node19&#45;&gt;Node84 -->
<g id="edge29_Node000019_Node000084" class="edge">
<title>Node19&#45;&gt;Node84</title>
<g id="a_edge29_Node000019_Node000084"><a xlink:title=" ">
<path fill="none" stroke="#63b8ff" d="M381.87,-598.26C386.34,-595.55 390.47,-592.33 394,-588.5 443.42,-534.92 378.12,-479.7 430,-428.5 439.43,-419.19 452.21,-413.92 465.17,-411.05"/>
<polygon fill="#63b8ff" stroke="#63b8ff" points="380.19,-595.19 372.89,-602.87 383.38,-601.41 380.19,-595.19"/>
</a>
</g>
</g>
<!-- Node100 -->
<g id="Node000100" class="node">
<title>Node100</title>
<g id="a_Node000100"><a xlink:href="class_p4_1_1_u_b_p_f_1_1_u_b_p_f_deparser.html" target="_top" xlink:title=" ">
<polygon fill="white" stroke="#bfbfbf" points="589.5,-382 452.5,-382 452.5,-363 589.5,-363 589.5,-382"/>
<text text-anchor="middle" x="521" y="-370" font-family="Helvetica,sans-Serif" font-size="10.00">P4::UBPF::UBPFDeparser</text>
</a>
</g>
</g>
<!-- Node19&#45;&gt;Node100 -->
<g id="edge32_Node000019_Node000100" class="edge">
<title>Node19&#45;&gt;Node100</title>
<g id="a_edge32_Node000019_Node000100"><a xlink:title=" ">
<path fill="none" stroke="#63b8ff" d="M382.59,-598.07C386.82,-595.39 390.69,-592.23 394,-588.5 453,-521.86 367.93,-455.29 430,-391.5 436.24,-385.09 444.05,-380.58 452.46,-377.43"/>
<polygon fill="#63b8ff" stroke="#63b8ff" points="380.69,-595.12 373.5,-602.9 383.97,-601.3 380.69,-595.12"/>
</a>
</g>
</g>
<!-- Node101 -->
<g id="Node000101" class="node">
<title>Node101</title>
<g id="a_Node000101"><a xlink:href="class_p4_1_1_u_b_p_f_1_1_u_b_p_f_table_base.html" target="_top" xlink:title=" ">
<polygon fill="white" stroke="orangered" points="591.5,-345 450.5,-345 450.5,-326 591.5,-326 591.5,-345"/>
<text text-anchor="middle" x="521" y="-333" font-family="Helvetica,sans-Serif" font-size="10.00">P4::UBPF::UBPFTableBase</text>
</a>
</g>
</g>
<!-- Node19&#45;&gt;Node101 -->
<g id="edge33_Node000019_Node000101" class="edge">
<title>Node19&#45;&gt;Node101</title>
<g id="a_edge33_Node000019_Node000101"><a xlink:title=" ">
<path fill="none" stroke="#63b8ff" d="M382.92,-598.04C387.03,-595.37 390.8,-592.22 394,-588.5 462.64,-508.75 357.69,-430.94 430,-354.5 435.6,-348.58 442.54,-344.27 450.06,-341.16"/>
<polygon fill="#63b8ff" stroke="#63b8ff" points="381.16,-595.01 374.04,-602.86 384.5,-601.16 381.16,-595.01"/>
</a>
</g>
</g>
<!-- Node85 -->
<g id="Node000085" class="node">
<title>Node85</title>
<g id="a_Node000085"><a xlink:href="class_p4_1_1_e_b_p_f_1_1_e_b_p_f_bool_type.html" target="_top" xlink:title=" ">
<polygon fill="white" stroke="orangered" points="785,-400 651,-400 651,-381 785,-381 785,-400"/>
<text text-anchor="middle" x="718" y="-388" font-family="Helvetica,sans-Serif" font-size="10.00">P4::EBPF::EBPFBoolType</text>
</a>
</g>
</g>
<!-- Node84&#45;&gt;Node85 -->
<g id="edge30_Node000084_Node000085" class="edge">
<title>Node84&#45;&gt;Node85</title>
<g id="a_edge30_Node000084_Node000085"><a xlink:title=" ">
<path fill="none" stroke="#63b8ff" d="M586.54,-403.21C607.24,-401.19 630.19,-398.96 651,-396.93"/>
<polygon fill="#63b8ff" stroke="#63b8ff" points="586.19,-399.73 576.58,-404.18 586.87,-406.7 586.19,-399.73"/>
</a>
</g>
</g>
<!-- Node87 -->
<g id="Node000087" class="node">
<title>Node87</title>
<g id="a_Node000087"><a xlink:href="class_p4_1_1_e_b_p_f_1_1_e_b_p_f_enum_type.html" target="_top" xlink:title=" ">
<polygon fill="white" stroke="orangered" points="788,-345 648,-345 648,-326 788,-326 788,-345"/>
<text text-anchor="middle" x="718" y="-333" font-family="Helvetica,sans-Serif" font-size="10.00">P4::EBPF::EBPFEnumType</text>
</a>
</g>
</g>
<!-- Node84&#45;&gt;Node87 -->
<g id="edge31_Node000084_Node000087" class="edge">
<title>Node84&#45;&gt;Node87</title>
<g id="a_edge31_Node000084_Node000087"><a xlink:title=" ">
<path fill="none" stroke="#63b8ff" d="M586.93,-398.89C595.47,-396.8 604.02,-394.36 612,-391.5 613.14,-391.09 669.23,-361.08 698.95,-345.17"/>
<polygon fill="#63b8ff" stroke="#63b8ff" points="585.92,-395.53 576.95,-401.17 587.48,-402.35 585.92,-395.53"/>
</a>
</g>
</g>
<!-- Node104&#45;&gt;Node85 -->
<g id="edge35_Node000104_Node000085" class="edge">
<title>Node104&#45;&gt;Node85</title>
<g id="a_edge35_Node000104_Node000085"><a xlink:title=" ">
<path fill="none" stroke="#63b8ff" d="M588.33,-306.87C596.58,-309.31 604.68,-312.46 612,-316.5 632.36,-327.75 629.43,-340.48 648,-354.5 662.23,-365.25 680.13,-374.48 694.14,-380.91"/>
<polygon fill="#63b8ff" stroke="#63b8ff" points="589.17,-303.47 578.61,-304.32 587.39,-310.24 589.17,-303.47"/>
</a>
</g>
</g>
<!-- Node104&#45;&gt;Node87 -->
<g id="edge36_Node000104_Node000087" class="edge">
<title>Node104&#45;&gt;Node87</title>
<g id="a_edge36_Node000104_Node000087"><a xlink:title=" ">
<path fill="none" stroke="#63b8ff" d="M582.34,-309.95C609.36,-315.08 640.87,-321.06 666.61,-325.94"/>
<polygon fill="#63b8ff" stroke="#63b8ff" points="582.69,-306.45 572.22,-308.03 581.39,-313.33 582.69,-306.45"/>
</a>
</g>
</g>
</g>
</svg>

<g id="navigator" transform="translate(0 0)" fill="#404254">
  <rect fill="#f2f5e9" fill-opacity="0.5" stroke="#606060" stroke-width=".5" x="0" y="0" width="60" height="60"/>
  <use id="zoomplus" xlink:href="#zoomPlus" x="17" y="9" onmousedown="handleZoom(evt,'in')"/>
  <use id="zoomminus" xlink:href="#zoomMin" x="42" y="9" onmousedown="handleZoom(evt,'out')"/>
  <use id="reset" xlink:href="#resetDef" x="30" y="36" onmousedown="handleReset()"/>
   <use id="arrowup" xlink:href="#arrowUp" x="0" y="0" onmousedown="handlePan(0,-1)"/>
  <use id="arrowright" xlink:href="#arrowRight" x="0" y="0" onmousedown="handlePan(1,0)"/>
  <use id="arrowdown" xlink:href="#arrowDown" x="0" y="0" onmousedown="handlePan(0,1)"/>
  <use id="arrowleft" xlink:href="#arrowLeft" x="0" y="0" onmousedown="handlePan(-1,0)"/>
</g>
<svg viewBox="0 0 15 15" width="100%" height="30px" preserveAspectRatio="xMaxYMin meet">
 <g id="arrow_out" transform="scale(0.3 0.3)">
  <a xlink:href="struct_p4_1_1_r_t_t_i_1_1_base__inherit__graph_org.svg" target="_base">
   <rect id="button" ry="5" rx="5" y="6" x="6" height="38" width="38"
        fill="#f2f5e9" fill-opacity="0.5" stroke="#606060" stroke-width="1.0"/>
   <path id="arrow"
     d="M 11.500037,31.436501 C 11.940474,20.09759 22.043105,11.32322 32.158766,21.979434 L 37.068811,17.246167 C 37.068811,17.246167 37.088388,32 37.088388,32 L 22.160133,31.978069 C 22.160133,31.978069 26.997745,27.140456 26.997745,27.140456 C 18.528582,18.264221 13.291696,25.230495 11.500037,31.436501 z"
     style="fill:#404040;"/>
  </a>
 </g>
</svg>

<style type='text/css'>
<![CDATA[
[data-mouse-over-selected='false'] { opacity: 0.7; }
[data-mouse-over-selected='true']  { opacity: 1.0; }
]]>
</style>
<script type="application/ecmascript"><![CDATA[
document.addEventListener('DOMContentLoaded', (event) => {
  highlightEdges();
  highlightAdjacentNodes();
});
]]></script>
</svg>
